<svg width="128" height="157" viewBox="0 0 128 157" fill="none" xmlns="http://www.w3.org/2000/svg">
<path opacity="0.15" d="M122.654 3.68359H0V97.8802H122.654V3.68359Z" fill="black"/>
<path d="M4.47583 93.9183V0.5H126.5V93.9183H4.47583Z" stroke="white"/>
<path d="M10.5708 62.1211H117.393" stroke="white" stroke-width="0.5" stroke-miterlimit="10"/>
<path d="M10.5709 62.1218V61.0898" stroke="white" stroke-width="0.5" stroke-miterlimit="10"/>
<path d="M16.1927 62.1218V61.0898" stroke="white" stroke-width="0.5" stroke-miterlimit="10"/>
<path d="M21.8137 62.1218V61.0898" stroke="white" stroke-width="0.5" stroke-miterlimit="10"/>
<path d="M27.4357 62.1218V61.0898" stroke="white" stroke-width="0.5" stroke-miterlimit="10"/>
<path d="M33.0576 62.1218V61.0898" stroke="white" stroke-width="0.5" stroke-miterlimit="10"/>
<path d="M38.6786 62.1218V61.0898" stroke="white" stroke-width="0.5" stroke-miterlimit="10"/>
<path d="M44.3044 62.1218V61.0898" stroke="white" stroke-width="0.5" stroke-miterlimit="10"/>
<path d="M49.9254 62.1218V61.0898" stroke="white" stroke-width="0.5" stroke-miterlimit="10"/>
<path d="M55.5474 62.1218V61.0898" stroke="white" stroke-width="0.5" stroke-miterlimit="10"/>
<path d="M61.1693 62.1218V61.0898" stroke="white" stroke-width="0.5" stroke-miterlimit="10"/>
<path d="M66.7913 62.1218V61.0898" stroke="white" stroke-width="0.5" stroke-miterlimit="10"/>
<path d="M72.4122 62.1218V61.0898" stroke="white" stroke-width="0.5" stroke-miterlimit="10"/>
<path d="M78.0381 62.1218V61.0898" stroke="white" stroke-width="0.5" stroke-miterlimit="10"/>
<path d="M83.6591 62.1218V61.0898" stroke="white" stroke-width="0.5" stroke-miterlimit="10"/>
<path d="M89.281 62.1218V61.0898" stroke="white" stroke-width="0.5" stroke-miterlimit="10"/>
<path d="M94.903 62.1218V61.0898" stroke="white" stroke-width="0.5" stroke-miterlimit="10"/>
<path d="M100.524 62.1218V61.0898" stroke="white" stroke-width="0.5" stroke-miterlimit="10"/>
<path d="M106.146 62.1218V61.0898" stroke="white" stroke-width="0.5" stroke-miterlimit="10"/>
<path d="M111.768 62.1218V61.0898" stroke="white" stroke-width="0.5" stroke-miterlimit="10"/>
<path d="M117.393 62.1218V61.0898" stroke="white" stroke-width="0.5" stroke-miterlimit="10"/>
<path d="M10.5706 62.1222V20.9492" stroke="white" stroke-width="0.5" stroke-miterlimit="10"/>
<path d="M10.5701 62.1211H13.2382" stroke="white" stroke-width="0.5" stroke-miterlimit="10"/>
<path d="M10.5696 53.8867H7.61951" stroke="white" stroke-width="0.5" stroke-miterlimit="10"/>
<path d="M10.5696 45.6523H7.61951" stroke="white" stroke-width="0.5" stroke-miterlimit="10"/>
<path d="M10.5696 37.4219H7.61951" stroke="white" stroke-width="0.5" stroke-miterlimit="10"/>
<path d="M10.5696 29.1836H7.61951" stroke="white" stroke-width="0.5" stroke-miterlimit="10"/>
<path d="M10.5696 20.9492H7.61951" stroke="white" stroke-width="0.5" stroke-miterlimit="10"/>
<path d="M108.958 29.1824L114.58 22.9453" stroke="#FF7028" stroke-width="2" stroke-miterlimit="10" stroke-linecap="round"/>
<path d="M103.336 43.1815L108.958 29.1836" stroke="#FF7028" stroke-width="2" stroke-miterlimit="10" stroke-linecap="round"/>
<path d="M97.7144 37.4219L103.336 43.1845" stroke="#FF7028" stroke-width="2" stroke-miterlimit="10" stroke-linecap="round"/>
<path d="M92.0895 52.2405L97.7147 37.4219" stroke="#FF7028" stroke-width="2" stroke-miterlimit="10" stroke-linecap="round"/>
<path d="M86.4675 29.1836L92.0892 52.2375" stroke="#FF7028" stroke-width="2" stroke-miterlimit="10" stroke-linecap="round"/>
<path d="M80.8466 20.9492L86.4682 29.1845" stroke="#FF7028" stroke-width="2" stroke-miterlimit="10" stroke-linecap="round"/>
<path d="M75.2246 58.0045L80.8463 20.9492" stroke="#FF7028" stroke-width="2" stroke-miterlimit="10" stroke-linecap="round"/>
<path d="M69.6027 55.5312L75.2243 58.0039" stroke="#FF7028" stroke-width="2" stroke-miterlimit="10" stroke-linecap="round"/>
<path d="M63.9807 54.7109L69.6024 55.5317" stroke="#FF7028" stroke-width="2" stroke-miterlimit="10" stroke-linecap="round"/>
<path d="M58.3558 38.3867L63.981 54.7118" stroke="#FF7028" stroke-width="2" stroke-miterlimit="10" stroke-linecap="round"/>
<path d="M52.7339 35.0938L58.3555 38.3872" stroke="#FF7028" stroke-width="2" stroke-miterlimit="10" stroke-linecap="round"/>
<path d="M47.1129 50.5946L52.7346 35.0938" stroke="#FF7028" stroke-width="2" stroke-miterlimit="10" stroke-linecap="round"/>
<path d="M41.491 53.8872L47.1126 50.5938" stroke="#FF7028" stroke-width="2" stroke-miterlimit="10" stroke-linecap="round"/>
<path d="M35.869 36.5938L41.4907 53.8851" stroke="#FF7028" stroke-width="2" stroke-miterlimit="10" stroke-linecap="round"/>
<path d="M30.248 34.125L35.8697 36.5942" stroke="#FF7028" stroke-width="2" stroke-miterlimit="10" stroke-linecap="round"/>
<path d="M24.6261 30.832L30.2478 34.1254" stroke="#FF7028" stroke-width="2" stroke-miterlimit="10" stroke-linecap="round"/>
<path d="M19.0012 34.1254L24.6264 30.832" stroke="#FF7028" stroke-width="2" stroke-miterlimit="10" stroke-linecap="round"/>
<path d="M13.3795 37.4184L19.0012 34.125" stroke="#FF7028" stroke-width="2" stroke-miterlimit="10" stroke-linecap="round"/>
<path d="M114.579 21.9688C114.03 21.9688 113.585 22.4051 113.585 22.9453C113.585 23.4856 114.03 23.9219 114.579 23.9219C115.129 23.9219 115.573 23.4856 115.573 22.9453C115.573 22.4051 115.129 21.9688 114.579 21.9688Z" fill="white" stroke="#FF7028" stroke-linecap="round" stroke-linejoin="round"/>
<path d="M108.958 28.207C108.409 28.207 107.964 28.6434 107.964 29.1836C107.964 29.7239 108.409 30.1602 108.958 30.1602C109.508 30.1602 109.952 29.7239 109.952 29.1836C109.952 28.6434 109.508 28.207 108.958 28.207Z" fill="white" stroke="#FF7028" stroke-linecap="round" stroke-linejoin="round"/>
<path d="M103.336 42.207C102.787 42.207 102.343 42.6434 102.343 43.1836C102.343 43.7239 102.787 44.1602 103.336 44.1602C103.886 44.1602 104.33 43.7239 104.33 43.1836C104.33 42.6434 103.886 42.207 103.336 42.207Z" fill="white" stroke="#FF7028" stroke-linecap="round" stroke-linejoin="round"/>
<path d="M97.7145 36.4453C97.1647 36.4453 96.7206 36.8817 96.7206 37.4219C96.7206 37.9622 97.1647 38.3985 97.7145 38.3985C98.2643 38.3985 98.7084 37.9622 98.7084 37.4219C98.7084 36.8817 98.2643 36.4453 97.7145 36.4453Z" fill="white" stroke="#FF7028" stroke-linecap="round" stroke-linejoin="round"/>
<path d="M92.0896 51.2617C91.5398 51.2617 91.0957 51.6981 91.0957 52.2383C91.0957 52.7786 91.5398 53.2149 92.0896 53.2149C92.6395 53.2149 93.0836 52.7786 93.0836 52.2383C93.0836 51.6981 92.6395 51.2617 92.0896 51.2617Z" fill="white" stroke="#FF7028" stroke-linecap="round" stroke-linejoin="round"/>
<path d="M86.4677 28.207C85.9178 28.207 85.4738 28.6434 85.4738 29.1836C85.4738 29.7239 85.9178 30.1602 86.4677 30.1602C87.0175 30.1602 87.4616 29.7239 87.4616 29.1836C87.4616 28.6434 87.0175 28.207 86.4677 28.207Z" fill="white" stroke="#FF7028" stroke-linecap="round" stroke-linejoin="round"/>
<path d="M80.8467 19.9727C80.2969 19.9727 79.8528 20.409 79.8528 20.9493C79.8528 21.4895 80.2969 21.9259 80.8467 21.9259C81.3965 21.9259 81.8406 21.4895 81.8406 20.9493C81.8406 20.409 81.3965 19.9727 80.8467 19.9727Z" fill="#263238" stroke="#FF7028" stroke-linecap="round" stroke-linejoin="round"/>
<path d="M75.2248 57.0273C74.6749 57.0273 74.2308 57.4637 74.2308 58.0039C74.2308 58.5442 74.6749 58.9805 75.2248 58.9805C75.7746 58.9805 76.2187 58.5442 76.2187 58.0039C76.2187 57.4637 75.7746 57.0273 75.2248 57.0273Z" fill="white" stroke="#FF7028" stroke-linecap="round" stroke-linejoin="round"/>
<path d="M69.6028 54.5547C69.053 54.5547 68.6089 54.991 68.6089 55.5313C68.6089 56.0715 69.053 56.5079 69.6028 56.5079C70.1526 56.5079 70.5967 56.0715 70.5967 55.5313C70.5967 54.991 70.1526 54.5547 69.6028 54.5547Z" fill="white" stroke="#FF7028" stroke-linecap="round" stroke-linejoin="round"/>
<path d="M63.9809 53.7344C63.431 53.7344 62.9869 54.1707 62.9869 54.711C62.9869 55.2512 63.431 55.6876 63.9809 55.6876C64.5307 55.6876 64.9748 55.2512 64.9748 54.711C64.9748 54.1707 64.5307 53.7344 63.9809 53.7344Z" fill="white" stroke="#FF7028" stroke-linecap="round" stroke-linejoin="round"/>
<path d="M58.356 37.4102C57.8062 37.4102 57.3621 37.8465 57.3621 38.3868C57.3621 38.927 57.8062 39.3634 58.356 39.3634C58.9058 39.3634 59.3499 38.927 59.3499 38.3868C59.3499 37.8465 58.9058 37.4102 58.356 37.4102Z" fill="white" stroke="#FF7028" stroke-linecap="round" stroke-linejoin="round"/>
<path d="M52.734 34.1172C52.1842 34.1172 51.7401 34.5535 51.7401 35.0938C51.7401 35.634 52.1842 36.0704 52.734 36.0704C53.2839 36.0704 53.728 35.634 53.728 35.0938C53.728 34.5535 53.2839 34.1172 52.734 34.1172Z" fill="white" stroke="#FF7028" stroke-linecap="round" stroke-linejoin="round"/>
<path d="M47.1131 49.6172C46.5632 49.6172 46.1191 50.0535 46.1191 50.5938C46.1191 51.134 46.5632 51.5704 47.1131 51.5704C47.6629 51.5704 48.107 51.134 48.107 50.5938C48.107 50.0535 47.6629 49.6172 47.1131 49.6172Z" fill="white" stroke="#FF7028" stroke-linecap="round" stroke-linejoin="round"/>
<path d="M41.4911 52.9102C40.9413 52.9102 40.4972 53.3465 40.4972 53.8868C40.4972 54.427 40.9413 54.8634 41.4911 54.8634C42.0409 54.8634 42.485 54.427 42.485 53.8868C42.485 53.3465 42.0409 52.9102 41.4911 52.9102Z" fill="white" stroke="#FF7028" stroke-linecap="round" stroke-linejoin="round"/>
<path d="M35.8692 35.6172C35.3193 35.6172 34.8752 36.0535 34.8752 36.5938C34.8752 37.134 35.3193 37.5704 35.8692 37.5704C36.419 37.5704 36.8631 37.134 36.8631 36.5938C36.8631 36.0535 36.419 35.6172 35.8692 35.6172Z" fill="white" stroke="#FF7028" stroke-linecap="round" stroke-linejoin="round"/>
<path d="M30.2482 33.1484C29.6984 33.1484 29.2543 33.5848 29.2543 34.125C29.2543 34.6653 29.6984 35.1016 30.2482 35.1016C30.798 35.1016 31.2421 34.6653 31.2421 34.125C31.2421 33.5848 30.798 33.1484 30.2482 33.1484Z" fill="white" stroke="#FF7028" stroke-linecap="round" stroke-linejoin="round"/>
<path d="M24.6262 29.8555C24.0764 29.8555 23.6323 30.2918 23.6323 30.8321C23.6323 31.3723 24.0764 31.8087 24.6262 31.8087C25.1761 31.8087 25.6202 31.3723 25.6202 30.8321C25.6202 30.2918 25.1761 29.8555 24.6262 29.8555Z" fill="white" stroke="#FF7028" stroke-linecap="round" stroke-linejoin="round"/>
<path d="M19.0014 33.1484C18.4515 33.1484 18.0074 33.5848 18.0074 34.125C18.0074 34.6653 18.4515 35.1016 19.0014 35.1016C19.5512 35.1016 19.9953 34.6653 19.9953 34.125C19.9953 33.5848 19.5512 33.1484 19.0014 33.1484Z" fill="white" stroke="#FF7028" stroke-linecap="round" stroke-linejoin="round"/>
<path d="M13.3794 36.4453C12.8296 36.4453 12.3855 36.8817 12.3855 37.4219C12.3855 37.9622 12.8296 38.3985 13.3794 38.3985C13.9292 38.3985 14.3733 37.9622 14.3733 37.4219C14.3733 36.8817 13.9292 36.4453 13.3794 36.4453Z" fill="white" stroke="#FF7028" stroke-linecap="round" stroke-linejoin="round"/>
<path d="M125.542 0.492188H126.544V93.3012H125.542V0.492188Z" fill="white" stroke="white" stroke-miterlimit="10"/>
<path d="M8.9251 10.8295L9.25289 8.70312H9.91903V11.6953H9.46788V9.54812L9.13658 11.6953H8.68543L8.32945 9.57929V11.6953H7.91003V8.70312H8.57617L8.92863 10.8295H8.9251Z" fill="white"/>
<path d="M11.8149 11.6992H11.332L11.251 11.1555H10.6624L10.5813 11.6992H10.1407L10.6271 8.70703H11.3285L11.8149 11.6992ZM10.7223 10.7503H11.184L10.9549 9.23689L10.7258 10.7503H10.7223Z" fill="white"/>
<path d="M13.0386 11.6992C13.0139 11.623 12.9963 11.5745 12.9963 11.3321V10.8611C12.9963 10.584 12.9011 10.4801 12.6826 10.4801H12.5169V11.6992H12.0376V8.70703H12.7601C13.2571 8.70703 13.4686 8.93213 13.4686 9.39619V9.63168C13.4686 9.9399 13.3699 10.1408 13.1549 10.2377C13.3945 10.3347 13.4721 10.5633 13.4721 10.8749V11.3355C13.4721 11.481 13.4756 11.5883 13.525 11.6992H13.0386ZM12.5169 9.13299V10.0542H12.7037C12.8835 10.0542 12.9892 9.97799 12.9892 9.73904V9.44467C12.9892 9.22996 12.9152 9.13646 12.746 9.13646H12.5169V9.13299Z" fill="white"/>
<path d="M15.1778 10.584V10.9822C15.1778 11.4601 14.9346 11.7337 14.4623 11.7337C13.99 11.7337 13.7504 11.4601 13.7504 10.9822V9.42728C13.7504 8.94937 13.9936 8.67578 14.4623 8.67578C14.9311 8.67578 15.1778 8.94937 15.1778 9.42728V9.71818H14.7267V9.39611C14.7267 9.1814 14.6315 9.10174 14.4799 9.10174C14.3284 9.10174 14.2332 9.1814 14.2332 9.39611V11.0134C14.2332 11.2281 14.3284 11.3043 14.4799 11.3043C14.6315 11.3043 14.7267 11.2281 14.7267 11.0134V10.584H15.1778Z" fill="white"/>
<path d="M15.9493 11.6992H15.47V8.70703H15.9493V9.98838H16.4921V8.70703H16.9785V11.6992H16.4921V10.4178H15.9493V11.6992Z" fill="white"/>
<path d="M15.9804 63.25H10.6301V65.6673H15.9804V63.25Z" fill="#A1A1A1"/>
<path d="M21.6092 63.25H16.2589V65.6673H21.6092V63.25Z" fill="#595959"/>
<path d="M27.238 63.25H21.8877V65.6673H27.238V63.25Z" fill="#A1A1A1"/>
<path d="M32.8669 63.25H27.5166V65.6673H32.8669V63.25Z" fill="#595959"/>
<path d="M38.4986 63.25H33.1483V65.6673H38.4986V63.25Z" fill="#A1A1A1"/>
<path d="M44.1274 63.25H38.7771V65.6673H44.1274V63.25Z" fill="#595959"/>
<path d="M49.7561 63.25H44.4059V65.6673H49.7561V63.25Z" fill="#A1A1A1"/>
<path d="M55.3849 63.25H50.0347V65.6673H55.3849V63.25Z" fill="#595959"/>
<path d="M61.0137 63.25H55.6635V65.6673H61.0137V63.25Z" fill="#A1A1A1"/>
<path d="M66.6425 63.25H61.2922V65.6673H66.6425V63.25Z" fill="#595959"/>
<path d="M72.2714 63.25H66.9211V65.6673H72.2714V63.25Z" fill="#A1A1A1"/>
<path d="M77.8992 63.25H72.549V65.6673H77.8992V63.25Z" fill="#595959"/>
<path d="M83.528 63.25H78.1777V65.6673H83.528V63.25Z" fill="#A1A1A1"/>
<path d="M89.1607 63.25H83.8104V65.6673H89.1607V63.25Z" fill="#595959"/>
<path d="M94.7895 63.25H89.4392V65.6673H94.7895V63.25Z" fill="#A1A1A1"/>
<path d="M100.418 63.25H95.068V65.6673H100.418V63.25Z" fill="#595959"/>
<path d="M106.047 63.25H100.697V65.6673H106.047V63.25Z" fill="#A1A1A1"/>
<path d="M111.675 63.25H106.325V65.6673H111.675V63.25Z" fill="#595959"/>
<path d="M117.304 63.25H111.953V65.6673H117.304V63.25Z" fill="#A1A1A1"/>
<path d="M16.2663 14.875H7.15186V17.2923H16.2663V14.875Z" fill="white"/>
<path d="M25.8535 14.875H16.739V17.2923H25.8535V14.875Z" fill="#FF7028"/>
<path d="M35.4405 14.875H26.326V17.2923H35.4405V14.875Z" fill="white"/>
<path d="M45.0304 14.875H35.9159V17.2923H45.0304V14.875Z" fill="#FF7028"/>
<path d="M54.6174 14.875H45.5029V17.2923H54.6174V14.875Z" fill="white"/>
<path d="M64.2073 14.875H55.0928V17.2923H64.2073V14.875Z" fill="#FF7028"/>
<path d="M73.7943 14.875H64.6798V17.2923H73.7943V14.875Z" fill="white"/>
<path d="M83.3813 14.875H74.2668V17.2923H83.3813V14.875Z" fill="#FF7028"/>
<path d="M92.9712 14.875H83.8567V17.2923H92.9712V14.875Z" fill="white"/>
<path d="M102.558 14.875H93.4437V17.2923H102.558V14.875Z" fill="#FF7028"/>
<path d="M112.145 14.875H103.031V17.2923H112.145V14.875Z" fill="white"/>
<path d="M121.735 14.875H112.621V17.2923H121.735V14.875Z" fill="#FF7028"/>
<path d="M60.0127 20.9609H78.7844L74.4739 23.0804V27.4058C74.4739 28.0395 73.9523 28.5521 73.3073 28.5521H60.0127C59.3677 28.5521 58.8461 28.0395 58.8461 27.4058V22.1107C58.8461 21.4769 59.3677 20.9644 60.0127 20.9644V20.9609Z" fill="#263238"/>
<path d="M64.0521 23.4559C64.0521 23.0161 63.8971 22.8949 63.6468 22.8949C63.3966 22.8949 63.2415 23.0265 63.2415 23.3762V23.6914H62.5013V23.4247C62.5013 22.6421 62.8996 22.1953 63.668 22.1953C64.4363 22.1953 64.8346 22.6421 64.8346 23.4247V23.5494C64.8346 24.0758 64.6654 24.4013 64.2883 24.5572C64.6795 24.7234 64.8346 25.087 64.8346 25.5857V25.9701C64.8346 26.7528 64.4363 27.1995 63.668 27.1995C62.8996 27.1995 62.5013 26.7528 62.5013 25.9701V25.5649H63.2415V26.0186C63.2415 26.3684 63.3966 26.5 63.6468 26.5C63.8971 26.5 64.0521 26.3822 64.0521 25.9459V25.5615C64.0521 25.1078 63.8971 24.9381 63.5411 24.9381H63.2767V24.2385H63.5834C63.8759 24.2385 64.0521 24.1139 64.0521 23.7225V23.449V23.4559Z" fill="white"/>
<path d="M65.2961 23.4286C65.2961 22.646 65.7156 22.1992 66.4839 22.1992C67.2523 22.1992 67.6717 22.646 67.6717 23.4286V25.974C67.6717 26.7567 67.2523 27.2034 66.4839 27.2034C65.7156 27.2034 65.2961 26.7567 65.2961 25.974V23.4286ZM66.0821 26.026C66.0821 26.3757 66.2372 26.5073 66.4874 26.5073C66.7377 26.5073 66.8928 26.3757 66.8928 26.026V23.3836C66.8928 23.0338 66.7377 22.9022 66.4874 22.9022C66.2372 22.9022 66.0821 23.0338 66.0821 23.3836V26.026Z" fill="white"/>
<path d="M69.2047 25.1971L68.9615 25.6438V27.1468H68.1791V22.25H68.9615V24.3833L69.9872 22.25H70.7696L69.6805 24.4318L70.7696 27.1468H69.966L69.2047 25.1971Z" fill="white"/>
<path d="M20.4254 80.3385V80.7472C20.4254 81.0623 20.5664 81.1732 20.7885 81.1732C21.0105 81.1732 21.1515 81.0589 21.1515 80.7472V79.781C21.1515 79.4658 21.0105 79.3481 20.7885 79.3481C20.5664 79.3481 20.4254 79.4658 20.4254 79.781V79.9126H19.7628L19.8897 77.3672H21.7401V77.994H20.5206L20.4642 79.0399C20.5911 78.8321 20.7955 78.7213 21.0775 78.7213C21.5956 78.7213 21.8564 79.078 21.8564 79.7256V80.7022C21.8564 81.4052 21.5004 81.8034 20.8096 81.8034C20.1188 81.8034 19.7628 81.4017 19.7628 80.7022V80.3385H20.4254Z" fill="white"/>
<path d="M22.2617 78.4211C22.2617 77.7181 22.6388 77.3164 23.3261 77.3164C24.0134 77.3164 24.3905 77.7181 24.3905 78.4211V80.7033C24.3905 81.4063 24.0134 81.8046 23.3261 81.8046C22.6388 81.8046 22.2617 81.4029 22.2617 80.7033V78.4211ZM22.9631 80.7483C22.9631 81.0635 23.1041 81.1812 23.3261 81.1812C23.5482 81.1812 23.6892 81.0635 23.6892 80.7483V78.3796C23.6892 78.0644 23.5482 77.9467 23.3261 77.9467C23.1041 77.9467 22.9631 78.0644 22.9631 78.3796V80.7483Z" fill="white"/>
<path d="M24.7882 78.4211C24.7882 77.7181 25.1653 77.3164 25.8526 77.3164C26.5399 77.3164 26.917 77.7181 26.917 78.4211V80.7033C26.917 81.4063 26.5399 81.8046 25.8526 81.8046C25.1653 81.8046 24.7882 81.4029 24.7882 80.7033V78.4211ZM25.4896 80.7483C25.4896 81.0635 25.6306 81.1812 25.8526 81.1812C26.0747 81.1812 26.2156 81.0635 26.2156 80.7483V78.3796C26.2156 78.0644 26.0747 77.9467 25.8526 77.9467C25.6306 77.9467 25.4896 78.0644 25.4896 78.3796V80.7483Z" fill="white"/>
<path d="M28.2923 80.0061L28.0738 80.4078V81.755H27.3724V77.3672H28.0738V79.2788L28.9937 77.3672H29.6951L28.7188 79.3238L29.6951 81.755H28.9726L28.2888 80.0061H28.2923Z" fill="white"/>
<path d="M19.5336 84.8242H29.7653" stroke="white" stroke-miterlimit="10"/>
<path d="M58.8427 80.3385V80.7472C58.8427 81.0623 58.9836 81.1732 59.2057 81.1732C59.4277 81.1732 59.5687 81.0589 59.5687 80.7472V79.781C59.5687 79.4658 59.4277 79.3481 59.2057 79.3481C58.9836 79.3481 58.8427 79.4658 58.8427 79.781V79.9126H58.1801L58.3069 77.3672H60.1573V77.994H58.9378L58.8814 79.0399C59.0083 78.8321 59.2127 78.7213 59.4947 78.7213C60.0128 78.7213 60.2736 79.078 60.2736 79.7256V80.7022C60.2736 81.4052 59.9177 81.8034 59.2268 81.8034C58.536 81.8034 58.1801 81.4017 58.1801 80.7022V80.3385H58.8427Z" fill="white"/>
<path d="M60.6821 78.4211C60.6821 77.7181 61.0593 77.3164 61.7465 77.3164C62.4338 77.3164 62.811 77.7181 62.811 78.4211V80.7033C62.811 81.4063 62.4338 81.8046 61.7465 81.8046C61.0593 81.8046 60.6821 81.4029 60.6821 80.7033V78.4211ZM61.3835 80.7483C61.3835 81.0635 61.5245 81.1812 61.7465 81.1812C61.9686 81.1812 62.1096 81.0635 62.1096 80.7483V78.3796C62.1096 78.0644 61.9686 77.9467 61.7465 77.9467C61.5245 77.9467 61.3835 78.0644 61.3835 78.3796V80.7483Z" fill="white"/>
<path d="M63.2096 78.4211C63.2096 77.7181 63.5867 77.3164 64.274 77.3164C64.9613 77.3164 65.3384 77.7181 65.3384 78.4211V80.7033C65.3384 81.4063 64.9613 81.8046 64.274 81.8046C63.5867 81.8046 63.2096 81.4029 63.2096 80.7033V78.4211ZM63.911 80.7483C63.911 81.0635 64.052 81.1812 64.274 81.1812C64.4961 81.1812 64.637 81.0635 64.637 80.7483V78.3796C64.637 78.0644 64.4961 77.9467 64.274 77.9467C64.052 77.9467 63.911 78.0644 63.911 78.3796V80.7483Z" fill="white"/>
<path d="M66.7128 80.0061L66.4942 80.4078V81.755H65.7928V77.3672H66.4942V79.2788L67.4141 77.3672H68.1155L67.1392 79.3238L68.1155 81.755H67.393L66.7092 80.0061H66.7128Z" fill="white"/>
<path d="M57.9507 84.8242H68.186" stroke="#263238" stroke-miterlimit="10"/>
<path d="M100.56 80.3385V80.7472C100.56 81.0623 100.701 81.1732 100.923 81.1732C101.145 81.1732 101.286 81.0589 101.286 80.7472V79.781C101.286 79.4658 101.145 79.3481 100.923 79.3481C100.701 79.3481 100.56 79.4658 100.56 79.781V79.9126H99.8972L100.024 77.3672H101.874V77.994H100.655L100.599 79.0399C100.725 78.8321 100.93 78.7213 101.212 78.7213C101.73 78.7213 101.991 79.078 101.991 79.7256V80.7022C101.991 81.4052 101.635 81.8034 100.944 81.8034C100.253 81.8034 99.8972 81.4017 99.8972 80.7022V80.3385H100.56Z" fill="white"/>
<path d="M102.396 78.4211C102.396 77.7181 102.773 77.3164 103.461 77.3164C104.148 77.3164 104.525 77.7181 104.525 78.4211V80.7033C104.525 81.4063 104.148 81.8046 103.461 81.8046C102.773 81.8046 102.396 81.4029 102.396 80.7033V78.4211ZM103.098 80.7483C103.098 81.0635 103.239 81.1812 103.461 81.1812C103.683 81.1812 103.824 81.0635 103.824 80.7483V78.3796C103.824 78.0644 103.683 77.9467 103.461 77.9467C103.239 77.9467 103.098 78.0644 103.098 78.3796V80.7483Z" fill="white"/>
<path d="M104.927 78.4211C104.927 77.7181 105.304 77.3164 105.991 77.3164C106.678 77.3164 107.056 77.7181 107.056 78.4211V80.7033C107.056 81.4063 106.678 81.8046 105.991 81.8046C105.304 81.8046 104.927 81.4029 104.927 80.7033V78.4211ZM105.628 80.7483C105.628 81.0635 105.769 81.1812 105.991 81.1812C106.213 81.1812 106.354 81.0635 106.354 80.7483V78.3796C106.354 78.0644 106.213 77.9467 105.991 77.9467C105.769 77.9467 105.628 78.0644 105.628 78.3796V80.7483Z" fill="white"/>
<path d="M108.427 80.0061L108.208 80.4078V81.755H107.507V77.3672H108.208V79.2788L109.128 77.3672H109.83L108.853 79.3238L109.83 81.755H109.107L108.423 80.0061H108.427Z" fill="white"/>
<path d="M99.6681 84.8242H109.903" stroke="white" stroke-miterlimit="10"/>
<path d="M44.4304 73.6367V85.8788" stroke="#263238" stroke-miterlimit="10"/>
<path d="M86.2175 73.6367V85.8788" stroke="#263238" stroke-miterlimit="10"/>
<path d="M21.0833 71.6641H22.3274V72.0242H21.908V74.1817H21.5062V72.0242H21.0868V71.6641H21.0833Z" fill="white"/>
<path d="M22.4679 72.2666C22.4679 71.8648 22.6829 71.6328 23.0776 71.6328C23.4724 71.6328 23.6874 71.8614 23.6874 72.2666V73.5756C23.6874 73.9773 23.4724 74.2094 23.0776 74.2094C22.6829 74.2094 22.4679 73.9808 22.4679 73.5756V72.2666ZM22.8697 73.6033C22.8697 73.7834 22.9508 73.8527 23.0776 73.8527C23.2045 73.8527 23.2856 73.7834 23.2856 73.6033V72.2458C23.2856 72.0657 23.2045 71.9964 23.0776 71.9964C22.9508 71.9964 22.8697 72.0657 22.8697 72.2458V73.6033Z" fill="white"/>
<path d="M23.9486 71.6641H24.5866C24.9884 71.6641 25.1857 71.8822 25.1857 72.284V73.5549C25.1857 73.9566 24.9884 74.1783 24.5866 74.1783H23.9486V71.6641ZM24.3539 72.0242V73.8216H24.5795C24.7064 73.8216 24.7839 73.7558 24.7839 73.5757V72.2666C24.7839 72.0866 24.7064 72.0208 24.5795 72.0208H24.3539V72.0242Z" fill="white"/>
<path d="M26.7401 74.1822H26.3348L26.2643 73.7251H25.7709L25.7004 74.1822H25.3303L25.7392 71.668H26.3278L26.7366 74.1822H26.7401ZM25.8238 73.3822H26.2115L26.0176 72.1113L25.8238 73.3822Z" fill="white"/>
<path d="M27.3038 73.3471L26.7963 71.6641H27.2157L27.5223 72.8104L27.829 71.6641H28.2131L27.7056 73.3471V74.1817H27.3038V73.3471Z" fill="white"/>
<path d="M60.9648 72.8381L60.8203 74.1783H60.2669L59.9814 71.6641H60.3727L60.5877 73.6484L60.7815 71.6641H61.1692L61.3701 73.6623L61.5781 71.6641H61.9305L61.645 74.1783H61.1093L60.9613 72.8381H60.9648Z" fill="white"/>
<path d="M62.5367 72.7242H63.09V73.0844H62.5367V73.822H63.231V74.1822H62.1349V71.668H63.231V72.0281H62.5367V72.7277V72.7242Z" fill="white"/>
<path d="M63.8792 72.7242H64.4326V73.0844H63.8792V73.822H64.5736V74.1822H63.4774V71.668H64.5736V72.0281H63.8792V72.7277V72.7242Z" fill="white"/>
<path d="M65.349 73.1774L65.2257 73.406V74.1783H64.8239V71.6641H65.2257V72.7584L65.7508 71.6641H66.1526L65.5922 72.7861L66.1526 74.1817H65.7402L65.349 73.1774Z" fill="white"/>
<path d="M101.86 73.451L102.135 71.6641H102.695V74.1783H102.314V72.374L102.036 74.1783H101.655L101.356 72.3982V74.1783H101.003V71.6641H101.564L101.86 73.451Z" fill="white"/>
<path d="M102.952 72.2666C102.952 71.8648 103.167 71.6328 103.562 71.6328C103.957 71.6328 104.172 71.8614 104.172 72.2666V73.5756C104.172 73.9773 103.957 74.2094 103.562 74.2094C103.167 74.2094 102.952 73.9808 102.952 73.5756V72.2666ZM103.354 73.6033C103.354 73.7834 103.435 73.8527 103.562 73.8527C103.689 73.8527 103.77 73.7834 103.77 73.6033V72.2458C103.77 72.0657 103.689 71.9964 103.562 71.9964C103.435 71.9964 103.354 72.0657 103.354 72.2458V73.6033Z" fill="white"/>
<path d="M104.792 72.3567V74.1783H104.429V71.6641H104.933L105.345 73.1705V71.6641H105.705V74.1783H105.292L104.792 72.3567Z" fill="white"/>
<path d="M105.878 71.6641H107.122V72.0242H106.703V74.1817H106.301V72.0242H105.882V71.6641H105.878Z" fill="white"/>
<path d="M107.697 74.1822H107.295V71.668H107.697V72.745H108.155V71.668H108.564V74.1822H108.155V73.1052H107.697V74.1822Z" fill="white"/>
<path d="M121.01 8.30469H114.901" stroke="white" stroke-miterlimit="10"/>
<path d="M121.01 10.1484H114.901" stroke="white" stroke-miterlimit="10"/>
<path d="M121.01 11.9961H114.901" stroke="white" stroke-miterlimit="10"/>
<path d="M75.6707 84.7872L57.6495 83.1445L56.5498 94.7929L74.571 96.4355L75.6707 84.7872Z" fill="#171717" stroke="white" stroke-linecap="round" stroke-linejoin="round"/>
<path d="M58.8873 90.7543L61.0338 87.7656L63.0005 88.292L64.7909 91.4573L68.0089 88.4686L69.9791 92.6867H71.2303L74.272 87.7656" stroke="#FF7028" stroke-miterlimit="10" stroke-linecap="round"/>
<path d="M75.6036 88.5844C75.6036 88.5844 75.0326 87.9679 73.6051 87.0156C72.1777 86.0632 71.3812 85.8935 71.1521 86.0078C70.923 86.1186 69.0409 87.8571 68.9845 88.4735C68.9281 89.09 68.6426 89.651 68.6426 89.8761C68.6426 90.1012 69.0409 89.9315 69.4427 89.651C69.8445 89.3705 70.1264 88.4181 70.2991 88.2484C70.4718 88.0787 71.4975 88.0233 71.6702 88.0233C71.8429 88.0233 72.0684 88.9757 72.0684 88.9757C72.0684 88.9757 72.1812 90.5445 72.6958 90.7696C73.2104 90.9947 75.0925 90.9393 75.0925 90.9393L75.6071 88.5844H75.6036Z" fill="#171717" stroke="white" stroke-linecap="round" stroke-linejoin="round"/>
<path d="M75.0322 86.2266L67.2147 91.2723" stroke="white" stroke-linecap="round" stroke-linejoin="round"/>
<path d="M72.636 88.4688C72.636 88.4688 71.7795 89.1406 71.494 89.3657C71.2085 89.5908 69.3264 89.9267 69.0973 90.0375C68.8682 90.1484 68.2408 90.3181 68.6426 90.5432C69.0409 90.7683 70.1265 90.8791 70.5811 90.8791C71.0358 90.8791 72.3505 91.3293 72.9214 91.0488C73.4924 90.7683 73.9471 90.5432 73.9471 90.5432" fill="#171717"/>
<path d="M72.636 88.4688C72.636 88.4688 71.7795 89.1406 71.494 89.3657C71.2085 89.5908 69.3264 89.9267 69.0973 90.0375C68.8682 90.1484 68.2408 90.3181 68.6426 90.5432C69.0409 90.7683 70.1265 90.8791 70.5811 90.8791C71.0358 90.8791 72.3505 91.3293 72.9214 91.0488C73.4924 90.7683 73.9471 90.5432 73.9471 90.5432" stroke="white" stroke-linecap="round" stroke-linejoin="round"/>
<path d="M77.3728 88.3579L75.0889 88.1328L74.6307 91.3293L77.3728 92.0565V88.3579Z" fill="#171717" stroke="white" stroke-linecap="round" stroke-linejoin="round"/>
<path d="M79.6889 65.9539C79.6889 65.9539 79.4493 67.6785 79.9286 68.3816C80.408 69.088 80.5666 69.7148 80.5666 69.7148C80.5666 69.7148 79.6889 72.4576 80.0097 72.6135C80.3304 72.7693 81.2045 72.849 81.2045 72.849C81.2045 72.849 82.3993 75.4359 82.8011 75.6714C83.1994 75.9069 83.5201 75.9865 83.5201 75.9865L84.2391 76.5337L90.46 73.7113L89.4237 70.8127C89.4237 70.8127 89.103 69.4794 89.4237 67.7547C89.7445 66.0301 87.1892 63.9141 85.515 63.4432C83.8409 62.9722 81.0494 63.6786 81.0494 63.6786L79.6925 65.9504L79.6889 65.9539Z" stroke="white" stroke-linecap="round" stroke-linejoin="round"/>
<path d="M81.8427 62.1942C81.8427 62.1942 78.4943 64.0746 78.5719 65.0928C78.6494 66.1109 79.3684 66.8174 79.3684 66.8174L81.0426 66.0348C81.0426 66.0348 80.3236 67.2884 80.7219 67.4442C81.1201 67.6001 81.4409 67.2884 81.4409 67.2884L81.9202 68.7775L82.9564 67.9152C82.9564 67.9152 84.7116 71.832 85.9065 71.9913C87.1013 72.1471 88.9376 71.9117 89.5755 71.5203C90.2135 71.129 91.0911 67.4442 91.4083 66.0348C91.729 64.6253 90.0513 61.9587 87.7392 61.176C85.4271 60.3933 82.1564 62.0383 82.1564 62.0383L81.8356 62.1942H81.8427Z" fill="#171717" stroke="white" stroke-linecap="round" stroke-linejoin="round"/>
<path d="M82.3993 67.9899C82.3993 67.9899 82.639 68.305 83.0372 69.5587C83.4355 70.8123 83.8338 72.6166 84.0735 70.5769C84.3131 68.5405 82.8786 66.5804 82.3993 67.9899Z" fill="white" stroke="white" stroke-linecap="round" stroke-linejoin="round"/>
<path d="M77.3163 151.612C77.3163 151.612 76.0404 153.257 75.8008 153.337C75.5611 153.416 73.249 154.119 73.1679 154.59C73.0869 155.061 73.4076 155.532 73.4076 155.532C73.4076 155.532 75.4025 156.003 77.3163 156.003C79.2301 156.003 81.3026 155.688 81.3026 155.688C81.3026 155.688 83.1353 155.844 84.0129 155.688C84.8906 155.532 84.9716 154.982 84.9716 154.982L84.4923 150.594L79.2266 150.75L77.3128 151.612H77.3163Z" fill="#171717" stroke="white" stroke-linecap="round" stroke-linejoin="round"/>
<path d="M89.0385 151.69L87.1247 153.885C87.1247 153.885 86.2471 154.121 86.3282 154.904C86.4092 155.686 87.2868 155.766 88.0834 155.766C88.8799 155.766 93.987 155.922 94.7836 155.53C95.5801 155.139 94.0646 151.219 94.0646 151.219L89.0385 151.69Z" fill="#171717" stroke="white" stroke-linecap="round" stroke-linejoin="round"/>
<path d="M76.4985 108.277C76.4985 108.277 76.3399 121.052 76.4175 123.871C76.4985 126.693 77.4537 143.226 77.5347 144.639C77.6158 146.052 77.6934 148.089 77.6934 148.089C77.6934 148.089 77.1365 148.951 77.1365 149.342V150.675C77.1365 150.675 79.7693 153.262 81.1227 153.262C82.4762 153.262 84.7918 152.48 84.7918 152.48C84.7918 152.48 85.4297 148.483 85.5883 147.777C85.7469 147.07 84.9504 135.708 84.9504 135.472C84.9504 135.237 84.5521 130.534 84.5521 130.222C84.5521 129.911 86.547 140.646 86.6246 142.135C86.7021 143.625 87.6608 148.719 87.6608 148.719C87.6608 148.719 87.1039 149.11 87.1814 149.817C87.2625 150.523 87.34 152.012 87.34 152.012C87.34 152.012 88.2177 152.875 89.8107 153.11C91.4074 153.346 92.9229 153.346 93.2401 153.346C93.5573 153.346 94.2764 153.425 94.516 152.875C94.7557 152.327 94.5971 148.172 94.5971 147.389C94.5971 146.606 94.2763 144.49 94.2763 143.94C94.2763 143.389 92.8419 129.128 92.9194 125.838C92.9969 122.548 93.0005 114.711 93.3177 114.005C93.6384 113.298 94.7522 108.91 94.7522 108.128C94.7522 107.345 90.7659 109.928 85.821 109.381C80.876 108.834 76.488 107.812 76.488 107.812V108.283L76.4985 108.277Z" fill="#171717" stroke="white" stroke-linecap="round" stroke-linejoin="round"/>
<path d="M89.0211 112.586L86.4694 114.466C86.4694 114.466 85.5917 125.046 85.1935 126.927C84.7952 128.807 84.6366 129.358 84.6366 129.358" stroke="white" stroke-linecap="round" stroke-linejoin="round"/>
<path d="M70.5179 95.5786C70.5179 95.5786 67.6454 94.0894 67.0075 94.0098C66.3695 93.9301 64.2971 94.2453 64.2971 94.2453C64.2971 94.2453 62.8626 93.6184 62.3022 94.0894C61.7453 94.5604 62.0625 94.6366 62.4608 94.7959C62.8591 94.9517 64.854 95.3431 64.854 95.3431C64.854 95.3431 64.3746 96.8322 64.6143 97.0677C64.854 97.3032 66.2885 97.3829 66.2885 97.3829C66.2885 97.3829 66.6867 97.5387 67.1661 97.8538C67.6454 98.169 68.9213 98.0893 69.161 97.9335C69.4006 97.7776 69.88 97.5422 69.88 97.5422L70.5179 95.582V95.5786Z" fill="#171717" stroke="white" stroke-linecap="round" stroke-linejoin="round"/>
<path d="M82.96 77.3167L84.2358 75.5159C84.2358 75.5159 87.7463 73.3202 89.1808 73.0086C90.6153 72.6934 92.8498 74.8094 92.8498 74.8094C92.8498 74.8094 91.574 75.0449 88.6239 75.9072C85.6739 76.7695 82.96 77.3167 82.96 77.3167Z" stroke="white" stroke-linecap="round" stroke-linejoin="round"/>
<path d="M84.2359 76.5328C84.2359 76.5328 77.6168 78.9639 77.5357 80.2937C77.4547 81.627 76.4185 98.1599 76.4185 98.1599L75.1426 109.131C75.1426 109.131 79.4496 111.247 83.6755 111.403C87.9014 111.559 90.0549 111.483 91.5705 110.932C93.086 110.381 96.3568 107.798 96.3568 107.798C96.3568 107.798 94.6016 98.0803 94.6016 96.9063C94.6016 95.7323 97.312 87.1888 97.8724 84.6815C98.4293 82.1742 98.6689 79.0401 98.6689 77.8626C98.6689 76.6852 92.2084 74.8047 92.2084 74.8047C92.2084 74.8047 87.9825 75.0402 84.2324 76.5293L84.2359 76.5328Z" fill="#171717" stroke="white" stroke-linecap="round" stroke-linejoin="round"/>
<path d="M82.7208 90.9528L85.1915 85.5469" stroke="white" stroke-linecap="round" stroke-linejoin="round"/>
<path d="M82.0834 92.1302L84.9523 88.9961" stroke="white" stroke-linecap="round" stroke-linejoin="round"/>
<path d="M81.7625 77.6328C81.7625 77.6328 77.5366 79.0423 77.4555 79.5133C77.3745 79.9843 76.1797 95.8903 76.1797 95.8903L70.1174 95.1839C70.1174 95.1839 69.5605 95.9665 69.5605 96.9847V98.8652C69.5605 98.8652 70.3571 98.9448 73.071 99.963C75.7814 100.981 78.9746 101.608 79.6901 101.532C80.4091 101.452 81.9247 99.1803 81.9247 97.9266C81.9247 96.673 83.9971 85.1512 83.9971 85.1512" fill="#171717"/>
<path d="M81.7625 77.6328C81.7625 77.6328 77.5366 79.0423 77.4555 79.5133C77.3745 79.9843 76.1797 95.8903 76.1797 95.8903L70.1174 95.1839C70.1174 95.1839 69.5605 95.9665 69.5605 96.9847V98.8652C69.5605 98.8652 70.3571 98.9448 73.071 99.963C75.7814 100.981 78.9746 101.608 79.6901 101.532C80.4091 101.452 81.9247 99.1803 81.9247 97.9266C81.9247 96.673 83.9971 85.1512 83.9971 85.1512" stroke="white" stroke-linecap="round" stroke-linejoin="round"/>
<path d="M76.4715 98.4325L76.1825 95.8906C76.1825 95.8906 75.5728 97.7261 75.6644 98.6092" fill="#171717"/>
<path d="M76.4715 98.4325L76.1825 95.8906C76.1825 95.8906 75.5728 97.7261 75.6644 98.6092" stroke="white" stroke-linecap="round" stroke-linejoin="round"/>
<path d="M47.9577 63.6519C47.9577 63.6519 48.0211 66.2735 48.0211 66.8206C48.0211 67.3678 47.5876 68.3444 47.5876 68.3444C47.5876 68.3444 48.2079 69.6846 48.3313 70.0517C48.4547 70.4188 47.5876 71.0283 47.5876 71.0283C47.5876 71.0283 47.4643 72.1261 47.4008 72.3097C47.3374 72.4932 46.5937 73.2863 45.6632 72.9192C44.7327 72.5521 43.8022 69.2033 43.6789 68.1054C43.5555 67.0076 43.6154 64.6319 44.8561 63.78C46.0967 62.9281 47.9577 63.6588 47.9577 63.6588V63.6519Z" fill="#141414" stroke="white" stroke-linecap="round" stroke-linejoin="round"/>
<path d="M44.1725 68.2253C44.1725 68.2253 45.7867 67.311 45.97 66.9439C46.1568 66.5768 45.9066 65.6626 45.7832 64.873C45.6598 64.0799 47.4574 63.9587 47.9543 64.2011C48.4513 64.4435 49.195 64.873 49.195 63.2869C49.195 61.7008 47.5807 59.5086 43.9857 59.6298C40.3871 59.751 36.9154 60.7276 36.1083 64.5059C35.3012 68.2841 37.349 71.4529 37.5957 72.0001C37.8424 72.5472 39.2698 73.4615 41.1308 72.2425C42.9918 71.0235 42.5582 69.4408 42.5582 69.4408C42.5582 69.4408 42.5582 68.4053 42.8684 68.4053C43.1786 68.4053 43.242 68.7101 43.242 71.0269C43.242 73.3437 43.1786 75.2935 44.606 75.7818C46.0334 76.2701 47.5208 75.5394 47.6442 74.1368C47.7675 72.7342 47.5208 71.6399 46.9005 71.6399C46.2802 71.6399 45.9066 72.5542 45.2862 71.0927C44.6659 69.6313 44.169 68.2287 44.169 68.2287L44.1725 68.2253Z" fill="#141414" stroke="white" stroke-linecap="round" stroke-linejoin="round"/>
<path d="M37.2248 73.2812L35.5964 76.2353C35.5964 76.2353 38.8989 75.8405 41.3802 76.6335C43.8615 77.4266 46.0925 78.2785 46.0925 78.2785L45.2255 75.3522C45.2255 75.3522 42.4975 74.0708 40.2629 73.7072C38.0319 73.3401 37.2248 73.2812 37.2248 73.2812Z" stroke="white" stroke-linecap="round" stroke-linejoin="round"/>
<path d="M48.6656 151.534C48.6656 151.534 49.9415 153.179 50.1811 153.258C50.4208 153.338 52.7329 154.041 52.814 154.512C52.895 154.983 52.5743 155.454 52.5743 155.454C52.5743 155.454 50.5794 155.925 48.6656 155.925C46.7517 155.925 44.6793 155.61 44.6793 155.61C44.6793 155.61 42.8465 155.766 41.9689 155.61C41.0913 155.454 41.0103 154.903 41.0103 154.903L41.4896 150.516L46.7553 150.671L48.6691 151.534H48.6656Z" fill="#171717" stroke="white" stroke-linecap="round" stroke-linejoin="round"/>
<path d="M36.9433 151.616L38.8572 153.811C38.8572 153.811 39.7348 154.047 39.6537 154.829C39.5726 155.612 38.695 155.692 37.8985 155.692C37.1019 155.692 31.9949 155.847 31.1983 155.456C30.4018 155.065 31.9173 151.145 31.9173 151.145L36.9433 151.616Z" fill="#171717" stroke="white" stroke-linecap="round" stroke-linejoin="round"/>
<path d="M31.917 108.662C31.917 108.662 32.347 113.604 32.5549 114.147C32.7946 114.774 33.5912 130.684 32.7946 132.876C31.9981 135.068 31.3601 139.38 31.6773 141.104C31.9981 142.829 32.1567 145.416 32.1567 145.883C32.1567 146.351 31.198 149.184 31.198 150.358C31.198 151.532 31.5187 152.629 31.5187 152.629C31.5187 152.629 34.0705 152.785 35.3464 152.394C36.6223 152.003 37.4188 151.847 37.4188 151.847L37.9757 152.238V148.869C37.9757 147.615 38.6031 145.187 38.6031 144.405C38.6031 143.622 39.2551 137.163 39.7345 135.518C40.2138 133.873 40.7671 124.332 40.7671 124.332C40.7671 124.332 40.9257 136.872 40.7671 138.282C40.6085 139.691 40.2878 140.318 40.7671 142.043C41.2465 143.767 41.0879 149.731 41.0879 149.731C41.0879 149.731 40.9293 150.593 41.0879 150.984C41.2465 151.376 41.4862 152.394 41.4862 152.394C41.4862 152.394 41.7258 152.474 43.3189 152.55C44.9155 152.629 47.4673 152.706 47.707 152.629C47.9466 152.55 48.8243 152.314 48.8243 152.314C48.8243 152.314 48.9053 151.608 48.8243 150.59C48.7432 149.572 48.1052 147.369 48.0277 144.862C47.9466 142.354 49.8605 127.151 50.3398 122.996C50.8191 118.84 52.5744 115.079 52.2536 112.336C51.9329 109.593 50.5795 107.162 50.4984 106.615C50.4174 106.068 49.8605 105.753 49.8605 105.517C49.8605 105.282 31.7549 106.144 31.7549 106.144L31.9135 108.651L31.917 108.662Z" fill="#171717" stroke="white" stroke-linecap="round" stroke-linejoin="round"/>
<path d="M37.5006 113.676L40.5317 116.339L40.7714 124.332" stroke="white" stroke-linecap="round" stroke-linejoin="round"/>
<path d="M37.4747 75.0482C37.4747 75.0482 30.5912 79.1936 30.5912 80.0455C30.5912 80.8974 30.0943 89.4305 30.8379 92.4781C31.5816 95.5256 32.9456 99.2415 32.9456 99.2415L30.3198 109.994C30.3198 109.994 32.0398 111.207 36.9389 112.422C41.838 113.641 46.0922 113.44 46.6526 113.319L46.5292 110.698L48.5135 104.907C48.5135 104.907 51.0547 101.129 51.2415 99.9099C51.4283 98.6909 51.1781 96.8035 51.0547 95.7646C50.9314 94.7291 50.0608 90.6461 49.7507 89.6106C49.4405 88.5751 49.2537 81.1398 48.51 80.2879C47.7663 79.436 46.0287 78.1546 45.5318 77.8499C45.0348 77.5451 40.756 74.4976 37.2843 74.9236" fill="#141414"/>
<path d="M37.4747 75.0482C37.4747 75.0482 30.5912 79.1936 30.5912 80.0455C30.5912 80.8974 30.0943 89.4305 30.8379 92.4781C31.5816 95.5256 32.9456 99.2415 32.9456 99.2415L30.3198 109.994C30.3198 109.994 32.0398 111.207 36.9389 112.422C41.838 113.641 46.0922 113.44 46.6526 113.319L46.5292 110.698L48.5135 104.907C48.5135 104.907 51.0547 101.129 51.2415 99.9099C51.4283 98.6909 51.1781 96.8035 51.0547 95.7646C50.9314 94.7291 50.0608 90.6461 49.7507 89.6106C49.4405 88.5751 49.2537 81.1398 48.51 80.2879C47.7663 79.436 46.0287 78.1546 45.5318 77.8499C45.0348 77.5451 40.756 74.4976 37.2843 74.9236" stroke="white" stroke-linecap="round" stroke-linejoin="round"/>
<path d="M48.4508 104.668C48.4508 104.668 47.3335 106.864 45.039 108.813C42.7445 110.763 42.0009 111.494 42.0009 111.494C42.0009 111.494 45.9096 111.615 46.2797 112.47L46.6533 113.322L48.4508 104.668Z" fill="#141414" stroke="white" stroke-linecap="round" stroke-linejoin="round"/>
<path d="M48.8243 109.176L50.7487 112.712C50.7487 112.712 52.0528 110.946 51.4924 109.422C50.9355 107.898 50.7487 107.41 50.7487 107.41L48.8243 109.176Z" stroke="white" stroke-linecap="round" stroke-linejoin="round"/>
<path d="M42.561 86.3223C42.561 86.3223 43.7382 100.521 44.8555 103.143C45.9728 105.764 48.7008 109.785 48.7008 109.785C48.7008 109.785 50.2516 109.359 50.7486 108.749C51.2455 108.14 51.3689 106.8 51.3689 106.8C51.3689 106.8 51.0587 101.498 51.0587 100.341C51.0587 99.1843 49.9414 92.7222 49.9414 91.8703C49.9414 91.0183 50.1282 82.3017 49.6947 81.145C49.2612 79.9883 45.9129 79.0117 45.9129 79.0117" fill="#141414"/>
<path d="M42.561 86.3223C42.561 86.3223 43.7382 100.521 44.8555 103.143C45.9728 105.764 48.7008 109.785 48.7008 109.785C48.7008 109.785 50.2516 109.359 50.7486 108.749C51.2455 108.14 51.3689 106.8 51.3689 106.8C51.3689 106.8 51.0587 101.498 51.0587 100.341C51.0587 99.1843 49.9414 92.7222 49.9414 91.8703C49.9414 91.0183 50.1282 82.3017 49.6947 81.145C49.2612 79.9883 45.9129 79.0117 45.9129 79.0117" stroke="white" stroke-linecap="round" stroke-linejoin="round"/>
</svg>
