<svg width="173" height="166" viewBox="0 0 173 166" fill="none" xmlns="http://www.w3.org/2000/svg">
<g opacity="0.3">
<path d="M7.80371 12.4062V165.2" stroke="white" stroke-miterlimit="10"/>
<path d="M25.292 12.4062V165.2" stroke="white" stroke-miterlimit="10"/>
<path d="M42.7793 12.4062V165.2" stroke="white" stroke-miterlimit="10"/>
<path d="M60.2677 12.4062V165.2" stroke="white" stroke-miterlimit="10"/>
<path d="M77.7556 12.4062V165.2" stroke="white" stroke-miterlimit="10"/>
<path d="M95.2432 12.4062V165.2" stroke="white" stroke-miterlimit="10"/>
<path d="M112.732 12.4062V165.2" stroke="white" stroke-miterlimit="10"/>
<path d="M130.22 12.4062V165.2" stroke="white" stroke-miterlimit="10"/>
<path d="M147.708 12.4062V165.2" stroke="white" stroke-miterlimit="10"/>
<path d="M165.199 12.4062V165.2" stroke="white" stroke-miterlimit="10"/>
<path d="M173 27.4961H0" stroke="white" stroke-miterlimit="10"/>
<path d="M173 45.0117H0" stroke="white" stroke-miterlimit="10"/>
<path d="M173 62.5273H0" stroke="white" stroke-miterlimit="10"/>
<path d="M173 80.043H0" stroke="white" stroke-miterlimit="10"/>
<path d="M173 97.5586H0" stroke="white" stroke-miterlimit="10"/>
<path d="M173 115.078H0" stroke="white" stroke-miterlimit="10"/>
<path d="M173 132.594H0" stroke="white" stroke-miterlimit="10"/>
<path d="M173 150.109H0" stroke="white" stroke-miterlimit="10"/>
</g>
<path opacity="0.15" d="M77.3251 22.4371L76.1534 8.59198C76.0804 7.73649 75.6241 6.96142 74.916 6.47884C74.2042 5.99991 73.3172 5.86464 72.4959 6.1169L58.7895 10.3395C57.2929 10.8002 56.4534 12.3905 56.9133 13.8858C57.3732 15.3847 58.9574 16.2256 60.454 15.765L66.3417 13.9516L44.3019 43.1444L30.2999 42.7203C29.4494 42.6984 28.6354 43.053 28.0769 43.6928L10.6218 63.7567C9.59244 64.9376 9.71655 66.7326 10.8956 67.76C11.4321 68.2279 12.0965 68.4582 12.7571 68.4582C13.5492 68.4582 14.334 68.1292 14.8961 67.4858L31.4716 48.4346L45.5941 48.8623C46.5103 48.8879 47.3863 48.4711 47.9412 47.7363L71.1745 16.9641L71.6782 22.9124C71.8024 24.393 73.0434 25.5117 74.4998 25.5117C74.5801 25.5117 74.6604 25.5117 74.7407 25.5008C76.2994 25.3692 77.4565 23.9945 77.3251 22.4334V22.4371Z" fill="black"/>
<path opacity="0.15" d="M151.179 114.998L149.865 99.4748C149.81 98.8131 149.587 98.1697 149.171 97.6505C148.317 96.5866 146.941 96.1954 145.704 96.5757L130.252 101.339C128.614 101.844 127.566 103.522 127.964 105.193C128.398 107.021 130.274 108.074 132.041 107.533L138.724 105.474L120.35 129.779C119.309 131.157 119.539 133.113 120.868 134.21C122.28 135.373 124.372 135.128 125.478 133.669L144.203 108.896L144.776 115.649C144.919 117.331 146.324 118.599 147.978 118.599C148.303 118.599 148.638 118.552 148.974 118.442C150.42 117.978 151.307 116.519 151.179 115.005V114.998Z" fill="black"/>
<path opacity="0.15" d="M90.9293 143.873L89.6152 128.35C89.5605 127.688 89.3378 127.045 88.9217 126.526C88.0676 125.462 86.6915 125.07 85.4577 125.451L70.0065 130.214C68.3676 130.719 67.32 132.397 67.7179 134.068C68.1522 135.896 70.0284 136.949 71.7951 136.408L78.4786 134.349L59.7167 159.199C58.6764 160.577 58.9063 162.529 60.2386 163.63C61.6513 164.792 63.7465 164.547 64.8488 163.085L83.9611 137.768L84.5342 144.52C84.6766 146.202 86.0819 147.47 87.7354 147.47C88.0603 147.47 88.3961 147.423 88.7319 147.313C90.1774 146.849 91.0644 145.39 90.9366 143.877L90.9293 143.873Z" fill="black"/>
<path opacity="0.15" d="M114.064 10.2542L113.337 1.681C113.308 1.31541 113.184 0.960778 112.954 0.671958C112.483 0.083349 111.724 -0.132352 111.041 0.079693L102.507 2.71198C101.602 2.98983 101.022 3.91845 101.241 4.83975C101.482 5.84879 102.518 6.43374 103.493 6.1303L107.183 4.9933L96.8203 18.7214C96.2472 19.4818 96.3713 20.5604 97.1087 21.1672C97.8898 21.8107 99.0469 21.6754 99.6565 20.8675L110.213 6.88343L110.527 10.6125C110.607 11.5411 111.381 12.2431 112.293 12.2431C112.472 12.2431 112.658 12.2175 112.845 12.1553C113.644 11.8994 114.133 11.0914 114.06 10.2579L114.064 10.2542Z" fill="black"/>
<path d="M165.25 52.2822L162.535 20.1793C162.367 18.1941 161.312 16.3953 159.666 15.2803C158.019 14.1652 155.957 13.8581 154.055 14.4431L122.273 24.2374C118.806 25.3049 116.86 28.9901 117.926 32.4633C118.992 35.9364 122.667 37.885 126.139 36.8175L139.79 32.6095L88.688 100.296L56.2233 99.3088C54.2522 99.2539 52.3651 100.076 51.0693 101.564L10.5961 148.087C8.21258 150.828 8.49729 154.985 11.2349 157.373C12.4796 158.458 14.0164 158.992 15.5494 158.992C17.3818 158.992 19.2069 158.228 20.5064 156.736L58.9354 112.562L91.6811 113.556C93.8019 113.611 95.835 112.649 97.1199 110.946L150.985 39.596L152.154 53.3899C152.446 56.8229 155.315 59.415 158.691 59.415C158.877 59.415 159.063 59.4077 159.253 59.3894C162.87 59.0823 165.553 55.8979 165.247 52.2749L165.25 52.2822Z" fill="#171717" stroke="#FF7028" stroke-linecap="round" stroke-linejoin="round"/>
<path d="M161.698 103.958L160.348 87.9966C160.264 87.0096 159.74 86.1152 158.921 85.5608C158.103 85.0064 157.077 84.8537 156.132 85.1445L140.329 90.0143C138.605 90.5451 137.638 92.3774 138.168 94.1043C138.698 95.8312 140.525 96.8 142.251 96.2693L149.039 94.177L123.631 127.831L107.489 127.34C106.509 127.313 105.571 127.722 104.926 128.462L84.8028 151.593C83.6177 152.956 83.7593 155.023 85.1204 156.21C85.7393 156.75 86.5034 157.015 87.2656 157.015C88.1767 157.015 89.0842 156.635 89.7303 155.894L108.837 133.93L125.119 134.424C126.173 134.451 127.184 133.973 127.823 133.126L154.605 97.6508L155.186 104.509C155.331 106.216 156.758 107.505 158.437 107.505C158.529 107.505 158.622 107.501 158.716 107.492C160.515 107.339 161.849 105.756 161.696 103.955L161.698 103.958Z" fill="#171717" stroke="white" stroke-linecap="round" stroke-linejoin="round"/>
<path d="M70.2821 30.245L69.3388 19.0935C69.2804 18.404 68.914 17.7791 68.3422 17.3918C67.7703 17.0045 67.0539 16.8978 66.3933 17.101L55.3534 20.5032C54.1488 20.874 53.473 22.1541 53.8432 23.3606C54.2135 24.567 55.4903 25.2439 56.6961 24.8731L61.4382 23.4114L43.687 46.9233L32.4099 46.5804C31.7252 46.5613 31.0697 46.8471 30.6196 47.3639L16.5606 63.5241C15.7326 64.4766 15.8315 65.9205 16.7825 66.7498C17.2149 67.1269 17.7487 67.3124 18.2812 67.3124C18.9177 67.3124 19.5517 67.0469 20.0031 66.5288L33.352 51.184L44.7267 51.5294C45.4634 51.5484 46.1696 51.2144 46.6159 50.6227L65.327 25.8383L65.7327 30.6298C65.8342 31.8223 66.8308 32.7227 68.0036 32.7227C68.0683 32.7227 68.133 32.7201 68.1989 32.7138C69.4554 32.6071 70.3874 31.501 70.2809 30.2425L70.2821 30.245Z" fill="#171717" stroke="#FF7028" stroke-linecap="round" stroke-linejoin="round"/>
<path d="M78.6756 82.3233L72.598 81.9686L70.1159 81.1899C70.1159 81.1899 64.2793 74.3533 59.2348 70.6863C54.1902 67.0194 44.1997 60.2815 43.309 61.5721C42.4184 62.8589 44.3968 93.6713 44.3968 93.6713C44.3968 93.6713 42.517 94.6621 42.2213 95.258C41.9256 95.8539 32.3293 118.144 32.3293 118.144C32.3293 118.144 30.6466 117.651 30.3509 118.243C30.0553 118.835 28.9675 121.511 28.9675 121.511L23.923 121.018C23.923 121.018 20.3604 120.126 18.382 119.431C16.4036 118.737 16.9 120.323 17.3928 121.018C17.8892 121.713 24.0215 127.259 24.0215 127.259L27.8798 130.033C27.8798 130.033 29.4639 130.428 29.8582 129.737C30.2524 129.046 34.2092 124.487 34.2092 124.487C34.2092 124.487 35.2969 123.694 35.7933 123.201C36.2861 122.707 36.9796 120.824 36.9796 120.824L47.2658 108.142L52.8068 101.901H84.1654C84.1654 101.901 85.9467 101.108 86.7388 99.0273L87.5309 96.9471L78.6829 82.3269L78.6756 82.3233ZM50.332 92.2894L52.1133 79.0146L60.8189 89.913L50.332 92.2894Z" fill="#171717" stroke="white" stroke-linecap="round" stroke-linejoin="round"/>
<path d="M105.307 64.4885L109.045 64.3459C109.045 64.3459 114.053 57.5641 115.111 56.3613C116.17 55.1585 119.061 52.6176 122.236 52.1935C125.412 51.7694 125.835 53.3232 125.835 53.8898C125.835 54.4565 122.733 59.966 121.32 62.9347C119.911 65.9033 118.499 67.6691 118.145 68.3747C117.79 69.0803 114.053 75.6537 113.348 76.8529C112.644 78.0557 108.552 81.0938 107.986 81.7994C107.42 82.505 102.978 89.3599 100.226 91.5498C97.4736 93.7398 92.7503 95.8602 92.7503 95.8602C92.7503 95.8602 90.5638 97.414 89.2936 98.0501C88.0233 98.6863 86.6143 98.5437 86.1179 98.3316C85.6215 98.1196 81.745 94.8694 79.6279 91.4073C77.5108 87.9451 77.5108 82.7865 77.6532 82.293C77.7955 81.7994 78.9928 81.0207 79.3469 80.9512C79.7009 80.8818 83.2963 79.9605 83.2963 79.9605L86.1873 77.84C86.1873 77.84 86.399 76.7103 86.6801 76.3557C86.9611 76.0011 92.7466 69.6434 92.7466 69.6434L94.9331 67.0988L100.083 65.7571L105.303 64.4848L105.307 64.4885Z" fill="#171717" stroke="white" stroke-linecap="round" stroke-linejoin="round"/>
<path d="M89.6084 85.9295C91.2437 85.9441 93.2987 85.7978 95.8319 85.3555" stroke="white" stroke-linecap="round" stroke-linejoin="round"/>
<path d="M84.2168 84.9805C84.2168 84.9805 85.4798 85.7336 88.5897 85.8981" stroke="white" stroke-linecap="round" stroke-linejoin="round"/>
<path d="M88.5391 88.625C88.926 88.7166 89.3166 88.7826 89.6998 88.8229" stroke="white" stroke-linecap="round" stroke-linejoin="round"/>
<path d="M83.1729 86.2461C83.1729 86.2461 85.2608 87.6207 87.6297 88.3739" stroke="white" stroke-linecap="round" stroke-linejoin="round"/>
<path d="M97.0148 80.1719C94.7882 80.7532 90.4664 81.8792 88.3164 82.3801" stroke="white" stroke-linecap="round" stroke-linejoin="round"/>
<path d="M98.4047 79.8047C98.4047 79.8047 98.1711 79.867 97.7695 79.9733" stroke="white" stroke-linecap="round" stroke-linejoin="round"/>
<path d="M104.307 71.4062C104.062 71.7901 103.851 72.1265 103.687 72.4043" stroke="white" stroke-linecap="round" stroke-linejoin="round"/>
<path d="M109.045 64.3516C109.045 64.3516 106.476 68.0806 104.775 70.6837" stroke="white" stroke-linecap="round" stroke-linejoin="round"/>
<path d="M108.341 64.9141C108.341 64.9141 104.461 67.5281 102.84 69.2939" stroke="white" stroke-linecap="round" stroke-linejoin="round"/>
<path d="M100.018 49.1596C100.018 49.1596 96.1383 51.3495 96.1383 51.8431V52.9033C96.1383 52.9033 93.8095 54.5265 92.9627 55.0238C92.1158 55.5173 93.7402 56.7896 93.7402 56.7896L91.5537 62.0871C91.5537 62.0871 92.1888 63.2168 92.6816 63.2899C93.1744 63.3593 95.7843 63.4325 95.7843 63.4325L96.7005 65.9039L105.87 63.9955L105.446 62.5112C105.446 62.5112 109.115 60.9574 110.597 59.8971C112.079 58.8369 112.995 54.5997 111.798 51.9857C110.6 49.3717 109.469 47.9568 108.272 47.3243C107.071 46.6882 104.249 46.6882 104.249 46.6882C104.249 46.6882 106.293 44.5677 104.318 44.4983C102.344 44.4288 101.497 46.052 101.497 46.052C101.497 46.052 100.227 44.1436 99.168 45.5585C98.1094 46.9733 100.015 49.1633 100.015 49.1633L100.018 49.1596Z" fill="#171717" stroke="white" stroke-linecap="round" stroke-linejoin="round"/>
<path d="M95.7842 63.4272L97.9013 63.3906L96.5471 65.0651L95.7842 63.4272Z" fill="#263238" stroke="white" stroke-linecap="round" stroke-linejoin="round"/>
<path d="M108.271 47.3204C107.07 46.6843 104.249 46.6843 104.249 46.6843C104.249 46.6843 106.293 44.5638 104.318 44.4944C102.343 44.4249 101.497 46.0481 101.497 46.0481C101.497 46.0481 100.226 44.1397 99.1677 45.5546C98.1091 46.9658 100.015 49.1594 100.015 49.1594C100.015 49.1594 100.65 49.514 101.497 49.7955C102.343 50.077 103.964 50.289 104.176 50.7131C104.387 51.1372 101.354 52.2669 101.635 52.9031C101.916 53.5392 102.551 55.3745 102.551 55.3745C102.551 55.3745 101.281 56.9283 101.493 57.1403C101.705 57.3523 102.27 57.9885 102.482 57.9885C102.694 57.9885 104.314 56.9283 104.526 56.9283C104.738 56.9283 105.796 56.9977 105.654 58.5515C105.512 60.1053 103.679 60.8109 102.832 60.9535L101.986 61.0961C101.986 61.0961 102.902 61.8748 103.187 62.2989C103.471 62.7229 105.442 62.5109 105.442 62.5109C105.442 62.5109 109.111 60.9571 110.593 59.8969C112.075 58.8367 112.991 54.5994 111.794 51.9854C110.596 49.3714 109.465 47.9565 108.268 47.3241L108.271 47.3204Z" stroke="white" stroke-linecap="round" stroke-linejoin="round"/>
<path d="M97.6816 54.0706C97.6816 54.0706 99.1636 53.577 99.6564 55.2003" stroke="white" stroke-linecap="round" stroke-linejoin="round"/>
<path d="M95 59.4414C95 59.4414 95.5658 60.222 97.5405 59.4414" stroke="white" stroke-linecap="round" stroke-linejoin="round"/>
<path d="M93.4551 71.837C93.4551 71.837 91.8344 82.8597 91.692 84.2709C91.5497 85.6858 91.5497 92.8186 91.5497 92.8186L94.3713 95.5752L96.9118 92.325L94.937 82.5746L93.9478 71.625L93.4551 71.837Z" fill="#171717" stroke="white" stroke-linecap="round" stroke-linejoin="round"/>
<path d="M94.3019 68.2335L93.4551 71.8383L99.1713 68.1641L94.3019 68.2335Z" fill="#171717" stroke="white" stroke-linecap="round" stroke-linejoin="round"/>
<path d="M105.45 62.5117L94.7988 65.6924L95.1493 70.0028L106.72 64.4201L105.45 62.5117Z" stroke="white" stroke-linecap="round" stroke-linejoin="round"/>
<path d="M94.9371 66.6074L92.6083 66.4648L95.2912 69.2214L94.9371 66.6074Z" stroke="white" stroke-linecap="round" stroke-linejoin="round"/>
<path d="M92.6083 66.4648L92.7506 69.6455L94.302 68.2307L92.6083 66.4648Z" stroke="white" stroke-linecap="round" stroke-linejoin="round"/>
<path d="M51.5179 77.9219C51.5179 77.9219 47.8568 71.3814 46.1777 68.5078" stroke="white" stroke-linecap="round" stroke-linejoin="round"/>
<path d="M45.1855 70.0938L47.7589 72.2764" stroke="white" stroke-linecap="round" stroke-linejoin="round"/>
<path d="M36.2825 112.005C36.2825 112.005 44.8896 106.854 50.2298 103.582" stroke="white" stroke-linecap="round" stroke-linejoin="round"/>
<path d="M44.1965 105.366C44.1965 105.366 48.9454 103.187 50.1317 102.098" stroke="white" stroke-linecap="round" stroke-linejoin="round"/>
<path d="M64.3235 67.1719L55.293 71.0582L65.8055 86.5996L71.5873 79.7484L64.3235 67.1719Z" fill="white" stroke="white" stroke-linecap="round" stroke-linejoin="round"/>
<path d="M64.2543 67.9453L56.2275 71.3088L65.8969 85.6109L70.9377 79.5164L64.2543 67.9453Z" fill="#171717" stroke="white" stroke-linecap="round" stroke-linejoin="round"/>
<path d="M71.5873 79.7466L85.7682 77.4141L84.2169 84.9746L65.8054 86.5978L71.5873 79.7466Z" fill="#171717" stroke="white" stroke-linecap="round" stroke-linejoin="round"/>
</svg>
