<svg width="115" height="100" viewBox="0 0 115 100" fill="none" xmlns="http://www.w3.org/2000/svg">
<path d="M46.5345 2.08618L46.5345 2.07696L46.5341 2.06774C46.496 1.24892 47.2982 0.410288 48.3017 0.387812L48.3104 0.387617L48.319 0.387021C48.8316 0.351746 49.3337 0.541311 49.703 0.862087C50.0732 1.18358 50.2842 1.6123 50.268 2.0405L50.2677 2.04848L50.2677 2.05647C50.2769 3.98089 50.2754 5.90358 50.2738 7.82777C50.2727 9.20321 50.2716 10.5794 50.2744 11.9576L50.2752 12.311L50.6281 12.3312C50.9035 12.3469 51.1849 12.3408 51.4532 12.3335C51.477 12.3329 51.5007 12.3322 51.5243 12.3316C51.7717 12.3247 52.0078 12.3182 52.2399 12.325C52.7481 12.34 53.1815 12.419 53.5428 12.6606L53.5427 12.6608L53.5523 12.6667C54.088 13.0022 54.3445 13.6185 54.3047 14.226L54.304 14.2379L54.3039 14.2499C54.3002 16.5233 54.3015 18.7955 54.3029 21.0673C54.3048 24.2116 54.3067 27.3552 54.295 30.5H54.2949L54.295 30.5067C54.3053 31.2447 53.6287 31.9953 52.741 32.103C52.2992 32.1394 51.8722 32.135 51.4269 32.1303C51.1743 32.1277 50.9158 32.125 50.6452 32.1297L50.2782 32.136L50.2767 32.5031C50.2709 33.9317 50.2726 35.3563 50.2742 36.7796C50.2764 38.6747 50.2786 40.5676 50.2632 42.4646L50.263 42.4646L50.2633 42.4768C50.2751 42.9603 49.9895 43.428 49.5164 43.7419C49.0449 44.0548 48.4359 44.179 47.8841 44.0141L47.8769 44.0119L47.8696 44.01C47.0907 43.811 46.5412 43.1422 46.5413 42.4799L46.5412 42.4773C46.5275 40.4411 46.5297 38.4065 46.532 36.3703C46.5334 35.083 46.5349 33.7951 46.5323 32.5059L46.5315 32.1391L46.1648 32.1317C45.8838 32.1261 45.6166 32.1284 45.3557 32.1307C44.9234 32.1345 44.5086 32.1381 44.0774 32.1049C43.1828 32.0003 42.4974 31.2435 42.5095 30.5035H42.5095L42.5095 30.4963C42.4938 25.0085 42.5005 19.5227 42.5073 14.0339L42.5073 14.0315L42.5073 14.0231L42.5069 14.0147C42.474 13.2619 43.1409 12.4814 44.0406 12.364C44.4948 12.3207 44.9342 12.3256 45.3955 12.3307C45.6427 12.3334 45.8961 12.3362 46.1614 12.3317L46.5293 12.3255L46.53 11.9576C46.5332 10.4057 46.5324 8.85788 46.5316 7.31035C46.5307 5.57028 46.5297 3.83063 46.5345 2.08618ZM46.6216 15.6471L46.2476 15.6477L46.2472 16.0217C46.2427 20.1603 46.2427 24.301 46.245 28.4395L46.2452 28.8137L46.6193 28.8143C47.8079 28.8164 48.9965 28.8164 50.1851 28.8143L50.5593 28.8137L50.5595 28.4395C50.5618 24.301 50.5618 20.1624 50.5595 16.0219L50.5593 15.6477L50.1851 15.6471C48.9965 15.645 47.8079 15.645 46.6216 15.6471Z" fill="white" stroke="black" stroke-width="0.75"/>
<path d="M82.9282 2.05549L82.9282 2.04453L82.9276 2.03358C82.9007 1.53171 83.1934 1.04224 83.6855 0.717906C84.1757 0.394813 84.8105 0.274559 85.379 0.46844L85.388 0.471512L85.3972 0.474123C86.1687 0.694216 86.6821 1.39456 86.6594 2.07157L86.6591 2.07156L86.6591 2.08546C86.665 3.8129 86.6641 5.53307 86.6632 7.2538C86.6624 8.81905 86.6616 10.3848 86.6659 11.9569L86.6669 12.3158L87.0255 12.3305C87.3069 12.3421 87.6039 12.3357 87.8866 12.3296C88.0341 12.3264 88.1776 12.3234 88.313 12.323C88.7242 12.3217 89.1051 12.3429 89.4656 12.4366C90.2208 12.6686 90.7152 13.362 90.6889 14.0337L90.6886 14.0415L90.6886 14.0492C90.6959 17.5283 90.6947 21.0077 90.6936 24.4875C90.693 26.4207 90.6923 28.3539 90.6931 30.2873L90.6931 30.2983L90.6938 30.3094C90.7287 30.8979 90.4406 31.5049 89.8922 31.8267L89.8922 31.8266L89.8825 31.8327C89.5227 32.0589 89.0966 32.1282 88.598 32.1379C88.3862 32.142 88.1722 32.1354 87.9483 32.1286C87.9082 32.1274 87.8678 32.1262 87.827 32.125C87.5638 32.1174 87.288 32.1119 87.0168 32.1294L86.6673 32.1519L86.6659 32.5021C86.6602 33.9148 86.6621 35.3236 86.664 36.7311C86.6667 38.6542 86.6693 40.5749 86.6524 42.4997C86.6434 43.2845 85.8493 44.0556 84.8884 44.0746L84.8799 44.0748L84.8713 44.0754C84.3716 44.1081 83.8772 43.9268 83.5094 43.6179C83.1408 43.3084 82.9262 42.8954 82.9304 42.4807L82.9305 42.4807L82.9304 42.4741C82.9157 40.4985 82.9185 38.5262 82.9213 36.552C82.9232 35.2044 82.9251 33.8558 82.9214 32.5047L82.9205 32.1553L82.572 32.1315C82.2992 32.1129 82.0223 32.1178 81.7584 32.1253C81.7135 32.1265 81.6691 32.1279 81.6251 32.1292C81.4049 32.1358 81.1947 32.1421 80.9863 32.1381C80.4876 32.1287 80.0625 32.0598 79.7031 31.833L79.7032 31.8329L79.6933 31.827C79.1448 31.504 78.8565 30.9036 78.8913 30.3196L78.892 30.3085L78.892 30.2975C78.8928 28.3272 78.8924 26.3573 78.892 24.3875C78.8914 20.9414 78.8907 17.496 78.8964 14.0511L78.8965 14.0409L78.8959 14.0308C78.856 13.2688 79.5269 12.4769 80.4373 12.3632C80.8907 12.321 81.3298 12.3255 81.7901 12.3302C82.0365 12.3327 82.2889 12.3353 82.5528 12.3308L82.9209 12.3245L82.9214 11.9563C82.9232 10.6969 82.9223 9.4388 82.9214 8.18125C82.9199 6.13916 82.9185 4.09845 82.9282 2.05549ZM83.0107 15.6461L82.6366 15.6467L82.6364 16.0209C82.6341 20.1594 82.6341 24.3 82.6364 28.4386L82.6366 28.8127L83.0107 28.8134C84.1994 28.8154 85.3857 28.8154 86.5743 28.8134L86.9483 28.8127L86.9487 28.4388C86.9532 24.3001 86.9532 20.1594 86.9487 16.0207L86.9483 15.6467L86.5743 15.6461C85.3857 15.6441 84.1994 15.6441 83.0107 15.6461Z" fill="#FF7028" stroke="black" stroke-width="0.75"/>
<path d="M2.68198 13.2126L2.682 13.2126L2.68545 13.2089C4.48847 11.2581 7.27305 10.0624 10.1077 10.0605L10.1085 10.0605C12.6228 10.053 15.1369 10.0539 17.6516 10.0548C19.2523 10.0554 20.8532 10.056 22.4546 10.0544L22.4733 10.0544L22.4919 10.0525C23.078 9.9932 23.6513 10.2166 24.0487 10.5918C24.446 10.9668 24.6378 11.461 24.5376 11.9411L24.5353 11.9521L24.5337 11.9631C24.4237 12.7103 23.6172 13.3754 22.7025 13.3616L22.7025 13.3615L22.6943 13.3615C20.7067 13.3748 18.7059 13.3716 16.7033 13.3685C14.4269 13.3649 12.1482 13.3614 9.88391 13.3818L9.87955 13.3819C6.76325 13.4464 4.02806 16.0243 4.11943 18.9231C4.11494 34.9933 4.11494 51.0635 4.11943 67.1337L4.11954 67.5086L4.49441 67.5086C39.8322 67.5107 75.1678 67.5107 110.506 67.5086L110.88 67.5086L110.881 67.1338C110.884 58.9783 110.883 50.8233 110.883 42.6684V42.6211C110.882 34.4504 110.882 26.2798 110.885 18.1087L110.885 18.1036C110.883 17.9781 110.885 17.8421 110.886 17.7007C110.889 17.409 110.892 17.0938 110.869 16.7978C110.835 16.3419 110.741 15.8633 110.478 15.4108C109.829 14.1828 108.404 13.3425 106.909 13.3717C105.542 13.3628 104.181 13.3655 102.822 13.3682C101.057 13.3717 99.295 13.3753 97.5259 13.3534C96.931 13.345 96.4064 13.0343 96.0885 12.5949C95.7703 12.1551 95.6818 11.623 95.892 11.1643L95.8971 11.1531L95.9015 11.1417C96.1629 10.4561 97.0151 9.9855 97.8965 10.0533L97.9103 10.0543L97.9242 10.0544C99.2142 10.0578 100.502 10.0565 101.788 10.0553C103.567 10.0536 105.344 10.0519 107.123 10.0625C109.315 10.1 111.451 11.0395 112.834 12.555L112.834 12.5551L112.839 12.5605C113.855 13.6297 114.428 15.0015 114.625 16.4115V76.6432C114.474 79.9606 112.076 83.1099 108.638 84.3987L108.636 84.3992C107.387 84.873 106.027 85.098 104.666 85.096H104.666C99.3918 85.0991 94.1187 85.0986 88.8457 85.0981C83.5727 85.0975 78.2999 85.097 73.027 85.1001L72.693 85.1003L72.6547 85.4321C72.2462 88.9725 72.6627 92.5361 73.4271 95.9806L73.491 96.2688L73.7863 96.2743C75.9413 96.314 78.0973 96.3109 80.2494 96.3053L80.6586 96.3042C82.675 96.2989 84.6876 96.2935 86.6986 96.321L86.6994 96.321C87.7499 96.3331 88.5678 97.2547 88.4546 98.1006L88.4531 98.1118L88.4523 98.1231C88.3935 98.9303 87.5116 99.6688 86.5213 99.6165L86.5114 99.616H86.5014C77.0241 99.6191 67.5474 99.6186 58.0705 99.6181C48.5948 99.6175 39.1189 99.617 29.6425 99.6201C29.4652 99.6173 29.2971 99.6196 29.1336 99.6219C28.8457 99.6258 28.5724 99.6296 28.2895 99.605C27.8666 99.5682 27.512 99.47 27.2283 99.2458L27.2191 99.2385L27.2095 99.2318C26.4372 98.6964 26.32 97.5894 26.9406 96.9433L26.9462 96.9374L26.9516 96.9313C27.3052 96.5295 27.8907 96.2964 28.4953 96.3088L28.4953 96.3089L28.5042 96.3089C30.8295 96.301 33.152 96.3025 35.4757 96.304C37.3354 96.3052 39.1959 96.3064 41.0593 96.3028L41.3612 96.3022L41.4251 96.0071C42.1749 92.5424 42.4993 88.9712 42.096 85.4326L42.0582 85.1003L41.7237 85.1001C36.8958 85.0964 32.0691 85.0973 27.2428 85.0983C21.5385 85.0994 15.8348 85.1006 10.1303 85.094C7.33399 85.0901 4.58579 83.9374 2.77371 82.0349L2.77031 82.0314C1.32845 80.5565 0.508857 78.6311 0.375 76.6736V18.6363C0.456195 16.6646 1.25557 14.7146 2.68198 13.2126ZM4.49443 70.8219H4.11757L4.11944 71.1987C4.1226 71.8347 4.11985 72.4751 4.11709 73.1175C4.11207 74.2871 4.10702 75.4636 4.13743 76.6331L4.13786 76.6419C4.27745 79.4595 7.06822 81.7974 10.0905 81.7787C31.1128 81.7882 52.1352 81.7869 73.1575 81.7855C83.6632 81.7848 94.1689 81.7841 104.674 81.7848C107.688 81.8949 110.562 79.6775 110.838 76.8755L110.839 76.8665L110.84 76.8575C110.901 75.6329 110.892 74.3952 110.882 73.1708C110.877 72.5087 110.872 71.8505 110.878 71.2004L110.882 70.8218L110.503 70.8219C86.9464 70.8232 63.3896 70.8228 39.8321 70.8223C28.0531 70.8221 16.2739 70.8219 4.49443 70.8219ZM46.2424 85.1001L45.8296 85.1003L45.8693 85.5111C46.2021 88.9562 45.9298 92.44 45.2658 95.8562L45.179 96.3027L45.6338 96.3028C53.4997 96.3048 61.3656 96.3048 69.2315 96.3028L69.694 96.3027L69.5982 95.8501C68.8764 92.4404 68.5556 88.9566 68.8814 85.5104L68.9202 85.1002L68.5082 85.1001C61.0871 85.0981 53.6636 85.096 46.2424 85.1001Z" fill="white" stroke="black" stroke-width="0.75"/>
<mask id="path-4-inside-1_2145_63" fill="white">
<path d="M27.9751 18.1709C28.0065 16.7894 29.8348 15.8304 31.1802 16.4826C32.1124 16.8625 32.5526 17.8214 32.456 18.7072C32.4493 21.8786 32.456 25.0479 32.4538 28.2193C33.478 28.2782 34.637 28.0222 35.5332 28.6032C36.207 29.0177 36.5304 29.7714 36.4833 30.4926C36.4765 35.911 36.4945 41.3273 36.4743 46.7436C36.499 47.7086 35.6589 48.6086 34.6033 48.7447C33.8958 48.8158 33.1815 48.7752 32.4717 48.7732C32.4223 52.0888 32.4785 55.4064 32.4448 58.722C32.4628 59.7642 31.461 60.6947 30.3132 60.7211C29.1026 60.8004 27.9616 59.8475 27.9706 58.7484C27.9481 55.4267 27.9683 52.103 27.9616 48.7813C26.9868 48.7244 25.9087 48.9601 25.0237 48.4826C24.2757 48.0946 23.8759 47.3043 23.9321 46.5384C23.9366 41.1261 23.9254 35.7119 23.9366 30.2996C23.8939 29.3163 24.7519 28.3818 25.8345 28.2579C26.5398 28.1888 27.2518 28.2314 27.9593 28.2213C27.9751 24.8711 27.9414 21.521 27.9751 18.1709ZM28.4265 32.2866C28.422 36.429 28.4243 40.5735 28.4243 44.716C29.6125 44.718 30.8006 44.718 31.9888 44.716C31.9911 40.5735 31.9933 36.429 31.9888 32.2866C30.8006 32.2825 29.6125 32.2825 28.4265 32.2866Z"/>
</mask>
<path d="M27.9751 18.1709C28.0065 16.7894 29.8348 15.8304 31.1802 16.4826C32.1124 16.8625 32.5526 17.8214 32.456 18.7072C32.4493 21.8786 32.456 25.0479 32.4538 28.2193C33.478 28.2782 34.637 28.0222 35.5332 28.6032C36.207 29.0177 36.5304 29.7714 36.4833 30.4926C36.4765 35.911 36.4945 41.3273 36.4743 46.7436C36.499 47.7086 35.6589 48.6086 34.6033 48.7447C33.8958 48.8158 33.1815 48.7752 32.4717 48.7732C32.4223 52.0888 32.4785 55.4064 32.4448 58.722C32.4628 59.7642 31.461 60.6947 30.3132 60.7211C29.1026 60.8004 27.9616 59.8475 27.9706 58.7484C27.9481 55.4267 27.9683 52.103 27.9616 48.7813C26.9868 48.7244 25.9087 48.9601 25.0237 48.4826C24.2757 48.0946 23.8759 47.3043 23.9321 46.5384C23.9366 41.1261 23.9254 35.7119 23.9366 30.2996C23.8939 29.3163 24.7519 28.3818 25.8345 28.2579C26.5398 28.1888 27.2518 28.2314 27.9593 28.2213C27.9751 24.8711 27.9414 21.521 27.9751 18.1709ZM28.4265 32.2866C28.422 36.429 28.4243 40.5735 28.4243 44.716C29.6125 44.718 30.8006 44.718 31.9888 44.716C31.9911 40.5735 31.9933 36.429 31.9888 32.2866C30.8006 32.2825 29.6125 32.2825 28.4265 32.2866Z" fill="#FF7028"/>
<path d="M27.9751 18.1709L27.2252 18.1538L27.2251 18.1633L27.9751 18.1709ZM31.1802 16.4826L30.8531 17.1575L30.8748 17.168L30.8972 17.1771L31.1802 16.4826ZM32.456 18.7072L31.7104 18.6259L31.7061 18.6656L31.706 18.7056L32.456 18.7072ZM32.4538 28.2193L31.7038 28.2187L31.7033 28.9273L32.4107 28.968L32.4538 28.2193ZM35.5332 28.6032L35.1252 29.2325L35.1326 29.2374L35.1402 29.2421L35.5332 28.6032ZM36.4833 30.4926L35.7349 30.4437L35.7333 30.4677L35.7333 30.4917L36.4833 30.4926ZM36.4743 46.7436L35.7243 46.7408L35.7242 46.7518L35.7245 46.7628L36.4743 46.7436ZM34.6033 48.7447L34.6783 49.491L34.6888 49.4899L34.6992 49.4886L34.6033 48.7447ZM32.4717 48.7732L32.4739 48.0232L31.7329 48.021L31.7218 48.762L32.4717 48.7732ZM32.4448 58.722L31.6948 58.7144L31.6947 58.7247L31.6949 58.7349L32.4448 58.722ZM30.3132 60.7211L30.296 59.9713L30.2801 59.9717L30.2643 59.9727L30.3132 60.7211ZM27.9706 58.7484L28.7206 58.7546L28.7206 58.7433L27.9706 58.7484ZM27.9616 48.7813L28.7116 48.7798L28.7101 48.0737L28.0053 48.0326L27.9616 48.7813ZM25.0237 48.4826L25.3798 47.8225L25.3691 47.8169L25.0237 48.4826ZM23.9321 46.5384L24.6801 46.5932L24.6821 46.5661L24.6821 46.539L23.9321 46.5384ZM23.9366 30.2996L24.6866 30.3012L24.6866 30.2841L24.6859 30.2671L23.9366 30.2996ZM25.8345 28.2579L25.7614 27.5113L25.7492 27.5127L25.8345 28.2579ZM27.9593 28.2213L27.9701 28.9712L28.7059 28.9606L28.7093 28.2248L27.9593 28.2213ZM28.4265 32.2866L28.424 31.5366L27.6773 31.5391L27.6765 32.2857L28.4265 32.2866ZM28.4243 44.716H27.6743V45.4647L28.423 45.466L28.4243 44.716ZM31.9888 44.716L31.9901 45.466L32.7384 45.4647L32.7388 44.7164L31.9888 44.716ZM31.9888 32.2866L32.7388 32.2857L32.738 31.5391L31.9914 31.5366L31.9888 32.2866ZM28.7249 18.1879C28.7327 17.8441 28.9718 17.471 29.434 17.2279C29.8918 16.9872 30.4319 16.9533 30.8531 17.1575L31.5074 15.8077C30.5831 15.3597 29.5364 15.4792 28.7358 15.9003C27.9397 16.319 27.2489 17.1161 27.2253 18.1538L28.7249 18.1879ZM30.8972 17.1771C31.4706 17.4108 31.7768 18.0177 31.7104 18.6259L33.2016 18.7885C33.3284 17.6252 32.7542 16.3142 31.4633 15.7881L30.8972 17.1771ZM31.706 18.7056C31.6993 21.8769 31.706 25.051 31.7038 28.2187L33.2038 28.2198C33.206 25.0448 33.1993 21.8803 33.206 18.7088L31.706 18.7056ZM32.4107 28.968C32.7014 28.9847 32.9943 28.9788 33.2596 28.9722C33.5347 28.9653 33.7794 28.9579 34.0188 28.9651C34.4971 28.9795 34.8473 29.0524 35.1252 29.2325L35.9412 27.9739C35.3228 27.573 34.6454 27.4833 34.0641 27.4658C33.7737 27.457 33.4806 27.4662 33.2223 27.4726C32.9543 27.4793 32.7183 27.4832 32.4968 27.4705L32.4107 28.968ZM35.1402 29.2421C35.55 29.4941 35.7661 29.9665 35.7349 30.4437L37.2317 30.5416C37.2948 29.5763 36.864 28.5412 35.9261 27.9644L35.1402 29.2421ZM35.7333 30.4917C35.7265 35.9157 35.7445 41.3246 35.7243 46.7408L37.2243 46.7464C37.2445 41.3299 37.2265 35.9062 37.2333 30.4936L35.7333 30.4917ZM35.7245 46.7628C35.7379 47.2869 35.2406 47.9063 34.5074 48.0009L34.6992 49.4886C36.0773 49.3109 37.26 48.1303 37.224 46.7244L35.7245 46.7628ZM34.5283 47.9985C33.872 48.0644 33.2381 48.0254 32.4739 48.0232L32.4696 49.5232C33.1249 49.525 33.9195 49.5672 34.6783 49.491L34.5283 47.9985ZM31.7218 48.762C31.6729 52.0477 31.7279 55.4581 31.6948 58.7144L33.1947 58.7296C33.229 55.3547 33.1718 52.1298 33.2217 48.7843L31.7218 48.762ZM31.6949 58.7349C31.7045 59.291 31.1091 59.9526 30.296 59.9713L30.3305 61.4709C31.8129 61.4368 33.221 60.2374 33.1947 58.7091L31.6949 58.7349ZM30.2643 59.9727C29.8676 59.9987 29.4668 59.8542 29.1669 59.6023C28.8652 59.349 28.7182 59.0356 28.7205 58.7546L27.2206 58.7423C27.2139 59.5603 27.6329 60.2729 28.2022 60.751C28.7732 61.2305 29.5483 61.5228 30.3622 61.4695L30.2643 59.9727ZM28.7206 58.7433C28.6981 55.4223 28.7183 52.1113 28.7116 48.7798L27.2116 48.7828C27.2183 52.0947 27.1981 55.4312 27.2206 58.7535L28.7206 58.7433ZM28.0053 48.0326C27.7272 48.0163 27.4494 48.0214 27.196 48.028C26.9332 48.0349 26.7014 48.0434 26.4707 48.0398C26.0111 48.0326 25.6642 47.976 25.3798 47.8226L24.6676 49.1427C25.2681 49.4667 25.9028 49.531 26.4472 49.5396C26.7185 49.5438 26.9943 49.5339 27.2355 49.5275C27.4861 49.5209 27.7086 49.5178 27.9179 49.53L28.0053 48.0326ZM25.3691 47.8169C24.8981 47.5726 24.645 47.0724 24.6801 46.5932L23.1841 46.4835C23.1069 47.5362 23.6534 48.6166 24.6783 49.1484L25.3691 47.8169ZM24.6821 46.539C24.6866 41.1228 24.6754 35.7139 24.6866 30.3012L23.1866 30.2981C23.1754 35.7099 23.1866 41.1295 23.1821 46.5378L24.6821 46.539ZM24.6859 30.2671C24.6626 29.7309 25.1725 29.0885 25.9198 29.003L25.7492 27.5127C24.3313 27.675 23.1252 28.9018 23.1873 30.3322L24.6859 30.2671ZM25.9076 29.0043C26.5747 28.939 27.1847 28.9825 27.9701 28.9712L27.9486 27.4714C27.319 27.4804 26.5049 27.4386 25.7614 27.5114L25.9076 29.0043ZM28.7093 28.2248C28.7252 24.8531 28.6913 21.5327 28.725 18.1784L27.2251 18.1633C27.1914 21.5094 27.225 24.8892 27.2093 28.2178L28.7093 28.2248ZM27.6765 32.2857C27.672 36.4288 27.6743 40.5741 27.6743 44.716H29.1743C29.1743 40.573 29.172 36.4293 29.1765 32.2874L27.6765 32.2857ZM28.423 45.466C29.612 45.4681 30.8011 45.4681 31.9901 45.466L31.9875 43.966C30.8002 43.968 29.6129 43.968 28.4256 43.966L28.423 45.466ZM32.7388 44.7164C32.7411 40.5741 32.7433 36.4289 32.7388 32.2857L31.2388 32.2874C31.2433 36.4291 31.2411 40.573 31.2388 44.7156L32.7388 44.7164ZM31.9914 31.5366C30.8015 31.5325 29.6116 31.5325 28.424 31.5366L28.4291 33.0366C29.6133 33.0325 30.7998 33.0325 31.9863 33.0366L31.9914 31.5366Z" fill="black" mask="url(#path-4-inside-1_2145_63)"/>
<path d="M65.4131 17.0324L65.4132 17.0326L65.4241 17.0244C66.077 16.5368 67.1264 16.5391 67.7744 17.0292L67.7742 17.0294L67.7854 17.0372C68.2585 17.3688 68.4961 17.9227 68.4684 18.4705L68.4679 18.4801L68.4679 18.4897C68.4688 19.7865 68.4682 21.0839 68.4677 22.3816C68.4669 24.3289 68.4661 26.2768 68.4701 28.2237L68.4709 28.5785L68.8251 28.5974C69.0987 28.612 69.3782 28.6058 69.6449 28.5988C69.6637 28.5983 69.6825 28.5978 69.7012 28.5973C69.9523 28.5905 70.192 28.5841 70.4274 28.5914C70.9332 28.6071 71.3659 28.686 71.7271 28.9241L71.7271 28.9242L71.7344 28.9288C72.2702 29.2644 72.5376 29.8715 72.5003 30.4668L72.4996 30.4783L72.4996 30.4898C72.4969 32.6577 72.4978 34.8246 72.4987 36.9912C72.5001 40.2402 72.5014 43.4884 72.4906 46.7379L72.4905 46.7379L72.4908 46.7495C72.5115 47.4991 71.8318 48.2669 70.9302 48.3755C70.4904 48.4169 70.0677 48.4135 69.6248 48.41C69.3703 48.4079 69.1092 48.4058 68.8343 48.4121L68.4673 48.4206L68.4679 48.7876C68.4698 50.1215 68.4692 51.4564 68.4687 52.7917C68.468 54.573 68.4672 56.3548 68.4724 58.1356L68.4724 58.1575L68.475 58.1793C68.574 59.0024 68.2288 59.8635 67.4218 60.1784L67.4085 60.1836L67.3956 60.1898C66.8346 60.4596 66.1531 60.3905 65.6065 60.0843C65.0577 59.7768 64.7168 59.2752 64.7345 58.7443L64.7347 58.7369L64.7347 58.7295C64.7219 56.6443 64.7244 54.5591 64.7268 52.4723C64.7282 51.2437 64.7296 50.0146 64.7279 48.7845L64.7275 48.4319L64.3755 48.4107C64.1133 48.3949 63.8482 48.3992 63.5946 48.4056C63.5517 48.4067 63.5092 48.4079 63.467 48.409C63.2554 48.4148 63.0526 48.4203 62.8512 48.4169C62.3692 48.4089 61.9498 48.3495 61.5855 48.151L61.5855 48.151L61.5814 48.1488C60.9752 47.8281 60.6497 47.1868 60.6952 46.5675L60.6962 46.554L60.6962 46.5404C60.6979 44.4339 60.6973 42.328 60.6967 40.2223C60.6957 36.9141 60.6947 33.6066 60.7029 30.2982L60.7029 30.29L60.7026 30.2817C60.6714 29.5269 61.3428 28.7474 62.2456 28.6342C62.7043 28.5874 63.1516 28.5915 63.621 28.5958C63.8592 28.598 64.1031 28.6002 64.3571 28.5959L64.7257 28.5896V28.2209V28.202V28.183V28.164V28.145V28.1261V28.1071V28.0881V28.0691V28.0502V28.0312V28.0122V27.9932V27.9743V27.9553V27.9363V27.9173V27.8984V27.8794V27.8604V27.8414V27.8225V27.8035V27.7845V27.7655V27.7466V27.7276V27.7086V27.6896V27.6707V27.6517V27.6327V27.6138V27.5948V27.5758V27.5568V27.5379V27.5189V27.4999V27.4809V27.462V27.443V27.424V27.405V27.3861V27.3671V27.3481V27.3292V27.3102V27.2912V27.2722V27.2533V27.2343V27.2153V27.1963V27.1774V27.1584V27.1394V27.1205V27.1015V27.0825V27.0635V27.0446V27.0256V27.0066V26.9876V26.9687V26.9497V26.9307V26.9118V26.8928V26.8738V26.8548V26.8359V26.8169V26.7979V26.779V26.76V26.741V26.722V26.7031V26.6841V26.6651V26.6461V26.6272V26.6082V26.5892V26.5703V26.5513V26.5323V26.5133V26.4944V26.4754V26.4564V26.4375V26.4185V26.3995V26.3805V26.3616V26.3426V26.3236V26.3047V26.2857V26.2667V26.2477V26.2288V26.2098V26.1908V26.1719V26.1529V26.1339V26.1149V26.096V26.077V26.058V26.0391V26.0201V26.0011V25.9822V25.9632V25.9442V25.9252V25.9063V25.8873V25.8683V25.8494V25.8304V25.8114V25.7924V25.7735V25.7545V25.7355V25.7166V25.6976V25.6786V25.6597V25.6407V25.6217V25.6027V25.5838V25.5648V25.5458V25.5269V25.5079V25.4889V25.4699V25.451V25.432V25.413V25.3941V25.3751V25.3561V25.3372V25.3182V25.2992V25.2802V25.2613V25.2423V25.2233V25.2044V25.1854V25.1664V25.1475V25.1285V25.1095V25.0906V25.0716V25.0526V25.0336V25.0147V24.9957V24.9767V24.9578V24.9388V24.9198V24.9009V24.8819V24.8629V24.8439V24.825V24.806V24.787V24.7681V24.7491V24.7301V24.7112V24.6922V24.6732V24.6542V24.6353V24.6163V24.5973V24.5784V24.5594V24.5404V24.5215V24.5025V24.4835V24.4646V24.4456V24.4266V24.4076V24.3887V24.3697V24.3507V24.3318V24.3128V24.2938V24.2749V24.2559V24.2369V24.218V24.199V24.18V24.161V24.1421V24.1231V24.1041V24.0852V24.0662V24.0472V24.0283V24.0093V23.9903V23.9714V23.9524V23.9334V23.9144V23.8955V23.8765V23.8575V23.8386V23.8196V23.8006V23.7817V23.7627V23.7437V23.7248V23.7058V23.6868V23.6678V23.6489V23.6299V23.6109V23.592V23.573V23.554V23.5351V23.5161V23.4971V23.4782V23.4592V23.4402V23.4213V23.4023V23.3833V23.3643V23.3454V23.3264V23.3074V23.2885V23.2695V23.2505V23.2316V23.2126V23.1936V23.1747V23.1557V23.1367V23.1177V23.0988V23.0798V23.0608V23.0419V23.0229V23.0039V22.985V22.966V22.947V22.9281V22.9091V22.8901V22.8711V22.8522V22.8332V22.8142V22.7953V22.7763V22.7573V22.7384V22.7194V22.7004V22.6815V22.6625V22.6435V22.6245V22.6056V22.5866V22.5676V22.5487V22.5297V22.5107V22.4918V22.4728V22.4538V22.4349V22.4159V22.3969V22.3779V22.359V22.34V22.321V22.3021V22.2831V22.2641V22.2452V22.2262V22.2072V22.1883V22.1693V22.1503V22.1313V22.1124V22.0934V22.0744V22.0555V22.0365V22.0175V21.9986V21.9796V21.9606V21.9417V21.9227V21.9037V21.8847V21.8658V21.8468V21.8278V21.8089V21.7899V21.7709V21.752V21.733V21.714V21.695V21.6761V21.6571V21.6381V21.6192V21.6002V21.5812V21.5623V21.5433V21.5243V21.5053V21.4864V21.4674V21.4484V21.4295V21.4105V21.3915V21.3726V21.3536V21.3346V21.3156V21.2967V21.2777V21.2587V21.2398V21.2208V21.2018V21.1829V21.1639V21.1449V21.1259V21.107V21.088V21.069V21.0501V21.0311V21.0121V20.9932V20.9742V20.9552V20.9362V20.9173V20.8983V20.8793V20.8604V20.8414V20.8224V20.8034V20.7845V20.7655V20.7465V20.7276V20.7086V20.6896V20.6706V20.6517V20.6327V20.6137V20.5948V20.5758V20.5568V20.5379V20.5189V20.4999V20.4809V20.462V20.443V20.424V20.4051V20.3861V20.3671V20.3481V20.3292V20.3102V20.2912V20.2723V20.2533V20.2343V20.2153V20.1964V20.1774V20.1584V20.1395V20.1205V20.1015V20.0825V20.0636V20.0446V20.0256V20.0067V19.9877V19.9687V19.9497V19.9308V19.9118V19.8928V19.8738V19.8549V19.8359V19.8169V19.798V19.779V19.76V19.741V19.7221V19.7031V19.6841V19.6652V19.6462V19.6272V19.6082V19.5893V19.5703V19.5513V19.5323V19.5134V19.4944V19.4754V19.4565V19.4375V19.4185V19.3995V19.3806V19.3616V19.3426V19.3236V19.3047V19.2857V19.2667V19.2477V19.2288V19.2098V19.1908V19.1719V19.1529V19.1339V19.1149V19.096V19.077V19.058V19.039V19.0201V19.0011V18.9821V18.9631V18.9442V18.9252V18.9062V18.8872V18.8683V18.8493V18.8303V18.8113V18.7924V18.7734V18.7544V18.7355V18.7165V18.6975V18.6785V18.6596V18.6406V18.6216V18.6026V18.5837V18.5647V18.5457V18.5267V18.5078V18.4977L64.7252 18.4877C64.6953 17.9291 64.9309 17.366 65.4131 17.0324ZM64.8143 31.9132L64.441 31.9145L64.4406 32.2878C64.4376 35.0498 64.4386 37.8129 64.4396 40.5754C64.4401 41.9564 64.4406 43.3372 64.4406 44.7177V45.0921L64.815 45.0927C66.0036 45.0947 67.1922 45.0947 68.3808 45.0927L68.7552 45.0921V44.7177C68.7552 43.6828 68.7553 42.6477 68.7555 41.6125C68.7559 38.5045 68.7563 35.3955 68.7529 32.2878L68.7525 31.9145L68.3792 31.9132C67.1924 31.9092 66.0034 31.9092 64.8143 31.9132Z" fill="white" stroke="black" stroke-width="0.75"/>
</svg>
