<svg width="54" height="70" viewBox="0 0 54 70" fill="none" xmlns="http://www.w3.org/2000/svg">
<path d="M13.5462 1.40099L13.5461 1.40098C11.8867 2.37653 10.5904 3.85133 9.38642 5.40765C10.4543 7.66597 11.5234 9.92318 12.5926 12.1806C13.4155 13.9181 14.2385 15.6558 15.0611 17.3941L15.2095 17.7077L14.9084 17.88C13.5685 18.647 12.6219 20.0706 12.5558 21.5982L12.5554 21.6073L12.5553 21.6073C12.4565 23.0722 13.1439 24.5455 14.3023 25.4622L14.7093 25.7844L14.2756 26.0696C9.99531 28.8846 6.88871 33.1678 4.56319 37.7169C2.0144 42.8341 0.392016 48.4774 0.375002 54.1926C0.389165 57.9451 1.23734 61.8168 3.55535 64.7768L3.55691 64.7788C5.35098 67.1021 8.06035 68.644 10.9461 69.2282L10.9538 69.2297L10.9538 69.2298C12.7763 69.6384 14.6387 69.6305 16.543 69.6225L13.5462 1.40099ZM13.5462 1.40099L13.5491 1.39921C14.8551 0.615133 16.4068 0.237617 17.9125 0.422574L17.9124 0.422701L17.9222 0.423641C19.0397 0.53141 20.0986 0.885037 21.1756 1.30263C21.4348 1.40311 21.6962 1.50787 21.96 1.61355C22.7772 1.94097 23.6161 2.27712 24.4751 2.52143C25.624 2.86613 26.8309 2.81965 27.9431 2.77683C28.0644 2.77216 28.1846 2.76753 28.3034 2.76346L28.3228 2.7628L28.3419 2.76015C29.7224 2.56926 31.019 2.07269 32.2683 1.59423C32.3679 1.55609 32.4672 1.51806 32.5662 1.48032C33.9233 0.962921 35.2355 0.494032 36.6363 0.406293L36.6363 0.406514L36.6491 0.405268C38.6791 0.207965 40.7198 0.991851 42.2891 2.30772L42.289 2.30779L42.2958 2.31325C43.3986 3.19504 44.3098 4.29215 45.1997 5.43393C43.8968 7.95717 42.5922 10.4798 41.2878 13.0023C40.5257 14.4759 39.7636 15.9496 39.0019 17.4233L38.8382 17.7399L39.1461 17.9194C40.4604 18.6859 41.3759 20.1046 41.4433 21.6115L41.4433 21.6115L41.4437 21.6184C41.5361 23.0791 40.852 24.5483 39.6959 25.4604L39.2866 25.7834L39.7229 26.0687C43.2876 28.3999 46.0389 31.7953 48.2072 35.4628C51.1604 40.5466 53.1102 46.2547 53.5543 52.1143C53.7936 55.5246 53.4578 59.0268 52.0482 62.1279L52.0474 62.1295C51.0099 64.4422 49.2723 66.4497 47.0739 67.7141L47.0714 67.7156C44.7174 69.0941 41.9307 69.609 39.1834 69.6201C34.9056 69.6226 30.6281 69.6221 26.3507 69.6216C23.4992 69.6213 20.6478 69.6209 17.7964 69.6215L13.5462 1.40099ZM16.9596 19.9737L16.9721 19.9737C20.7861 19.9512 24.6036 19.9543 28.4195 19.9574C31.058 19.9595 33.6958 19.9617 36.331 19.9553C36.8642 19.9363 37.625 19.943 38.1668 20.4626C38.8957 21.0963 39.0157 22.2693 38.4085 23.0309C38.0225 23.5451 37.3894 23.8075 36.7766 23.7845C34.226 23.7834 31.6753 23.7838 29.1245 23.7842C25.113 23.7848 21.1013 23.7854 17.0895 23.7803C17.0892 23.7803 17.0888 23.7803 17.0885 23.7803L17.089 23.4053L16.9596 19.9737ZM16.9596 19.9737L16.9472 19.9746C15.928 20.0487 15.0868 21.0253 15.2067 22.0572L16.9596 19.9737ZM20.4812 26.4753L20.4812 26.4753C21.0076 26.424 21.5328 26.4185 22.044 26.4199C22.0442 26.4199 22.0444 26.4199 22.0446 26.4199L22.0436 26.7949L20.4812 26.4753ZM20.4812 26.4753L20.4775 26.4757M20.4812 26.4753L20.4775 26.4757M20.4775 26.4757C18.1741 26.7231 16.094 27.8625 14.3479 29.2441L14.3466 29.2452M20.4775 26.4757L14.3466 29.2452M14.3466 29.2452C12.0974 31.0415 10.2809 33.3039 8.75242 35.692L8.75089 35.6944M14.3466 29.2452L8.75089 35.6944M8.75089 35.6944C5.89543 40.232 3.96907 45.3742 3.24806 50.6921L3.24803 50.6921M8.75089 35.6944L3.24803 50.6921M3.24803 50.6921L3.24745 50.6969M3.24803 50.6921L3.24745 50.6969M3.24745 50.6969C2.84468 53.9858 2.89126 57.4856 4.16605 60.6553C5.10942 63.035 7.00373 65.0475 9.41464 66.0065C11.7837 67.0253 14.3824 67.0066 16.8266 66.9891C17.1057 66.9871 17.3828 66.9851 17.6572 66.9847H17.694H17.7313H17.7686H17.8059H17.8432H17.8806H17.9179H17.9552H17.9925H18.0298H18.0671H18.1045H18.1418H18.1791H18.2164H18.2537H18.291H18.3284H18.3657H18.403H18.4403H18.4776H18.5149H18.5523H18.5896H18.6269H18.6642H18.7015H18.7388H18.7762H18.8135H18.8508H18.8881H18.9254H18.9628H19.0001H19.0374H19.0747H19.112H19.1493H19.1867H19.224H19.2613H19.2986H19.3359H19.3732H19.4106H19.4479H19.4852H19.5225H19.5598H19.5971H19.6345H19.6718H19.7091H19.7464H19.7837H19.821H19.8584H19.8957H19.933H19.9703H20.0076H20.0449H20.0823H20.1196H20.1569H20.1942H20.2315H20.2688H20.3062H20.3435H20.3808H20.4181H20.4554H20.4927H20.5301H20.5674H20.6047H20.642H20.6793H20.7166H20.754H20.7913H20.8286H20.8659H20.9032H20.9405H20.9779H21.0152H21.0525H21.0898H21.1271H21.1644H21.2018H21.2391H21.2764H21.3137H21.351H21.3883H21.4257H21.463H21.5003H21.5376H21.5749H21.6122H21.6496H21.6869H21.7242H21.7615H21.7988H21.8361H21.8735H21.9108H21.9481H21.9854H22.0227H22.06H22.0974H22.1347H22.172H22.2093H22.2466H22.284H22.3213H22.3586H22.3959H22.4332H22.4705H22.5079H22.5452H22.5825H22.6198H22.6571H22.6944H22.7318H22.7691H22.8064H22.8437H22.881H22.9183H22.9557H22.993H23.0303H23.0676H23.1049H23.1422H23.1796H23.2169H23.2542H23.2915H23.3288H23.3661H23.4035H23.4408H23.4781H23.5154H23.5527H23.59H23.6274H23.6647H23.702H23.7393H23.7766H23.8139H23.8513H23.8886H23.9259H23.9632H24.0005H24.0378H24.0752H24.1125H24.1498H24.1871H24.2244H24.2617H24.2991H24.3364H24.3737H24.411H24.4483H24.4856H24.523H24.5603H24.5976H24.6349H24.6722H24.7095H24.7469H24.7842H24.8215H24.8588H24.8961H24.9334H24.9708H25.0081H25.0454H25.0827H25.12H25.1573H25.1947H25.232H25.2693H25.3066H25.3439H25.3812H25.4186H25.4559H25.4932H25.5305H25.5678H25.6051H25.6425H25.6798H25.7171H25.7544H25.7917H25.8291H25.8664H25.9037H25.941H25.9783H26.0156H26.0529H26.0903H26.1276H26.1649H26.2022H26.2395H26.2769H26.3142H26.3515H26.3888H26.4261H26.4634H26.5008H26.5381H26.5754H26.6127H26.65H26.6873H26.7247H26.762H26.7993H26.8366H26.8739H26.9112H26.9486H26.9859H27.0232H27.0605H27.0978H27.1351H27.1725H27.2098H27.2471H27.2844H27.3217H27.359H27.3964H27.4337H27.471H27.5083H27.5456H27.5829H27.6203H27.6576H27.6949H27.7322H27.7695H27.8068H27.8442H27.8815H27.9188H27.9561H27.9934H28.0307H28.0681H28.1054H28.1427H28.18H28.2173H28.2546H28.292H28.3293H28.3666H28.4039H28.4412H28.4785H28.5159H28.5532H28.5905H28.6278H28.6651H28.7024H28.7398H28.7771H28.8144H28.8517H28.889H28.9263H28.9637H29.001H29.0383H29.0756H29.1129H29.1502H29.1876H29.2249H29.2622H29.2995H29.3368H29.3741H29.4115H29.4488H29.4861H29.5234H29.5607H29.598H29.6354H29.6727H29.71H29.7473H29.7846H29.822H29.8593H29.8966H29.9339H29.9712H30.0085H30.0459H30.0832H30.1205H30.1578H30.1951H30.2324H30.2698H30.3071H30.3444H30.3817H30.419H30.4563H30.4937H30.531H30.5683H30.6056H30.6429H30.6802H30.7176H30.7549H30.7922H30.8295H30.8668H30.9041H30.9415H30.9788H31.0161H31.0534H31.0907H31.128H31.1654H31.2027H31.24H31.2773H31.3146H31.3519H31.3893H31.4266H31.4639H31.5012H31.5385H31.5758H31.6132H31.6505H31.6878H31.7251H31.7624H31.7997H31.8371H31.8744H31.9117H31.949H31.9863H32.0236H32.061H32.0983H32.1356H32.1729H32.2102H32.2475H32.2849H32.3222H32.3595H32.3968H32.4341H32.4714H32.5088H32.5461H32.5834H32.6207H32.658H32.6953H32.7327H32.77H32.8073H32.8446H32.8819H32.9192H32.9566H32.9939H33.0312H33.0685H33.1058H33.1432H33.1805H33.2178H33.2551H33.2924H33.3297H33.3671H33.4044H33.4417H33.479H33.5163H33.5536H33.591H33.6283H33.6656H33.7029H33.7402H33.7775H33.8148H33.8522H33.8895H33.9268H33.9641H34.0014H34.0388H34.0761H34.1134H34.1507H34.188H34.2253H34.2627H34.3H34.3373H34.3746H34.4119H34.4492H34.4866H34.5239H34.5612H34.5985H34.6358H34.6731H34.7105H34.7478H34.7851H34.8224H34.8597H34.897H34.9344H34.9717H35.009H35.0463H35.0836H35.1209H35.1583H35.1956H35.2329H35.2702H35.3075H35.3448H35.3822H35.4195H35.4568H35.4941H35.5314H35.5687H35.6061H35.6434H35.6807H35.718H35.7553H35.7926H35.83H35.8673H35.9046H35.9419H35.9792H36.0165H36.0539H36.0912H36.1285H36.1658H36.2031H36.2404H36.2778H36.3151H36.3524H36.3897H36.427H36.4643H36.5017H36.539H36.5763H36.6136H36.6509H36.6882H36.7256L36.7629 66.9847L36.7655 66.9847M3.24745 50.6969L36.7655 66.9847M36.7655 66.9847C37.1003 66.9824 37.4389 66.984 37.7802 66.9856M36.7655 66.9847L37.7802 66.9856M37.7802 66.9856C39.2889 66.9927 40.8509 67.0001 42.3727 66.6721M37.7802 66.9856L42.3727 66.6721M42.3727 66.6721C44.3696 66.2748 46.3177 65.3574 47.7526 63.8519L42.3727 66.6721ZM12.6513 5.5953L12.4859 5.78113L12.5928 6.00579C13.5704 8.06002 14.5431 10.115 15.5159 12.1705C16.2944 13.8154 17.073 15.4605 17.8544 17.1058L17.9562 17.3201L18.1934 17.3199C20.3468 17.3184 22.5009 17.3197 24.6551 17.3209C28.39 17.3232 32.1255 17.3254 35.8596 17.3129L36.0877 17.3121L36.1919 17.1092C37.2034 15.1403 38.2186 13.1783 39.2339 11.216C40.1359 9.47295 41.0379 7.72961 41.9377 5.98093L42.0565 5.75001L41.8821 5.55756C40.8263 4.39235 39.4341 3.1906 37.6651 3.04094L37.6649 3.04092C36.7419 2.96336 35.8659 3.13717 35.036 3.39298C34.5115 3.55464 33.9804 3.75821 33.4674 3.95482C33.1848 4.06317 32.9076 4.1694 32.6401 4.26535L32.64 4.26523L32.631 4.26875C31.0654 4.87646 29.4784 5.3951 27.8443 5.4329C27.5728 5.42934 27.3089 5.43205 27.0503 5.43471C26.3727 5.44168 25.7312 5.44828 25.0834 5.34065L25.0835 5.34054L25.0743 5.33925C24.1316 5.20645 23.2233 4.92205 22.3114 4.58201C21.89 4.42489 21.4715 4.2573 21.0484 4.08789C21.0136 4.07392 20.9786 4.05993 20.9437 4.04594C20.4866 3.86298 20.0241 3.679 19.5569 3.50944L19.556 3.50911C18.4864 3.12412 17.2226 2.81189 15.9978 3.17484C14.6005 3.58477 13.5288 4.60958 12.6513 5.5953ZM28.3273 37.4788L28.3297 37.7711L28.6138 37.8401C30.2916 38.2475 31.8177 39.3136 32.6384 40.8164L32.6383 40.8164L32.6407 40.8207C33.0108 41.4778 33.2224 42.2185 33.2863 42.9776C32.3997 42.9791 31.5143 42.9783 30.6279 42.9772C30.5151 42.3449 30.209 41.7403 29.7105 41.2978C28.3438 40.0488 26.1234 39.9612 24.6329 41.0179C23.8095 41.5853 23.2493 42.5801 23.3502 43.6295C23.3561 44.3766 23.702 45.2066 24.471 45.5869C25.1186 45.9118 25.8011 46.1073 26.4718 46.263C26.7611 46.3301 27.0382 46.388 27.3105 46.4449C27.6924 46.5247 28.0648 46.6025 28.4475 46.701L28.4475 46.7011L28.4535 46.7025C29.8898 47.0469 31.2889 47.6058 32.2025 48.688L32.2026 48.6881C33.2408 49.9169 33.494 51.6947 33.1603 53.2938C32.6695 55.4446 30.7703 57.112 28.6132 57.6221L28.3261 57.69L28.3245 57.985C28.3215 58.5263 28.3221 59.0773 28.3226 59.6269C28.323 59.9871 28.3234 60.3467 28.3227 60.7025H28.3188H28.3122H28.3056H28.299H28.2923H28.2857H28.2791H28.2724H28.2658H28.2592H28.2526H28.2459H28.2393H28.2327H28.226H28.2194H28.2128H28.2062H28.1995H28.1929H28.1863H28.1796H28.173H28.1664H28.1597H28.1531H28.1465H28.1399H28.1332H28.1266H28.12H28.1133H28.1067H28.1001H28.0935H28.0868H28.0802H28.0736H28.0669H28.0603H28.0537H28.047H28.0404H28.0338H28.0272H28.0205H28.0139H28.0073H28.0006H27.994H27.9874H27.9807H27.9741H27.9675H27.9609H27.9542H27.9476H27.941H27.9343H27.9277H27.9211H27.9144H27.9078H27.9012H27.8946H27.8879H27.8813H27.8747H27.868H27.8614H27.8548H27.8481H27.8415H27.8349H27.8282H27.8216H27.815H27.8084H27.8017H27.7951H27.7885H27.7818H27.7752H27.7686H27.7619H27.7553H27.7487H27.742H27.7354H27.7288H27.7222H27.7155H27.7089H27.7023H27.6956H27.689H27.6824H27.6757H27.6691H27.6625H27.6558H27.6492H27.6426H27.636H27.6293H27.6227H27.6161H27.6094H27.6028H27.5962H27.5895H27.5829H27.5763H27.5696H27.563H27.5564H27.5498H27.5431H27.5365H27.5299H27.5232H27.5166H27.51H27.5033H27.4967H27.4901H27.4834H27.4768H27.4702H27.4636H27.4569H27.4503H27.4437H27.437H27.4304H27.4238H27.4171H27.4105H27.4039H27.3972H27.3906H27.384H27.3773H27.3707H27.3641H27.3575H27.3508H27.3442H27.3376H27.3309H27.3243H27.3177H27.311H27.3044H27.2978H27.2911H27.2845H27.2779H27.2712H27.2646H27.258H27.2514H27.2447H27.2381H27.2315H27.2248H27.2182H27.2116H27.2049H27.1983H27.1917H27.185H27.1784H27.1718H27.1651H27.1585H27.1519H27.1452H27.1386H27.132H27.1254H27.1187H27.1121H27.1055H27.0988H27.0922H27.0856H27.0789H27.0723H27.0657H27.059H27.0524H27.0458H27.0391H27.0325H27.0259H27.0193H27.0126H27.006H26.9994H26.9927H26.9861H26.9795H26.9728H26.9662H26.9596H26.9529H26.9463H26.9397H26.933H26.9264H26.9198H26.9131H26.9065H26.8999H26.8933H26.8866H26.88H26.8734H26.8667H26.8601H26.8535H26.8468H26.8402H26.8336H26.8269H26.8203H26.8137H26.807H26.8004H26.7938H26.7872H26.7805H26.7739H26.7673H26.7606H26.754H26.7474H26.7407H26.7341H26.7275H26.7208H26.7142H26.7076H26.7009H26.6943H26.6877H26.6811H26.6744H26.6678H26.6612H26.6545H26.6479H26.6413H26.6346H26.628H26.6214H26.6147H26.6081H26.6015H26.5948H26.5882H26.5816H26.575H26.5683H26.5617H26.5551H26.5484H26.5418H26.5352H26.5285H26.5219H26.5153H26.5086H26.502H26.4954H26.4887H26.4821H26.4755H26.4689H26.4622H26.4556H26.449H26.4423H26.4357H26.4291H26.4224H26.4158H26.4092H26.4025H26.3959H26.3893H26.3827H26.376H26.3694H26.3628H26.3561H26.3495H26.3429H26.3362H26.3296H26.323H26.3163H26.3097H26.3031H26.2964H26.2898H26.2832H26.2766H26.2699H26.2633H26.2567H26.25H26.2434H26.2368H26.2301H26.2235H26.2169H26.2103H26.2036H26.197H26.1904H26.1837H26.1771H26.1705H26.1638H26.1572H26.1506H26.1439H26.1373H26.1307H26.1241H26.1174H26.1108H26.1042H26.0975H26.0909H26.0843H26.0776H26.071H26.0644H26.0578H26.0511H26.0445H26.0379H26.0312H26.0246H26.018H26.0113H26.0047H25.9981H25.9915H25.9848H25.9782H25.9716H25.9649H25.9583H25.9517H25.945H25.9384H25.9318H25.9252H25.9185H25.9119H25.9053H25.8986H25.892H25.8854H25.8787H25.8721H25.8655H25.8589H25.8522H25.8456H25.839H25.8323H25.8257H25.8191H25.8125H25.8058H25.7992H25.7926H25.7859H25.7793H25.7727H25.766H25.7594H25.7528H25.7462H25.7395H25.7329H25.7263H25.7196H25.713H25.7064H25.6998H25.6931H25.6865H25.6799H25.6759C25.6751 60.3129 25.6754 59.923 25.6756 59.5325V59.5306C25.676 59.0163 25.6764 58.501 25.6742 57.9855L25.673 57.693L25.3891 57.623C23.7636 57.2219 22.2806 56.2155 21.441 54.7857L21.4388 54.7821C21.0213 54.0892 20.7797 53.2981 20.7118 52.4867C21.0624 52.4863 21.4141 52.4866 21.7662 52.4868C22.3003 52.4872 22.8353 52.4876 23.3687 52.4859C23.5054 53.2583 23.9492 53.9627 24.5976 54.4146C26.1847 55.5704 28.6637 55.4103 29.9839 53.8733C30.7796 52.9596 30.8809 51.526 30.2533 50.5061L30.2407 50.4857L30.2258 50.4671C29.8647 50.0195 29.3874 49.761 28.912 49.5851C28.5735 49.4599 28.2063 49.3675 27.8729 49.2836C27.7502 49.2528 27.6321 49.223 27.5217 49.1932L27.5137 49.1911L27.5056 49.1893C27.2917 49.1416 27.0778 49.0955 26.8648 49.0496C25.1457 48.6793 23.4769 48.3197 22.2213 47.2073L22.2191 47.2053C20.8893 46.0454 20.4828 44.0875 20.7996 42.3329C21.2308 40.1099 23.1693 38.3534 25.3824 37.841L25.6704 37.7743L25.6728 37.4788C25.6777 36.8886 25.677 36.2939 25.6763 35.7012C25.6759 35.3843 25.6756 35.0679 25.676 34.7532H25.6799H25.6865H25.6931H25.6998H25.7064H25.713H25.7196H25.7263H25.7329H25.7395H25.7462H25.7528H25.7594H25.766H25.7727H25.7793H25.7859H25.7926H25.7992H25.8058H25.8125H25.8191H25.8257H25.8323H25.839H25.8456H25.8522H25.8589H25.8655H25.8721H25.8788H25.8854H25.892H25.8986H25.9053H25.9119H25.9185H25.9252H25.9318H25.9384H25.9451H25.9517H25.9583H25.9649H25.9716H25.9782H25.9848H25.9915H25.9981H26.0047H26.0114H26.018H26.0246H26.0312H26.0379H26.0445H26.0511H26.0578H26.0644H26.071H26.0777H26.0843H26.0909H26.0976H26.1042H26.1108H26.1174H26.1241H26.1307H26.1373H26.144H26.1506H26.1572H26.1639H26.1705H26.1771H26.1838H26.1904H26.197H26.2036H26.2103H26.2169H26.2235H26.2302H26.2368H26.2434H26.2501H26.2567H26.2633H26.27H26.2766H26.2832H26.2899H26.2965H26.3031H26.3097H26.3164H26.323H26.3296H26.3363H26.3429H26.3495H26.3562H26.3628H26.3694H26.3761H26.3827H26.3893H26.396H26.4026H26.4092H26.4159H26.4225H26.4291H26.4358H26.4424H26.449H26.4556H26.4623H26.4689H26.4755H26.4822H26.4888H26.4954H26.5021H26.5087H26.5153H26.522H26.5286H26.5352H26.5419H26.5485H26.5551H26.5618H26.5684H26.575H26.5817H26.5883H26.5949H26.6016H26.6082H26.6148H26.6215H26.6281H26.6347H26.6413H26.648H26.6546H26.6612H26.6679H26.6745H26.6811H26.6878H26.6944H26.701H26.7077H26.7143H26.7209H26.7276H26.7342H26.7408H26.7475H26.7541H26.7607H26.7674H26.774H26.7806H26.7873H26.7939H26.8005H26.8072H26.8138H26.8204H26.8271H26.8337H26.8403H26.847H26.8536H26.8602H26.8669H26.8735H26.8801H26.8868H26.8934H26.9H26.9067H26.9133H26.9199H26.9266H26.9332H26.9398H26.9465H26.9531H26.9597H26.9664H26.973H26.9796H26.9863H26.9929H26.9995H27.0062H27.0128H27.0194H27.0261H27.0327H27.0393H27.046H27.0526H27.0592H27.0659H27.0725H27.0791H27.0858H27.0924H27.099H27.1057H27.1123H27.1189H27.1256H27.1322H27.1388H27.1455H27.1521H27.1587H27.1654H27.172H27.1786H27.1853H27.1919H27.1985H27.2052H27.2118H27.2184H27.2251H27.2317H27.2383H27.245H27.2516H27.2583H27.2649H27.2715H27.2782H27.2848H27.2914H27.2981H27.3047H27.3113H27.318H27.3246H27.3312H27.3379H27.3445H27.3511H27.3578H27.3644H27.371H27.3777H27.3843H27.3909H27.3976H27.4042H27.4108H27.4175H27.4241H27.4307H27.4374H27.444H27.4506H27.4573H27.4639H27.4705H27.4772H27.4838H27.4905H27.4971H27.5037H27.5104H27.517H27.5236H27.5303H27.5369H27.5435H27.5502H27.5568H27.5634H27.5701H27.5767H27.5833H27.59H27.5966H27.6032H27.6099H27.6165H27.6231H27.6298H27.6364H27.643H27.6497H27.6563H27.663H27.6696H27.6762H27.6829H27.6895H27.6961H27.7028H27.7094H27.716H27.7227H27.7293H27.7359H27.7426H27.7492H27.7558H27.7625H27.7691H27.7757H27.7824H27.789H27.7957H27.8023H27.8089H27.8156H27.8222H27.8288H27.8355H27.8421H27.8487H27.8554H27.862H27.8686H27.8753H27.8819H27.8885H27.8952H27.9018H27.9084H27.9151H27.9217H27.9284H27.935H27.9416H27.9483H27.9549H27.9615H27.9682H27.9748H27.9814H27.9881H27.9947H28.0013H28.008H28.0146H28.0212H28.0279H28.0345H28.0412H28.0478H28.0544H28.0611H28.0677H28.0743H28.081H28.0876H28.0942H28.1009H28.1075H28.1141H28.1208H28.1274H28.134H28.1407H28.1473H28.154H28.1606H28.1672H28.1739H28.1805H28.1871H28.1938H28.2004H28.207H28.2137H28.2203H28.2269H28.2336H28.2402H28.2468H28.2535H28.2601H28.2668H28.2734H28.28H28.2867H28.2933H28.2999H28.3066H28.3132H28.3198H28.3237C28.3239 35.0279 28.3236 35.3033 28.3234 35.5791C28.3227 36.2118 28.3221 36.8464 28.3273 37.4788Z" fill="white" stroke="#404040" stroke-width="0.75"/>
</svg>
