<svg width="171" height="172" viewBox="0 0 171 172" fill="none" xmlns="http://www.w3.org/2000/svg">
<path d="M170.499 152.275C170.499 154.733 168.657 157.197 165.015 159.533C161.397 161.854 156.128 163.963 149.573 165.742C136.47 169.297 118.339 171.503 98.2934 171.503C78.2475 171.503 60.1172 169.297 47.0138 165.742C40.4585 163.963 35.1897 161.854 31.5714 159.533C27.9302 157.197 26.0879 154.733 26.0879 152.275C26.0879 149.817 27.9302 147.353 31.5714 145.017C35.1897 142.695 40.4585 140.586 47.0138 138.808C60.1172 135.252 78.2475 133.047 98.2934 133.047C118.339 133.047 136.47 135.252 149.573 138.808C156.128 140.586 161.397 142.695 165.015 145.017C168.657 147.353 170.499 149.817 170.499 152.275Z" stroke="white"/>
<path d="M21.6814 10.1562H107.158C109.161 10.1562 110.787 11.7941 110.787 13.8118V62.0818C110.787 64.0995 109.161 65.7374 107.158 65.7374H21.6814C19.6786 65.7374 18.0529 64.0995 18.0529 62.0818V13.8118C18.0529 11.7941 19.6786 10.1562 21.6814 10.1562Z" stroke="white" stroke-linecap="round" stroke-linejoin="round"/>
<path d="M110.787 13.8118V15.2577H18.0529V13.8118C18.0529 11.7941 19.6786 10.1562 21.6814 10.1562H107.158C109.161 10.1562 110.787 11.7941 110.787 13.8118Z" stroke="white" stroke-linecap="round" stroke-linejoin="round"/>
<path d="M28.4685 12.7088C28.4685 13.2234 28.055 13.6441 27.5401 13.6441C27.0252 13.6441 26.6116 13.2275 26.6116 12.7088C26.6116 12.1901 27.0252 11.7734 27.5401 11.7734C28.055 11.7734 28.4685 12.1901 28.4685 12.7088Z" fill="white"/>
<path d="M33.3121 12.7088C33.3121 13.2234 32.8985 13.6441 32.3836 13.6441C31.8687 13.6441 31.4552 13.2275 31.4552 12.7088C31.4552 12.1901 31.8687 11.7734 32.3836 11.7734C32.8985 11.7734 33.3121 12.1901 33.3121 12.7088Z" fill="white"/>
<path d="M37.2295 13.6441C37.7422 13.6441 38.1579 13.2253 38.1579 12.7088C38.1579 12.1922 37.7422 11.7734 37.2295 11.7734C36.7167 11.7734 36.301 12.1922 36.301 12.7088C36.301 13.2253 36.7167 13.6441 37.2295 13.6441Z" fill="white"/>
<path d="M51.264 19.3086H25.045C24.2187 19.3086 23.549 19.9834 23.549 20.8158V33.5225C23.549 34.3548 24.2187 35.0296 25.045 35.0296H51.264C52.0903 35.0296 52.7601 34.3548 52.7601 33.5225V20.8158C52.7601 19.9834 52.0903 19.3086 51.264 19.3086Z" stroke="white" stroke-linecap="round" stroke-linejoin="round"/>
<path d="M25.2678 33.0508H50.5949" stroke="#FF7028" stroke-linecap="round" stroke-linejoin="round"/>
<path d="M30.0882 30.0469H27.1489V33.0081H30.0882V30.0469Z" stroke="#FF7028" stroke-miterlimit="10"/>
<path d="M34.391 26.1562H31.4516V33.0508H34.391V26.1562Z" stroke="#FF7028" stroke-miterlimit="10"/>
<path d="M39.2357 27.3398H36.2964V33.1193H39.2357V27.3398Z" stroke="#FF7028" stroke-miterlimit="10"/>
<path d="M44.3273 21.5859H41.3879V32.9203H44.3273V21.5859Z" stroke="#FF7028" stroke-miterlimit="10"/>
<path d="M49.4152 21.6758H46.4758V33.0101H49.4152V21.6758Z" stroke="#FF7028" stroke-miterlimit="10"/>
<path d="M88.9789 35.8396C93.5176 35.8396 97.1969 32.1329 97.1969 27.5604C97.1969 22.988 93.5176 19.2812 88.9789 19.2812C84.4402 19.2812 80.7609 22.988 80.7609 27.5604C80.7609 32.1329 84.4402 35.8396 88.9789 35.8396Z" stroke="white" stroke-miterlimit="10"/>
<path d="M89.6526 32.7258V33.5754H88.2741V32.7258C87.1105 32.4317 86.3605 31.4474 86.3605 30.1526V29.7687L87.9214 29.5971V29.9974C87.9214 30.7857 88.3187 31.2636 88.9633 31.2636C89.608 31.2636 90.0053 30.8633 90.0053 30.2302C90.0053 29.4746 89.2998 28.8293 88.4768 28.1349C87.4957 27.318 86.5186 26.3459 86.5186 24.9735C86.5186 23.6012 87.1632 22.6781 88.2782 22.4003V21.5508H89.6566V22.4003C90.7878 22.6617 91.4486 23.6175 91.4486 24.9899V25.2676L89.8877 25.4392V25.1288C89.8877 24.2955 89.5674 23.8626 88.9998 23.8626C88.4322 23.8626 88.1119 24.2179 88.1119 24.8959C88.1119 25.6516 88.8295 26.2846 89.6404 26.9913C90.6053 27.8245 91.5986 28.7802 91.5986 30.1526C91.5986 31.525 90.8324 32.4481 89.6566 32.7258H89.6526Z" fill="#FF7028"/>
<path d="M22.8684 43.0625H25.2685" stroke="white" stroke-linecap="round" stroke-linejoin="round"/>
<path d="M22.8684 47.7344H25.2685" stroke="white" stroke-linecap="round" stroke-linejoin="round"/>
<path d="M22.8684 52.4062H25.2685" stroke="white" stroke-linecap="round" stroke-linejoin="round"/>
<path d="M22.8684 57.0781H25.2685" stroke="white" stroke-linecap="round" stroke-linejoin="round"/>
<path d="M30.5597 60.6091V58.7344" stroke="white" stroke-linecap="round" stroke-linejoin="round"/>
<path d="M34.3626 60.6091V58.7344" stroke="white" stroke-linecap="round" stroke-linejoin="round"/>
<path d="M38.1664 60.6091V58.7344" stroke="white" stroke-linecap="round" stroke-linejoin="round"/>
<path d="M41.9718 60.6091V58.7344" stroke="white" stroke-linecap="round" stroke-linejoin="round"/>
<path d="M45.7755 60.6091V58.7344" stroke="white" stroke-linecap="round" stroke-linejoin="round"/>
<path d="M49.5783 60.6091V58.7344" stroke="white" stroke-linecap="round" stroke-linejoin="round"/>
<path d="M53.382 60.6091V58.7344" stroke="white" stroke-linecap="round" stroke-linejoin="round"/>
<path d="M57.1886 60.6091V58.7344" stroke="white" stroke-linecap="round" stroke-linejoin="round"/>
<path d="M60.9913 60.6091V58.7344" stroke="white" stroke-linecap="round" stroke-linejoin="round"/>
<path d="M64.7941 60.6091V58.7344" stroke="white" stroke-linecap="round" stroke-linejoin="round"/>
<path d="M68.5968 60.6091V58.7344" stroke="white" stroke-linecap="round" stroke-linejoin="round"/>
<path d="M72.4044 60.6091V58.7344" stroke="white" stroke-linecap="round" stroke-linejoin="round"/>
<path d="M76.2072 60.6091V58.7344" stroke="white" stroke-linecap="round" stroke-linejoin="round"/>
<path d="M80.0118 60.6091V58.7344" stroke="white" stroke-linecap="round" stroke-linejoin="round"/>
<path d="M83.8126 60.6091V58.7344" stroke="white" stroke-linecap="round" stroke-linejoin="round"/>
<path d="M87.4747 60.6091V58.7344" stroke="white" stroke-linecap="round" stroke-linejoin="round"/>
<path d="M91.1359 60.6091V58.7344" stroke="white" stroke-linecap="round" stroke-linejoin="round"/>
<path d="M94.7931 60.6091V58.7344" stroke="white" stroke-linecap="round" stroke-linejoin="round"/>
<path d="M104.473 40.1997V58.3592C104.473 59.6009 103.216 60.6097 101.663 60.6097H25.674C24.6442 60.6097 23.7401 60.1645 23.2536 59.4987C23.0063 59.1638 22.8644 58.7758 22.8644 58.3592V40.1997C22.8644 38.9581 24.1212 37.9492 25.674 37.9492H101.663C103.216 37.9492 104.473 38.9581 104.473 40.1997Z" stroke="white" stroke-linecap="round" stroke-linejoin="round"/>
<path d="M81.3477 5.03005L57.091 37.9466L47.8148 50.5348L37.6831 44.0324L25.2851 60.6071H25.1067C24.2877 60.6071 23.5661 60.1619 23.1809 59.4961L37.1155 40.867L47.239 47.3612L54.1759 37.9425L79.4666 3.625L81.3477 5.03005Z" fill="#FF7028"/>
<path d="M75.1926 5.44865L84.108 0L81.643 9.41873L80.0699 5.06063L75.1926 5.44865Z" fill="#FF7028"/>
<path d="M124.5 109.094L16.982 109.094L1 123.41" stroke="white" stroke-linecap="round" stroke-linejoin="round"/>
<path d="M17.0704 99.0699V71.2344" stroke="white" stroke-linecap="round" stroke-linejoin="round"/>
<path d="M17.0705 107.481V102.094" stroke="white" stroke-linecap="round" stroke-linejoin="round"/>
<path d="M150.984 41.3728C150.984 41.3728 150.984 39.69 148.644 37.3333C146.305 34.9766 144.805 33.6328 144.805 33.6328C144.805 33.6328 143.637 37.5008 145.806 39.8575C147.404 41.5199 149.135 43.0434 150.984 44.4117V41.3728Z" fill="#FF7028"/>
<path d="M147.591 51.8806C147.591 51.8806 147.591 50.1979 145.252 47.8411C142.912 45.4844 141.412 44.1406 141.412 44.1406C141.412 44.1406 140.245 48.0086 142.414 50.3653C144.011 52.0236 145.742 53.5471 147.591 54.9195V51.8806Z" fill="#FF7028"/>
<path d="M150.834 44.2406C150.834 44.2406 151.008 42.566 153.583 40.4748C156.157 38.3794 157.787 37.2031 157.787 37.2031C157.787 37.2031 158.545 41.1855 156.137 43.2849C154.377 44.7634 152.496 46.0909 150.513 47.2509L150.834 44.2406Z" fill="#FF7028"/>
<path d="M146.735 56.6484C146.735 56.6484 147.084 55.0023 149.861 53.1929C152.634 51.3835 154.382 50.3828 154.382 50.3828C154.382 50.3828 154.722 54.4142 152.123 56.2603C150.218 57.5428 148.207 58.662 146.119 59.6055L146.739 56.6443L146.735 56.6484Z" fill="#FF7028"/>
<path d="M147.51 70.1734C147.51 70.1734 147.51 68.4906 149.845 66.138C152.18 63.7854 153.688 62.4375 153.688 62.4375C153.688 62.4375 154.856 66.3096 152.687 68.6622C151.094 70.3246 149.362 71.8481 147.514 73.2163V70.1734H147.51Z" fill="#FF7028"/>
<path d="M147.469 73.4743C147.469 73.4743 147.708 71.8079 145.722 69.1448C143.739 66.4777 142.442 64.9297 142.442 64.9297C142.442 64.9297 140.747 68.5934 142.559 71.2361C143.905 73.1027 145.406 74.8549 147.043 76.4723L147.469 73.4743Z" fill="#FF7028"/>
<path d="M145.162 83.2633C145.162 83.2633 145.162 81.5805 147.497 79.2278C149.832 76.8752 151.341 75.5273 151.341 75.5273C151.341 75.5273 152.508 79.3994 150.339 81.752C148.746 83.4144 147.015 84.9379 145.166 86.3062V83.2633H145.162Z" fill="#FF7028"/>
<path d="M146.724 92.1337C146.724 92.1337 146.302 90.504 147.976 87.6245C149.647 84.7449 150.762 83.0703 150.762 83.0703C150.762 83.0703 152.862 86.5176 151.358 89.3481C150.231 91.3576 148.937 93.2692 147.49 95.0622L146.724 92.1296V92.1337Z" fill="#FF7028"/>
<path d="M151.195 40.957C151.078 42.7093 150.863 44.4533 150.555 46.177C149.63 50.9843 147.319 54.0926 146.395 58.4344C145.47 62.7761 148.122 68.3759 147.417 73.9593C146.707 79.5387 144.55 82.6429 145.158 86.3679C145.766 90.0929 149.01 100.177 149.01 100.177" stroke="#FF7028" stroke-width="1.18" stroke-linecap="round" stroke-linejoin="round"/>
<path d="M150.814 45.3584L153.332 43.4102" stroke="#FF7028" stroke-width="1.18" stroke-linecap="round" stroke-linejoin="round"/>
<path d="M150.928 43.1177L149.878 41.2266" stroke="#FF7028" stroke-width="1.18" stroke-linecap="round" stroke-linejoin="round"/>
<path d="M146.537 58.2249C146.537 58.2249 148.645 56.632 150.814 55.0391" stroke="#FF7028" stroke-width="1.18" stroke-linecap="round" stroke-linejoin="round"/>
<path d="M147.591 54.9004C147.591 54.9004 145.835 51.4286 143.841 49.125" stroke="#FF7028" stroke-width="1.18" stroke-linecap="round" stroke-linejoin="round"/>
<path d="M147.591 72.5659C148.799 70.3317 150.319 68.2814 152.111 66.4883" stroke="#FF7028" stroke-width="1.18" stroke-linecap="round" stroke-linejoin="round"/>
<path d="M147.181 74.9296C146.54 73.4102 145.774 71.9439 144.894 70.5511C143.662 68.7213 143.483 68.4844 143.483 68.4844" stroke="#FF7028" stroke-width="1.18" stroke-linecap="round" stroke-linejoin="round"/>
<path d="M145.162 86.3536C145.697 85.0179 146.33 83.7232 147.059 82.4815C147.789 81.3338 148.612 80.2473 149.52 79.2344" stroke="#FF7028" stroke-width="1.18" stroke-linecap="round" stroke-linejoin="round"/>
<path d="M147.485 95.061C147.485 95.061 147.238 93.0474 148.117 91.336C148.997 89.6246 149.99 87.3822 150.404 86.5" stroke="#FF7028" stroke-width="1.18" stroke-linecap="round" stroke-linejoin="round"/>
<path d="M135.675 63.8467C135.675 63.8467 135.493 62.793 136.705 61.0612C137.922 59.3293 138.712 58.3164 138.712 58.3164C138.712 58.3164 139.864 60.6119 138.753 62.3273C137.93 63.5404 137.009 64.6841 135.996 65.7419L135.671 63.8467H135.675Z" fill="#FF7028"/>
<path d="M138.935 70.0655C138.935 70.0655 138.753 69.0117 139.965 67.2758C141.177 65.544 141.976 64.5352 141.976 64.5352C141.976 64.5352 143.127 66.8347 142.017 68.5461C141.193 69.7592 140.273 70.9028 139.26 71.9607L138.935 70.0614V70.0655Z" fill="#FF7028"/>
<path d="M136.077 65.628C136.077 65.628 135.793 64.5988 133.948 63.5695C132.099 62.5402 130.956 61.9766 130.956 61.9766C130.956 61.9766 130.911 64.5375 132.651 65.6117C133.916 66.3428 135.237 66.9678 136.604 67.4824L136.077 65.628Z" fill="#FF7028"/>
<path d="M139.986 72.9589C139.986 72.9589 139.588 71.9664 137.654 71.1332C135.721 70.304 134.512 69.8711 134.512 69.8711C134.512 69.8711 134.735 72.432 136.572 73.3061C137.906 73.9024 139.284 74.3844 140.699 74.7479L139.986 72.9589Z" fill="#FF7028"/>
<path d="M140.959 81.5259C140.959 81.5259 140.776 80.4721 139.057 79.2508C137.338 78.0296 136.247 77.3516 136.247 77.3516C136.247 77.3516 135.931 79.9125 137.545 81.146C138.725 82.0078 139.973 82.7716 141.279 83.421L140.954 81.5299L140.959 81.5259Z" fill="#FF7028"/>
<path d="M141.335 83.5936C141.335 83.5936 141.007 82.5766 141.964 80.6896C142.917 78.8026 143.569 77.6875 143.569 77.6875C143.569 77.6875 145.029 79.7992 144.177 81.6535C143.529 82.9728 142.775 84.2349 141.919 85.4275L141.339 83.5936H141.335Z" fill="#FF7028"/>
<path d="M144.269 92.1039C144.269 92.1039 144.391 91.0378 146.037 89.7226C147.683 88.4034 148.733 87.6641 148.733 87.6641C148.733 87.6641 149.195 90.1923 147.651 91.5239C146.524 92.4551 145.32 93.2883 144.051 94.0154L144.269 92.0998V92.1039Z" fill="#FF7028"/>
<path d="M143.836 89.479C143.836 89.479 143.654 88.4252 141.935 87.204C140.216 85.9827 139.129 85.3047 139.129 85.3047C139.129 85.3047 138.813 87.8656 140.427 89.0991C141.607 89.961 142.855 90.7247 144.165 91.3742L143.836 89.4831V89.479Z" fill="#FF7028"/>
<path d="M143.812 95.2134C143.812 95.2134 143.901 94.1473 142.547 92.5258C141.193 90.9084 140.309 89.9648 140.309 89.9648C140.309 89.9648 139.36 92.3542 140.613 93.9676C141.537 95.1072 142.555 96.165 143.654 97.133L143.816 95.2134H143.812Z" fill="#FF7028"/>
<path d="M135.493 63.6016C135.757 64.688 136.077 65.7581 136.458 66.8078C137.553 69.7201 139.336 71.4151 140.382 74.0373C141.428 76.6595 140.382 80.4621 141.416 83.8808C142.45 87.2995 144.149 89.0027 144.165 91.4166C144.177 93.8305 143.237 100.496 143.237 100.496" stroke="#FF7028" stroke-width="1.18" stroke-linecap="round" stroke-linejoin="round"/>
<path d="M136.21 66.3263L134.422 65.3828" stroke="#FF7028" stroke-width="1.18" stroke-linecap="round" stroke-linejoin="round"/>
<path d="M135.893 64.9358L136.352 63.6328" stroke="#FF7028" stroke-width="1.18" stroke-linecap="round" stroke-linejoin="round"/>
<path d="M140.281 73.9262C140.281 73.9262 138.785 73.1583 137.257 72.3945" stroke="#FF7028" stroke-width="1.18" stroke-linecap="round" stroke-linejoin="round"/>
<path d="M139.259 71.9728C139.697 70.5759 140.277 69.2239 140.987 67.9414" stroke="#FF7028" stroke-width="1.18" stroke-linecap="round" stroke-linejoin="round"/>
<path d="M141.165 83.0353C140.168 81.7651 138.996 80.6459 137.678 79.7188" stroke="#FF7028" stroke-width="1.18" stroke-linecap="round" stroke-linejoin="round"/>
<path d="M141.675 84.471C141.915 83.4499 142.235 82.4492 142.636 81.4812C143.2 80.1987 143.297 80.0312 143.297 80.0312" stroke="#FF7028" stroke-width="1.18" stroke-linecap="round" stroke-linejoin="round"/>
<path d="M144.092 93.2372C144.092 93.2372 145.275 91.7749 146.013 91.2235C146.459 90.8927 146.877 90.5251 147.262 90.1289" stroke="#FF7028" stroke-width="1.18" stroke-linecap="round" stroke-linejoin="round"/>
<path d="M144.168 91.4161C143.69 90.636 143.151 89.8926 142.563 89.1983C141.979 88.557 141.347 87.9688 140.67 87.4297" stroke="#FF7028" stroke-width="1.18" stroke-linecap="round" stroke-linejoin="round"/>
<path d="M143.654 97.1348C143.593 96.318 143.321 95.5337 142.859 94.8598C142.121 93.8795 141.254 92.5848 140.905 92.0742" stroke="#FF7028" stroke-width="1.18" stroke-linecap="round" stroke-linejoin="round"/>
<path d="M140.497 111.205V111.173L140.493 111.141L139.037 99.8359H153.189L151.733 111.141L151.729 111.173V111.205C151.729 111.374 151.592 111.506 151.434 111.506H140.792C140.633 111.506 140.497 111.374 140.497 111.205Z" stroke="white"/>
<path d="M153.623 101.347H138.468C137.811 101.347 137.276 100.812 137.272 100.15C137.272 99.4845 137.807 98.9453 138.468 98.9453H153.627C154.288 98.9453 154.823 99.4804 154.823 100.146C154.815 100.812 154.284 101.343 153.627 101.343L153.623 101.347Z" fill="white"/>
<path d="M119.457 53.8699C119.457 60.9237 114.563 66.8298 108.008 68.3288C106.958 68.5738 105.863 68.7005 104.736 68.7005C96.603 68.7005 90.0107 62.0592 90.0107 53.8699C90.0107 45.6805 96.3152 39.3333 104.197 39.0515C104.375 39.0392 104.558 39.0352 104.74 39.0352C112.869 39.0352 119.461 45.6765 119.461 53.8699H119.457Z" fill="#171717" stroke="white" stroke-linecap="round" stroke-linejoin="round"/>
<path d="M119.457 53.8699C119.457 60.9237 114.563 66.8298 108.008 68.3288C107.829 68.341 107.647 68.3451 107.464 68.3451C99.3314 68.3451 92.7432 61.7038 92.7432 53.5104C92.7432 46.4566 97.6367 40.5505 104.192 39.0515C104.371 39.0392 104.553 39.0352 104.736 39.0352C112.865 39.0352 119.457 45.6765 119.457 53.8699Z" fill="#0B0B0B" stroke="white" stroke-linecap="round" stroke-linejoin="round"/>
<path d="M109.808 63.1511L110.189 64.7196L107.643 65.3486L107.262 63.7801C104.983 63.772 103.15 62.2893 102.571 59.8958L102.396 59.1851L105.202 58.1599L105.38 58.8992C105.733 60.3533 106.682 61.0517 107.87 60.7576C109.058 60.4636 109.613 59.5405 109.329 58.3723C108.989 56.9754 107.399 56.1014 105.559 55.1987C103.382 54.1368 101.135 52.7889 100.519 50.2525C99.9151 47.7732 100.673 45.7146 102.611 44.6935L102.23 43.1251L104.772 42.4961L105.153 44.0645C107.363 44.0318 109.009 45.4982 109.625 48.0305L109.751 48.5411L106.945 49.5663L106.807 48.9985C106.434 47.4587 105.644 46.8093 104.598 47.0666C103.552 47.3239 103.118 48.1285 103.422 49.3784C103.763 50.7753 105.376 51.6126 107.193 52.552C109.349 53.6507 111.616 54.9618 112.232 57.4983C112.82 59.9203 111.851 62.0892 109.799 63.143L109.808 63.1511Z" fill="#FF7028"/>
<path d="M95.7149 65.5764L98.4313 65.3477" stroke="white" stroke-linecap="round" stroke-linejoin="round"/>
<path d="M127.808 30.5229C125.364 34.0069 120.9 35.2036 117.146 33.6393C116.541 33.3901 115.958 33.0675 115.398 32.6713C111.38 29.8122 110.428 24.2124 113.262 20.1688C116.039 16.211 121.415 15.2062 125.404 17.8366C125.493 17.8938 125.587 17.955 125.676 18.0204C129.689 20.8795 130.646 26.4793 127.804 30.5269L127.808 30.5229Z" stroke="white" stroke-linecap="round" stroke-linejoin="round"/>
<path d="M127.808 30.5225C125.363 34.0066 120.9 35.2033 117.145 33.639C117.056 33.5818 116.963 33.5205 116.874 33.4552C112.856 30.5961 111.903 24.9963 114.745 20.9486C117.19 17.4646 121.654 16.2678 125.408 17.8322C125.497 17.8893 125.59 17.9506 125.68 18.016C129.693 20.8751 130.65 26.4748 127.808 30.5225Z" stroke="white" stroke-linecap="round" stroke-linejoin="round"/>
<path d="M119.825 31.7157L119.472 32.6225L117.997 32.0384L118.349 31.1317C117.226 30.3229 116.837 28.9506 117.376 27.5619L117.539 27.1493L119.282 27.6313L119.116 28.0602C118.787 28.9016 119.014 29.5837 119.699 29.8532C120.389 30.1269 120.981 29.8655 121.244 29.1875C121.56 28.3787 121.078 27.3862 120.482 26.2916C119.776 25.0009 119.132 23.5468 119.708 22.0764C120.267 20.6387 121.358 19.8913 122.667 20.0669L123.02 19.1602L124.496 19.7442L124.143 20.651C125.246 21.4107 125.55 22.7136 124.978 24.184L124.861 24.4822L123.117 24.0002L123.247 23.6694C123.596 22.779 123.429 22.1786 122.825 21.9376C122.221 21.6966 121.727 21.9376 121.443 22.6687C121.127 23.4774 121.633 24.4577 122.205 25.5646C122.89 26.8634 123.555 28.3093 122.979 29.7797C122.432 31.1807 121.2 31.9159 119.821 31.7117L119.825 31.7157Z" fill="#FF7028"/>
<path d="M96.2419 82.9534C95.7635 82.5654 95.2892 82.1732 94.8148 81.7811C90.3511 78.0561 86.5684 73.6653 81.2614 71.1289C73.6312 67.4815 65.1131 66.5421 56.8992 68.5966C46.1675 71.28 32.8572 75.4094 28.1218 86.6212C25.3528 93.1727 26.3988 100.606 26.8691 107.493C28.6083 132.976 42.2997 155.93 68.1133 162.232C82.1614 165.663 97.3123 164.724 109.905 157.119C114.965 154.064 119.424 150.081 123.215 145.539C131.607 135.492 138.066 122.054 130.424 109.711C125.627 101.966 117.949 97.6165 110.44 93.0052C105.498 89.9705 100.75 86.609 96.2419 82.9493V82.9534Z" fill="#0E0E0E" stroke="white" stroke-miterlimit="10"/>
<path d="M57.1232 128.391C54.9947 129.052 52.8499 129.881 50.8917 130.915L57.1232 128.391Z" fill="#0E0E0E"/>
<path d="M57.1232 128.391C54.9947 129.052 52.8499 129.881 50.8917 130.915" stroke="white" stroke-linecap="round" stroke-linejoin="round"/>
<path d="M70.2945 125.875C70.2945 125.875 66.074 126.165 60.9493 127.362L70.2945 125.875Z" fill="#0E0E0E"/>
<path d="M70.2945 125.875C70.2945 125.875 66.074 126.165 60.9493 127.362" stroke="white" stroke-linecap="round" stroke-linejoin="round"/>
<path d="M67.5419 125.216C67.5419 125.216 55.4276 118.117 40.8038 123.806L67.5419 125.216Z" fill="#0E0E0E"/>
<path d="M67.5419 125.216C67.5419 125.216 55.4276 118.117 40.8038 123.806" stroke="white" stroke-linecap="round" stroke-linejoin="round"/>
<path opacity="0.1" d="M123.221 145.539C119.426 150.081 114.966 154.059 109.906 157.119C108.321 158.074 106.703 158.924 105.045 159.676C103.728 159.267 102.434 158.793 101.165 158.242C93.5999 154.97 87.2509 149.448 81.0478 143.995C77.3057 140.711 73.5028 137.379 69.0269 135.226C63.0427 132.347 55.9964 131.762 49.6271 133.621C52.9151 129.855 57.537 127.294 62.4549 126.51C59.2561 123.577 54.7963 122.344 50.4664 122.262C46.1364 122.176 43.7525 122.72 39.5238 123.675C40.9347 121.053 44.6931 118.68 47.6567 118.749C44.6931 118.68 41.3118 118.48 39.2319 118.149C35.4047 117.528 33.6978 112.994 33.1262 109.143C31.545 98.5274 33.1465 87.2134 38.8995 78.1868C40.1036 76.2957 41.4172 74.6374 42.8362 73.1711C47.4338 71.1126 52.4003 69.7239 56.9127 68.5966C65.1267 66.5421 73.6447 67.4815 81.2708 71.1289C86.5779 73.6653 90.3605 78.0561 94.8243 81.7811C95.2986 82.1732 95.773 82.5654 96.2514 82.9534C100.76 86.609 105.507 89.9705 110.45 93.0052C117.954 97.6165 125.637 101.966 130.429 109.711C138.071 122.05 131.617 135.492 123.225 145.539H123.221Z" fill="#0E0E0E"/>
<path d="M136.813 156.328C136.805 156.355 136.797 156.38 136.79 156.403L133.11 158.784C133.1 158.777 133.09 158.768 133.08 158.76C132.878 158.602 132.587 158.373 132.225 158.093C131.501 157.533 130.496 156.767 129.37 155.944C127.128 154.305 124.369 152.409 122.398 151.469C121.984 151.272 121.827 151.074 121.769 150.926C121.713 150.781 121.714 150.584 121.837 150.303C122.095 149.713 122.782 149 123.674 148.283C124.546 147.582 125.542 146.932 126.325 146.455C126.715 146.217 127.051 146.023 127.288 145.89C127.317 145.873 127.345 145.857 127.372 145.842C127.461 145.916 127.572 146.008 127.703 146.114C128.083 146.425 128.628 146.863 129.289 147.377C130.611 148.404 132.403 149.736 134.277 150.947L134.385 151.018L134.514 151.026C135.608 151.101 136.235 151.48 136.606 151.946C136.99 152.428 137.157 153.073 137.186 153.771C137.215 154.465 137.105 155.161 136.983 155.693C136.922 155.957 136.86 156.176 136.813 156.328Z" stroke="white"/>
<path opacity="0.1" d="M91.6861 75.7891H84.9884C83.687 75.7891 82.5761 76.7367 82.3653 78.0314L79.0651 98.0615C79.0651 98.0615 74.5202 98.4414 71.3011 100.81C68.082 103.179 60.164 86.3024 47.6525 86.2943C47.6525 86.2943 51.2527 94.5857 52.0514 101.202C52.0514 101.202 44.2306 100.345 42.9333 103.428C41.6359 106.512 43.5252 112.292 46.8294 110.058C50.1337 107.823 53.2352 104.078 55.4651 106.426C57.6949 108.775 67.5468 110.058 67.5468 110.058L82.7383 102.371L88.6291 99.5809L91.6901 75.8013L91.6861 75.7891Z" fill="black"/>
<path d="M69.1316 46.0705C69.1316 46.0705 72.5858 51.3313 73.2102 53.0345C73.8386 54.7377 74.3454 57.2578 74.2156 58.4709C74.0859 59.6839 72.8291 66.1823 72.1763 66.3702L71.5641 67.0686L71.9574 69.8215C71.9574 69.8215 69.2573 74.5268 61.319 71.0755C61.319 71.0755 61.0108 65.5819 60.0459 63.8623C59.081 62.1387 57.6377 64.1891 56.1943 59.2101C54.751 54.2312 59.3567 49.0195 59.3567 49.0195L69.1356 46.0664L69.1316 46.0705Z" fill="#171717"/>
<path opacity="0.1" d="M118.752 146.879L115.387 151.098C115.387 151.098 119.076 154.533 122.9 155.803C126.719 157.078 133.404 159.488 134.523 161.334L134.093 159.116C134.093 159.116 123.641 152.654 121.237 151.11C118.833 149.566 118.756 146.879 118.756 146.879H118.752Z" fill="black"/>
<path d="M59.8041 58.4771C59.8041 58.4771 58.8189 57.0108 57.7851 57.0557C56.7512 57.1047 56.3296 58.571 56.7066 59.9883C57.0837 61.4056 58.6324 63.3948 59.8081 63.2069C60.9839 63.019 61.4988 62.2593 61.4988 62.2593" stroke="white" stroke-linecap="round" stroke-linejoin="round"/>
<path d="M69.2497 47.2578C70.3606 48.1809 71.5283 49.1938 72.108 50.558C72.6026 51.718 72.7162 53.0005 73.1662 54.1809C73.6486 55.4349 74.1798 56.7501 74.2203 58.1184C74.2568 59.3641 73.977 60.6589 73.7297 61.872C73.5189 62.9217 73.3527 64.004 72.9797 65.0129C72.4364 66.4792 71.4228 67.3819 70.0687 68.0762C69.0835 68.5827 67.4415 69.3097 66.3753 68.6235C65.755 68.2233 64.8225 67.0469 64.0481 65.9727" stroke="white" stroke-linecap="round" stroke-linejoin="round"/>
<path d="M59.803 63.2109C59.803 63.2109 61.5463 67.5159 61.1206 70.5466" stroke="white" stroke-linecap="round" stroke-linejoin="round"/>
<path d="M59.3149 57.0919C59.1572 56.9837 58.955 56.8596 58.729 56.7567C58.4591 56.6339 58.1192 56.5245 57.7617 56.5371C57.3829 56.5505 57.0044 56.7019 56.7096 57.0588L56.6756 57.1L56.6511 57.1475C55.9932 58.4193 56.1455 59.6653 56.4421 60.5623C56.5318 60.8337 56.6357 61.0766 56.7371 61.2836C56.1558 61.2312 55.7075 61.0316 55.3515 60.7442C54.8309 60.3239 54.4551 59.6728 54.1909 58.8613C53.6818 57.2981 53.6432 55.334 53.6139 53.8384C53.6125 53.7678 53.6111 53.6982 53.6097 53.6298C53.584 52.3668 53.2323 51.3884 52.9311 50.5505C52.8532 50.3337 52.7787 50.1263 52.714 49.9259C52.5536 49.4283 52.4432 48.9562 52.4399 48.4352C52.4366 47.9166 52.5393 47.3236 52.8388 46.5917C53.0983 45.9574 53.7302 45.3582 54.6671 44.8111C55.593 44.2705 56.7522 43.818 57.964 43.4463C60.3856 42.7036 62.9367 42.3077 64.0586 42.1557C64.697 42.0693 65.3661 41.8139 65.9995 41.5408C66.2367 41.4385 66.4665 41.335 66.6919 41.2334C67.0943 41.0522 67.4829 40.8771 67.8749 40.7266C68.4803 40.4941 69.0022 40.3593 69.4401 40.3765C69.8463 40.3924 70.1889 40.5378 70.4838 40.9199C71.0991 41.7181 71.076 43.0624 70.4746 44.5357C69.8844 45.9815 68.8023 47.3713 67.6058 48.1379C66.4211 48.8969 64.4986 49.2424 62.7945 49.3845C61.9568 49.4543 61.1973 49.4733 60.6472 49.4747C60.3724 49.4755 60.1506 49.4718 59.9981 49.468C59.9219 49.4661 59.8631 49.4642 59.8238 49.4627L59.7796 49.461L59.769 49.4605L59.7666 49.4604L59.7662 49.4604L59.7661 49.4604L59.7661 49.4604L58.8338 49.4164L59.3138 50.217C59.8416 51.0973 59.9098 52.2498 59.4956 53.194L59.495 53.1954C59.4665 53.2609 59.4349 53.3273 59.399 53.4028L59.3974 53.4062C59.3631 53.4782 59.3248 53.5588 59.2888 53.6414C59.2158 53.809 59.141 54.0099 59.1096 54.2364C59.0449 54.6948 59.176 55.1131 59.2883 55.4349C59.3094 55.4955 59.3298 55.5527 59.3493 55.6072C59.4444 55.8739 59.5162 56.0754 59.5369 56.2864L59.537 56.2867C59.5646 56.5673 59.479 56.8609 59.3149 57.0919Z" stroke="white"/>
<path d="M60.3138 70.45C60.3138 70.45 63.0464 72.2594 68.1224 72.337L68.7143 79.1948C68.7143 79.1948 63.0099 78.7577 58.761 74.8244C58.761 74.8244 57.6137 71.7652 57.9177 70.4541C58.2218 69.1389 60.9382 67.8359 60.9382 67.8359" stroke="white" stroke-linecap="round" stroke-linejoin="round"/>
<path d="M71.7965 67.3811L71.9586 69.8236C70.1139 71.727 68.1233 72.3396 68.1233 72.3396L71.3018 78.4377C71.3018 78.4377 75.0886 75.4642 75.4697 72.3396C75.4697 72.3396 75.5021 69.1374 74.8412 68.2266C74.1845 67.3117 71.7721 66.8828 71.7721 66.8828" stroke="white" stroke-linecap="round" stroke-linejoin="round"/>
<path opacity="0.8" d="M56.4133 48.4279C56.8228 47.4027 57.9296 46.8104 59.0121 46.6266C60.0946 46.4428 61.2055 46.5776 62.3002 46.549C63.8043 46.5082 65.3247 46.1447 66.5977 45.3319C67.8707 44.5191 68.8762 43.2366 69.1924 41.7539" stroke="white" stroke-linecap="round" stroke-linejoin="round"/>
<path opacity="0.8" d="M53.7991 48.2259C54.4883 46.1265 56.706 44.8359 58.8913 44.648C59.9737 44.554 61.0684 44.6847 62.1469 44.5581C63.2253 44.4315 64.3483 43.9822 64.9119 43.0469" stroke="white" stroke-linecap="round" stroke-linejoin="round"/>
<path d="M52.6471 114.811C47.3846 117.564 45.5034 114.733 42.5681 112.389C39.6328 110.044 41.5546 105.866 40.9505 99.1348C40.3423 92.4077 41.8627 80.9876 41.8627 80.9876C41.8627 80.9876 43.1763 80.6813 46.8211 78.4348C50.4659 76.1884 58.1366 72.7656 58.1366 72.7656" stroke="white" stroke-linecap="round" stroke-linejoin="round"/>
<path d="M57.8694 104.643C57.8694 104.643 57.0342 101.975 54.6705 101.902C52.3109 101.828 48.5891 102.903 45.9417 107.959" stroke="white" stroke-linecap="round" stroke-linejoin="round"/>
<path d="M54.1354 101.743C53.9894 101.743 53.8475 101.689 53.7097 101.64C51.7798 100.938 49.6351 100.84 47.6526 101.363" stroke="white" stroke-linecap="round" stroke-linejoin="round"/>
<path d="M46.2942 84.6289C50.5836 89.4077 52.6797 95.7304 54.6622 101.857" stroke="white" stroke-linecap="round" stroke-linejoin="round"/>
<path d="M75.469 71.6953C75.469 71.6953 83.2532 73.566 87.0561 74.0112C90.8591 74.4564 91.4753 74.9915 91.4753 74.9915L92.1808 77.6627" stroke="white" stroke-linecap="round" stroke-linejoin="round"/>
<path d="M111.748 76.3594L85.2326 77.3846L83.0676 104.852H87.6084L110.629 99.6611L113.523 77.0211L111.748 76.3594Z" fill="#0E0E0E"/>
<path d="M84.4465 104.929L86.7656 78.4327L113.524 77.0195L110.629 99.6596L84.4465 104.929Z" stroke="white" stroke-linecap="round" stroke-linejoin="round"/>
<path d="M102.245 89.8517C102.062 91.465 101.207 92.6904 100.335 92.5923C99.4594 92.4943 98.8999 91.1056 99.0783 89.4923C99.2567 87.8789 100.116 86.6536 100.988 86.7516C101.864 86.8496 102.423 88.2383 102.245 89.8517Z" fill="white"/>
<path d="M110.63 99.6805L110.629 99.6805L110.629 99.657L110.63 99.6805ZM126.885 145.323L118.708 135.979C118.702 135.959 118.696 135.937 118.69 135.912C118.659 135.795 118.614 135.622 118.557 135.399C118.443 134.953 118.282 134.308 118.097 133.514C117.727 131.925 117.259 129.744 116.864 127.37C116.47 124.994 116.151 122.434 116.078 120.087C116.004 117.727 116.181 115.637 116.74 114.167L117.014 113.447L116.244 113.49L116.272 113.989L116.244 113.49L116.244 113.49L116.242 113.49L116.236 113.491L116.211 113.492L116.113 113.497C116.027 113.502 115.899 113.508 115.735 113.516C115.406 113.531 114.931 113.551 114.346 113.571C113.175 113.61 111.567 113.647 109.816 113.639C106.375 113.622 102.468 113.429 100.208 112.765C100.181 112.722 100.148 112.671 100.109 112.614C99.9778 112.416 99.7833 112.133 99.528 111.787C99.0176 111.097 98.2629 110.153 97.2819 109.138C95.6288 107.427 93.3159 105.494 90.4301 104.232L110.68 100.156L110.778 100.154C110.868 100.152 111 100.149 111.17 100.147C111.509 100.142 112 100.139 112.6 100.142C113.802 100.149 115.443 100.184 117.201 100.299C118.961 100.414 120.829 100.607 122.488 100.927C124.162 101.25 125.564 101.691 126.435 102.271C127.271 102.827 128.082 103.994 128.813 105.634C129.536 107.257 130.151 109.271 130.634 111.432C131.6 115.759 132.023 120.6 131.764 123.933C131.504 127.277 130.228 132.827 129.004 137.576C128.394 139.943 127.801 142.098 127.359 143.662C127.169 144.336 127.008 144.899 126.885 145.323Z" fill="#0E0E0E" stroke="white"/>
<path d="M128.977 146.607C125.235 143.192 121.627 138.495 120.552 136.825C116.267 130.155 110.344 123.738 104.25 118.759C99.3363 114.744 98.2254 108.209 92.1683 104.933C82.138 99.5134 73.4618 110.284 70.2184 112.465C66.975 114.642 61.3557 117.101 61.3557 117.101C61.3557 117.101 63.4031 124.845 69.4278 125.78C75.4525 126.716 81.5501 122.513 84.4449 124.539C87.3437 126.556 89.46 135.587 98.9795 140.877C106.76 145.198 117.362 149.417 122.831 152.256C124.055 152.893 124.955 153.563 125.645 153.943C127.534 154.98 129.553 156.205 131.458 157.41L134.548 162C134.548 162 135 164.5 137.5 165.5C140 166.5 149.343 158.66 150 157.41C152 154.853 155.5 152.256 156.5 149.5C158 146.611 157.872 143.09 157.819 142.996C157.653 142.686 154.507 141.064 152.37 141.951C147.846 143.83 138.805 151.067 134.548 150.532C134.548 150.532 131.446 148.866 128.973 146.611L128.977 146.607Z" stroke="white" stroke-miterlimit="10"/>
<path d="M62.244 118.139C62.125 117.831 62.0344 117.569 61.97 117.372C62.1139 117.307 62.2926 117.226 62.5002 117.131C63.0807 116.866 63.8885 116.489 64.7983 116.044C66.6123 115.156 68.8535 113.986 70.5048 112.878C70.9446 112.582 71.4404 112.153 71.9781 111.66C72.2518 111.409 72.5538 111.125 72.8714 110.826C73.1659 110.549 73.4738 110.259 73.7849 109.972C75.1109 108.746 76.6731 107.39 78.4717 106.271C82.0509 104.044 86.5429 102.764 91.9586 105.381L91.9587 105.381C94.9243 106.813 96.6536 109.162 98.2763 111.729C98.5066 112.094 98.7351 112.463 98.9652 112.836C100.34 115.059 101.768 117.37 103.942 119.144C109.999 124.093 115.885 130.471 120.139 137.092C121.175 138.709 124.502 143.073 128.084 146.452C124.874 147.942 123.316 150.012 122.587 151.564C120.412 150.462 117.542 149.169 114.415 147.761C113.618 147.403 112.805 147.036 111.982 146.664C107.675 144.714 103.097 142.586 99.2262 140.437C94.5636 137.844 91.7086 134.336 89.6512 131.202C88.9908 130.196 88.4235 129.247 87.8992 128.37C87.5979 127.866 87.3108 127.385 87.0284 126.931C86.2793 125.728 85.5555 124.698 84.7351 124.126C83.8701 123.522 82.8049 123.41 81.6821 123.509C80.5602 123.608 79.297 123.926 77.9859 124.264C77.9264 124.279 77.8668 124.295 77.807 124.31C75.1927 124.985 72.3336 125.723 69.5083 125.284C66.7095 124.849 64.7977 122.824 63.5656 120.823C62.9535 119.829 62.5222 118.86 62.244 118.139Z" stroke="white"/>
<path d="M99.3329 111.976C99.3329 111.976 96.2962 105.76 91.427 104.555" stroke="white" stroke-linecap="round" stroke-linejoin="round"/>
<path d="M83.4157 99.6043C80.0668 98.8691 76.3896 102.598 74.8409 101.9C73.6894 101.381 71.7961 104.453 71.7961 104.453C71.7961 104.453 66.8945 105.216 62.382 104.93C57.8696 104.645 55.733 105.527 54.1356 107.961L51.9058 113.908C51.9058 113.908 57.7845 119.226 64.0686 116.126C70.3528 113.03 78.6965 103.709 84.4455 103.742" stroke="white" stroke-linecap="round" stroke-linejoin="round"/>
<path d="M130.166 156.593C130.166 156.593 135.668 157.051 134.374 150.43" stroke="white" stroke-miterlimit="10"/>
<path d="M153 142C146.845 143.205 145.451 150.931 143.262 154.235C141.077 157.539 135 162 135 162" stroke="white" stroke-miterlimit="10"/>
<path d="M134.021 158.977C134.954 160.705 134.512 162.702 134.021 163.956C133.608 165.01 133.121 165.741 133.121 165.741C124.988 164.393 116.856 159.994 116.856 159.994L114.759 153.459L114.427 152.413L117.585 148.129" stroke="white" stroke-miterlimit="10"/>
<path d="M83.0676 103.897L85.2326 77.3846L111.748 76.3594L113.523 77.0211" stroke="white" stroke-linecap="round" stroke-linejoin="round"/>
<path d="M134.318 153.424C134.318 153.424 137.942 154.074 140.727 151.786C143.513 149.499 148.001 144.324 148.001 144.324" stroke="white" stroke-miterlimit="10"/>
<path d="M138.027 150.125C138.027 150.125 137.151 151.452 138.027 154.12" stroke="white" stroke-linecap="round" stroke-linejoin="round"/>
<path d="M140.598 148.859C140.598 148.859 139.896 150.844 140.927 152.854" stroke="white" stroke-linecap="round" stroke-linejoin="round"/>
<path d="M143.66 147.07C143.66 147.07 142.923 149.288 143.66 151.245" stroke="white" stroke-linecap="round" stroke-linejoin="round"/>
<path d="M118.298 147.574L115.387 151.099C115.387 151.099 118.318 154.322 122.445 155.657C126.573 156.997 133.96 159.272 134.568 161.694" stroke="white" stroke-miterlimit="10"/>
<path d="M67.4865 54.1016C67.5919 54.7632 67.7419 55.4168 67.9405 56.058C68.0378 56.3684 68.1473 56.6829 68.3662 56.9198C68.7473 57.3446 69.3636 57.4345 69.9271 57.5202C70.0204 57.5325 70.1217 57.5529 70.1785 57.6264C70.2312 57.6918 70.2393 57.7857 70.2393 57.8715C70.2393 58.5087 70.0447 59.1458 69.692 59.6768" stroke="white" stroke-linecap="round" stroke-linejoin="round"/>
<path d="M65.1271 60.6016C65.1271 60.6016 67.7583 62.6805 70.4909 61.9004C70.4909 61.9004 67.9124 67.0468 65.1271 60.6016Z" fill="white"/>
<path d="M65.0468 56.1108C65.1238 56.6827 64.9535 57.1769 64.6657 57.2177C64.3778 57.2545 64.0859 56.8256 64.0089 56.2497C63.9318 55.6779 64.1021 55.1837 64.39 55.1428C64.6778 55.1061 64.9697 55.5349 65.0468 56.1108Z" fill="white"/>
<path d="M70.7577 55.0718C70.8347 55.6436 70.6645 56.1378 70.3766 56.1787C70.0888 56.2154 69.7968 55.7865 69.7198 55.2106C69.6428 54.6388 69.8131 54.1446 70.1009 54.1038C70.3888 54.067 70.6807 54.4959 70.7577 55.0718Z" fill="white"/>
<path d="M64.6273 53.6856C64.6273 53.6856 63.0948 52.8891 62.0001 54.5964" stroke="white" stroke-linecap="round" stroke-linejoin="round"/>
<path d="M68.5529 52.6227C68.5529 52.6227 70.1705 51.2217 71.1111 52.6227" stroke="white" stroke-linecap="round" stroke-linejoin="round"/>
</svg>
