<svg width="70" height="70" viewBox="0 0 70 70" fill="none" xmlns="http://www.w3.org/2000/svg">
<mask id="path-1-inside-1_51_12811" fill="white">
<path d="M70 68.6611V67.0572C69.8188 65.4812 69.052 64.0725 67.8948 63.1799H67.8809C67.3093 62.6918 66.5844 62.3849 65.8315 62.0781C65.6363 61.9944 65.4551 61.9247 65.2738 61.841C62.5413 60.6834 59.8088 59.5119 57.0763 58.3543C54.3298 57.1827 51.5694 56.0112 48.8229 54.8396L48.4047 54.6583V54.198C48.4047 52.8312 48.4047 51.4505 48.4047 50.0837C48.3489 49.5676 48.6556 49.1771 48.7811 49.0237C50.4262 46.9038 51.4997 44.2817 51.8761 41.4644L51.9598 40.8647H52.5592C53.1169 40.8647 53.6606 40.8647 54.2183 40.8647C54.9014 40.8647 55.6124 40.8647 56.3095 40.8647C57.5503 40.8508 58.7771 40.3905 59.7391 39.5816C61.0217 38.5356 61.7745 36.9177 61.7606 35.272C61.7606 32.7336 61.7606 30.2092 61.7606 27.6848V26.3459C61.7606 25.1604 61.3981 23.9888 60.715 23.0544C59.8506 21.8271 58.4704 20.9902 56.9508 20.7671L56.3792 20.6834L56.3513 20.1116C56.2537 17.7545 55.9888 15.7043 55.5009 13.8354C54.5668 10.0837 52.6429 6.80614 50.0777 4.6304C48.2513 3.05439 46.0068 1.8689 43.4137 1.10181C41.2249 0.446304 38.7154 0.083682 35.7459 0H34.1844C31.2985 0.083682 28.8449 0.432357 26.656 1.07392C24.2442 1.77127 22.1251 2.83124 20.3685 4.21199C18.6118 5.59275 17.1201 7.41981 16.0466 9.49791C14.5549 12.3989 13.7323 15.9693 13.5929 20.1116V20.6834C13.579 20.6834 13.0074 20.7671 13.0074 20.7671C11.432 21.0181 9.98207 21.9247 9.14559 23.1939C8.51822 24.1144 8.18363 25.2301 8.19757 26.3459C8.19757 27.6709 8.19757 28.9958 8.19757 30.3208C8.19757 31.6457 8.19757 32.9707 8.19757 34.2957C8.18363 35.2999 8.19757 36.3319 8.56005 37.2385V37.2664C9.29894 39.2608 11.2786 40.7392 13.3977 40.8508C14.2063 40.8787 15.0289 40.8647 15.8235 40.8647C16.3533 40.8647 16.8831 40.8647 17.4268 40.8647H18.0263L18.1099 41.4644C18.5003 44.2817 19.5738 46.8898 21.2189 49.0237C21.3444 49.1771 21.6371 49.5676 21.5953 50.0837C21.5953 50.6555 21.5953 51.2134 21.5953 51.7852C21.5953 52.5941 21.5953 53.4031 21.5953 54.212V54.6722L21.1771 54.8536C17.4826 56.4156 13.802 57.9916 10.1075 59.5676C7.86298 60.53 5.60446 61.4784 3.35989 62.4407C1.49173 63.2218 0.153356 65.1185 0 67.1688V68.689C0.0278829 69.3166 0.543716 69.8745 1.18502 70H68.6616C69.3447 69.9582 69.9442 69.3584 69.9861 68.675L70 68.6611ZM56.3374 23.5007C57.0484 23.5286 57.7315 23.8494 58.2334 24.3794C58.7353 24.9233 59.0141 25.6346 58.9863 26.3459C58.9863 29.3166 58.9863 32.2873 58.9863 35.258C59.0141 36.7225 57.8152 38.0056 56.3513 38.0614H56.3374C55.5706 38.0614 54.7899 38.0614 54.051 38.0614C53.6049 38.0614 53.1587 38.0614 52.7266 38.0614H52.0295V37.364C52.0295 34.4351 52.0295 31.5063 52.0295 28.5774V23.4868H52.7266C53.1727 23.4868 53.6188 23.4868 54.051 23.4868C54.8038 23.4868 55.5845 23.4868 56.3374 23.4868V23.5007ZM17.9984 37.364V38.0614H17.3013C16.8552 38.0614 16.4091 38.0614 15.963 38.0614C15.2101 38.0614 14.4294 38.0614 13.6626 38.0614H13.6487C12.1988 38.0056 10.9998 36.7225 11.0277 35.258C11.0277 33.1241 11.0277 31.0042 11.0277 28.8703V26.3319C10.9859 24.8675 12.2127 23.5565 13.6626 23.5007H13.6766C14.4294 23.5007 15.1962 23.5007 15.9351 23.5007C16.3951 23.5007 16.8413 23.5007 17.3013 23.5007H17.9984V28.5914C17.9984 31.5202 17.9984 34.4491 17.9984 37.378V37.364ZM18.2494 20.7113H17.7196C17.5244 20.7113 17.3292 20.7113 17.148 20.7113H16.423L16.4509 19.9861C16.5903 15.3556 17.7335 11.576 19.8247 8.75872C21.665 6.2622 24.6345 4.40725 28.1617 3.54254C31.3404 2.76151 34.8954 2.56625 38.7293 2.97071C43.0372 3.45886 46.5784 4.97908 48.9763 7.35007C51.2906 9.62343 52.7963 13.0126 53.3539 17.1548C53.4794 18.0474 53.5352 18.954 53.5909 19.8326L53.6467 20.6555L52.9357 20.6834C52.6987 20.6834 52.4617 20.6834 52.2247 20.6834H51.7088L51.5694 20.1674C50.8584 17.6011 50.008 15.7183 48.8927 14.2399C47.8331 12.8173 46.3414 11.841 44.7939 11.5481C42.9815 11.1855 41.0994 11.7434 39.8307 12.1897C39.3288 12.357 38.8409 12.5523 38.3529 12.7476C37.4885 13.0962 36.5824 13.4589 35.6343 13.682C34.8118 13.8633 34.059 13.6262 33.4037 13.417L33.2364 13.3612C32.7066 13.1799 32.1908 12.9707 31.675 12.7755C29.9602 12.1199 28.343 11.5063 26.6003 11.4226C24.8297 11.311 23.0452 11.9944 21.8184 13.2497C19.9781 15.0767 19.0719 17.6569 18.3748 20.1674L18.2354 20.6695L18.2494 20.7113ZM20.7867 39.4421C20.7867 36.1506 20.7867 32.8452 20.7867 29.5537C20.7867 27.4616 20.7867 25.3556 20.7867 23.2636C20.7867 23.2078 20.7867 23.1381 20.7867 23.0683C20.7867 22.6639 20.7867 22.2176 20.8982 21.7434C21.2886 20.0837 21.7765 18.3264 22.6688 16.7503C23.1149 15.9972 23.8259 14.9512 24.9691 14.477C26.0008 14.0865 27.0882 14.2678 27.9247 14.463C28.9006 14.7141 29.8347 15.0767 30.7269 15.4254C31.8841 15.8717 32.9855 16.304 34.1565 16.4993C35.718 16.7643 37.3073 16.2064 38.7851 15.6067H38.799C39.0918 15.4951 39.3846 15.3835 39.6634 15.272C40.6672 14.8815 41.7128 14.463 42.8421 14.3096C43.818 14.1702 44.6963 14.3236 45.3933 14.7559C46.3135 15.3278 46.899 16.2204 47.3033 16.9317C48.1956 18.5356 48.7114 20.2371 49.1297 21.8549C49.2412 22.2873 49.2412 22.7197 49.2412 23.0962C49.2412 23.2078 49.2412 23.3054 49.2412 23.417V28.41C49.2412 31.7294 49.2412 35.0488 49.2412 38.3682V38.7308L48.9345 38.94C48.2095 39.4282 47.4706 39.9303 46.7457 40.4045C46.2159 40.7531 45.7001 41.1018 45.1703 41.4505C44.3199 42.0363 43.4276 42.4547 42.5214 42.7057C41.2806 43.0544 40.0398 43.0265 38.8269 43.0126C38.339 43.0126 37.8789 42.9986 37.4049 43.0126H37.377H37.3491C36.6381 42.9707 36.1362 43.0823 35.8435 43.3752L35.8156 43.4031C35.5646 43.6262 35.4113 43.9609 35.3834 44.3236C35.3555 44.6862 35.481 45.0488 35.6901 45.2859V45.3138C35.9968 45.6625 36.4987 45.8438 37.0424 45.802H37.0703C37.628 45.788 38.1856 45.802 38.7154 45.802C39.9422 45.802 41.1133 45.8298 42.2565 45.6206C43.9016 45.3417 45.5746 44.6025 47.2476 43.417L49.1436 42.0642L48.3071 44.2399C47.2336 47.0014 45.2121 49.3584 42.6051 50.8508C40.3605 52.1478 37.6977 52.8312 34.9791 52.8312C33.9056 52.8312 32.8321 52.7197 31.7726 52.5105C28.6497 51.8828 25.8614 50.265 23.8956 47.9637C21.9299 45.6764 20.7867 42.5802 20.7588 39.47L20.7867 39.4421ZM24.6624 67.1966C22.1808 67.1966 19.6993 67.1966 17.2316 67.1966C15.5587 67.1966 13.8717 67.1966 12.1709 67.1966C9.36865 67.1966 6.55248 67.1966 3.76419 67.1966H2.43975L3.19259 66.1088C3.56901 65.5648 4.02908 65.1743 4.54491 64.9651C6.63613 64.0725 8.74129 63.1799 10.8325 62.2873C14.1227 60.8926 17.5383 59.4421 20.8843 58.0056L21.7068 57.6569L21.8462 58.5356C22.3481 61.5481 23.4913 64.1423 25.1922 66.039L26.2239 67.1966H24.6624ZM36.0386 67.1548C35.6762 67.1827 35.3276 67.1827 34.9791 67.1827C32.3999 67.1827 30.1832 66.5411 28.5242 65.3138C26.0984 63.5146 25.1085 60.7113 24.7042 58.675C24.3696 57.1827 24.3836 55.6625 24.3975 54.198C24.3975 53.9609 24.3975 53.7238 24.3975 53.5007V52.2455L25.471 52.9149C31.1731 56.5132 38.8409 56.5132 44.5429 52.9149L45.6304 52.2315V53.5146C45.6164 53.8633 45.6164 54.212 45.6164 54.5607C45.6164 55.4254 45.6304 56.318 45.5328 57.2245C45.3097 59.3445 44.5708 62.3431 42.4099 64.5328C40.8903 66.0669 38.6178 67.0014 36.0526 67.1548H36.0386ZM66.2498 67.1827C63.4475 67.1827 60.6035 67.1827 57.7873 67.1827C54.9711 67.1827 54.2601 67.1827 52.5174 67.1827C50.1195 67.1827 47.7355 67.1827 45.3376 67.1827H43.7761L44.8078 66.0251C46.4947 64.1283 47.6519 61.5342 48.1538 58.5216L48.2932 57.643L49.1018 57.9916C52.2525 59.3305 55.4033 60.6695 58.568 62.0223C60.8265 62.9847 63.085 63.947 65.3436 64.9093C65.9152 65.1325 66.417 65.537 66.7935 66.0948L67.5184 67.1827H66.2219H66.2498Z"/>
</mask>
<path d="M70 68.6611V67.0572C69.8188 65.4812 69.052 64.0725 67.8948 63.1799H67.8809C67.3093 62.6918 66.5844 62.3849 65.8315 62.0781C65.6363 61.9944 65.4551 61.9247 65.2738 61.841C62.5413 60.6834 59.8088 59.5119 57.0763 58.3543C54.3298 57.1827 51.5694 56.0112 48.8229 54.8396L48.4047 54.6583V54.198C48.4047 52.8312 48.4047 51.4505 48.4047 50.0837C48.3489 49.5676 48.6556 49.1771 48.7811 49.0237C50.4262 46.9038 51.4997 44.2817 51.8761 41.4644L51.9598 40.8647H52.5592C53.1169 40.8647 53.6606 40.8647 54.2183 40.8647C54.9014 40.8647 55.6124 40.8647 56.3095 40.8647C57.5503 40.8508 58.7771 40.3905 59.7391 39.5816C61.0217 38.5356 61.7745 36.9177 61.7606 35.272C61.7606 32.7336 61.7606 30.2092 61.7606 27.6848V26.3459C61.7606 25.1604 61.3981 23.9888 60.715 23.0544C59.8506 21.8271 58.4704 20.9902 56.9508 20.7671L56.3792 20.6834L56.3513 20.1116C56.2537 17.7545 55.9888 15.7043 55.5009 13.8354C54.5668 10.0837 52.6429 6.80614 50.0777 4.6304C48.2513 3.05439 46.0068 1.8689 43.4137 1.10181C41.2249 0.446304 38.7154 0.083682 35.7459 0H34.1844C31.2985 0.083682 28.8449 0.432357 26.656 1.07392C24.2442 1.77127 22.1251 2.83124 20.3685 4.21199C18.6118 5.59275 17.1201 7.41981 16.0466 9.49791C14.5549 12.3989 13.7323 15.9693 13.5929 20.1116V20.6834C13.579 20.6834 13.0074 20.7671 13.0074 20.7671C11.432 21.0181 9.98207 21.9247 9.14559 23.1939C8.51822 24.1144 8.18363 25.2301 8.19757 26.3459C8.19757 27.6709 8.19757 28.9958 8.19757 30.3208C8.19757 31.6457 8.19757 32.9707 8.19757 34.2957C8.18363 35.2999 8.19757 36.3319 8.56005 37.2385V37.2664C9.29894 39.2608 11.2786 40.7392 13.3977 40.8508C14.2063 40.8787 15.0289 40.8647 15.8235 40.8647C16.3533 40.8647 16.8831 40.8647 17.4268 40.8647H18.0263L18.1099 41.4644C18.5003 44.2817 19.5738 46.8898 21.2189 49.0237C21.3444 49.1771 21.6371 49.5676 21.5953 50.0837C21.5953 50.6555 21.5953 51.2134 21.5953 51.7852C21.5953 52.5941 21.5953 53.4031 21.5953 54.212V54.6722L21.1771 54.8536C17.4826 56.4156 13.802 57.9916 10.1075 59.5676C7.86298 60.53 5.60446 61.4784 3.35989 62.4407C1.49173 63.2218 0.153356 65.1185 0 67.1688V68.689C0.0278829 69.3166 0.543716 69.8745 1.18502 70H68.6616C69.3447 69.9582 69.9442 69.3584 69.9861 68.675L70 68.6611ZM56.3374 23.5007C57.0484 23.5286 57.7315 23.8494 58.2334 24.3794C58.7353 24.9233 59.0141 25.6346 58.9863 26.3459C58.9863 29.3166 58.9863 32.2873 58.9863 35.258C59.0141 36.7225 57.8152 38.0056 56.3513 38.0614H56.3374C55.5706 38.0614 54.7899 38.0614 54.051 38.0614C53.6049 38.0614 53.1587 38.0614 52.7266 38.0614H52.0295V37.364C52.0295 34.4351 52.0295 31.5063 52.0295 28.5774V23.4868H52.7266C53.1727 23.4868 53.6188 23.4868 54.051 23.4868C54.8038 23.4868 55.5845 23.4868 56.3374 23.4868V23.5007ZM17.9984 37.364V38.0614H17.3013C16.8552 38.0614 16.4091 38.0614 15.963 38.0614C15.2101 38.0614 14.4294 38.0614 13.6626 38.0614H13.6487C12.1988 38.0056 10.9998 36.7225 11.0277 35.258C11.0277 33.1241 11.0277 31.0042 11.0277 28.8703V26.3319C10.9859 24.8675 12.2127 23.5565 13.6626 23.5007H13.6766C14.4294 23.5007 15.1962 23.5007 15.9351 23.5007C16.3951 23.5007 16.8413 23.5007 17.3013 23.5007H17.9984V28.5914C17.9984 31.5202 17.9984 34.4491 17.9984 37.378V37.364ZM18.2494 20.7113H17.7196C17.5244 20.7113 17.3292 20.7113 17.148 20.7113H16.423L16.4509 19.9861C16.5903 15.3556 17.7335 11.576 19.8247 8.75872C21.665 6.2622 24.6345 4.40725 28.1617 3.54254C31.3404 2.76151 34.8954 2.56625 38.7293 2.97071C43.0372 3.45886 46.5784 4.97908 48.9763 7.35007C51.2906 9.62343 52.7963 13.0126 53.3539 17.1548C53.4794 18.0474 53.5352 18.954 53.5909 19.8326L53.6467 20.6555L52.9357 20.6834C52.6987 20.6834 52.4617 20.6834 52.2247 20.6834H51.7088L51.5694 20.1674C50.8584 17.6011 50.008 15.7183 48.8927 14.2399C47.8331 12.8173 46.3414 11.841 44.7939 11.5481C42.9815 11.1855 41.0994 11.7434 39.8307 12.1897C39.3288 12.357 38.8409 12.5523 38.3529 12.7476C37.4885 13.0962 36.5824 13.4589 35.6343 13.682C34.8118 13.8633 34.059 13.6262 33.4037 13.417L33.2364 13.3612C32.7066 13.1799 32.1908 12.9707 31.675 12.7755C29.9602 12.1199 28.343 11.5063 26.6003 11.4226C24.8297 11.311 23.0452 11.9944 21.8184 13.2497C19.9781 15.0767 19.0719 17.6569 18.3748 20.1674L18.2354 20.6695L18.2494 20.7113ZM20.7867 39.4421C20.7867 36.1506 20.7867 32.8452 20.7867 29.5537C20.7867 27.4616 20.7867 25.3556 20.7867 23.2636C20.7867 23.2078 20.7867 23.1381 20.7867 23.0683C20.7867 22.6639 20.7867 22.2176 20.8982 21.7434C21.2886 20.0837 21.7765 18.3264 22.6688 16.7503C23.1149 15.9972 23.8259 14.9512 24.9691 14.477C26.0008 14.0865 27.0882 14.2678 27.9247 14.463C28.9006 14.7141 29.8347 15.0767 30.7269 15.4254C31.8841 15.8717 32.9855 16.304 34.1565 16.4993C35.718 16.7643 37.3073 16.2064 38.7851 15.6067H38.799C39.0918 15.4951 39.3846 15.3835 39.6634 15.272C40.6672 14.8815 41.7128 14.463 42.8421 14.3096C43.818 14.1702 44.6963 14.3236 45.3933 14.7559C46.3135 15.3278 46.899 16.2204 47.3033 16.9317C48.1956 18.5356 48.7114 20.2371 49.1297 21.8549C49.2412 22.2873 49.2412 22.7197 49.2412 23.0962C49.2412 23.2078 49.2412 23.3054 49.2412 23.417V28.41C49.2412 31.7294 49.2412 35.0488 49.2412 38.3682V38.7308L48.9345 38.94C48.2095 39.4282 47.4706 39.9303 46.7457 40.4045C46.2159 40.7531 45.7001 41.1018 45.1703 41.4505C44.3199 42.0363 43.4276 42.4547 42.5214 42.7057C41.2806 43.0544 40.0398 43.0265 38.8269 43.0126C38.339 43.0126 37.8789 42.9986 37.4049 43.0126H37.377H37.3491C36.6381 42.9707 36.1362 43.0823 35.8435 43.3752L35.8156 43.4031C35.5646 43.6262 35.4113 43.9609 35.3834 44.3236C35.3555 44.6862 35.481 45.0488 35.6901 45.2859V45.3138C35.9968 45.6625 36.4987 45.8438 37.0424 45.802H37.0703C37.628 45.788 38.1856 45.802 38.7154 45.802C39.9422 45.802 41.1133 45.8298 42.2565 45.6206C43.9016 45.3417 45.5746 44.6025 47.2476 43.417L49.1436 42.0642L48.3071 44.2399C47.2336 47.0014 45.2121 49.3584 42.6051 50.8508C40.3605 52.1478 37.6977 52.8312 34.9791 52.8312C33.9056 52.8312 32.8321 52.7197 31.7726 52.5105C28.6497 51.8828 25.8614 50.265 23.8956 47.9637C21.9299 45.6764 20.7867 42.5802 20.7588 39.47L20.7867 39.4421ZM24.6624 67.1966C22.1808 67.1966 19.6993 67.1966 17.2316 67.1966C15.5587 67.1966 13.8717 67.1966 12.1709 67.1966C9.36865 67.1966 6.55248 67.1966 3.76419 67.1966H2.43975L3.19259 66.1088C3.56901 65.5648 4.02908 65.1743 4.54491 64.9651C6.63613 64.0725 8.74129 63.1799 10.8325 62.2873C14.1227 60.8926 17.5383 59.4421 20.8843 58.0056L21.7068 57.6569L21.8462 58.5356C22.3481 61.5481 23.4913 64.1423 25.1922 66.039L26.2239 67.1966H24.6624ZM36.0386 67.1548C35.6762 67.1827 35.3276 67.1827 34.9791 67.1827C32.3999 67.1827 30.1832 66.5411 28.5242 65.3138C26.0984 63.5146 25.1085 60.7113 24.7042 58.675C24.3696 57.1827 24.3836 55.6625 24.3975 54.198C24.3975 53.9609 24.3975 53.7238 24.3975 53.5007V52.2455L25.471 52.9149C31.1731 56.5132 38.8409 56.5132 44.5429 52.9149L45.6304 52.2315V53.5146C45.6164 53.8633 45.6164 54.212 45.6164 54.5607C45.6164 55.4254 45.6304 56.318 45.5328 57.2245C45.3097 59.3445 44.5708 62.3431 42.4099 64.5328C40.8903 66.0669 38.6178 67.0014 36.0526 67.1548H36.0386ZM66.2498 67.1827C63.4475 67.1827 60.6035 67.1827 57.7873 67.1827C54.9711 67.1827 54.2601 67.1827 52.5174 67.1827C50.1195 67.1827 47.7355 67.1827 45.3376 67.1827H43.7761L44.8078 66.0251C46.4947 64.1283 47.6519 61.5342 48.1538 58.5216L48.2932 57.643L49.1018 57.9916C52.2525 59.3305 55.4033 60.6695 58.568 62.0223C60.8265 62.9847 63.085 63.947 65.3436 64.9093C65.9152 65.1325 66.417 65.537 66.7935 66.0948L67.5184 67.1827H66.2219H66.2498Z" fill="white" stroke="#404040" mask="url(#path-1-inside-1_51_12811)"/>
</svg>
