<svg width="20" height="19" viewBox="0 0 20 19" fill="none" xmlns="http://www.w3.org/2000/svg">
<path d="M0.41586 0.993601C0.704129 0.681691 1.12392 0.49858 1.54876 0.500131C4.43378 0.49858 7.3188 0.499743 10.2038 0.499355C10.6131 0.490821 11.0236 0.647163 11.3169 0.934245C11.6184 1.2221 11.793 1.63488 11.7922 2.05153C11.7934 2.46509 11.7934 2.87903 11.7922 3.29258C11.7938 3.56337 11.6692 3.83066 11.4613 4.00408C11.2122 4.21939 10.8436 4.28185 10.5359 4.1643C10.1937 4.03977 9.94232 3.69954 9.93262 3.33409C9.92758 3.01015 9.93262 2.68583 9.93068 2.36151C7.24082 2.36151 4.55056 2.36151 1.8607 2.36151C1.8607 7.12046 1.8607 11.879 1.8607 16.638C4.55056 16.638 7.24043 16.638 9.93068 16.638C9.93224 16.3144 9.92758 15.9909 9.93262 15.6673C9.94116 15.3519 10.1282 15.0509 10.4029 14.8977C10.6644 14.7456 11.0007 14.7367 11.2715 14.8709C11.5854 15.0206 11.7961 15.3593 11.7926 15.7073C11.7926 16.134 11.7949 16.5608 11.791 16.9875C11.7833 17.5609 11.4252 18.1095 10.9045 18.35C10.6752 18.4617 10.4176 18.5048 10.1639 18.5005C7.33122 18.5001 4.49857 18.4997 1.66593 18.5005C1.44789 18.5044 1.22596 18.4842 1.02072 18.4051C0.41974 18.1968 -0.00897808 17.5857 -0.000830503 16.9495C-0.00238242 11.9966 -0.0012185 7.04365 -0.00160648 2.09072C-0.010142 1.68919 0.13923 1.28611 0.41586 0.993601Z" fill="#EA3C53"/>
<path d="M14.677 5.68835C14.7965 5.32484 15.1589 5.05949 15.5422 5.05793C15.8118 5.05056 16.0745 5.17238 16.2565 5.36868C17.361 6.47511 18.4683 7.57843 19.5725 8.68525C19.6823 8.79542 19.8018 8.90056 19.8783 9.03867C20.0358 9.30984 20.0408 9.66093 19.8918 9.93677C19.8239 10.0687 19.7165 10.173 19.6121 10.2754C18.4877 11.4013 17.3618 12.5252 16.2367 13.6502C16.0217 13.8764 15.692 13.9873 15.3847 13.9249C15.032 13.8632 14.7329 13.5765 14.6533 13.2277C14.5761 12.9189 14.6739 12.5752 14.9013 12.3525C15.5406 11.7116 16.1816 11.0719 16.8218 10.4318C13.4327 10.4298 10.0437 10.4322 6.65474 10.4306C6.20235 10.4395 5.78217 10.0729 5.73212 9.62292C5.67198 9.22682 5.904 8.81288 6.27025 8.65227C6.4495 8.56382 6.65357 8.56537 6.84873 8.56886C10.1729 8.56847 13.4975 8.56964 16.8218 8.56809C16.1812 7.92758 15.5399 7.28747 14.9001 6.64619C14.6522 6.40295 14.5618 6.01616 14.677 5.68835Z" fill="#EA3C53"/>
</svg>
