<svg width="70" height="70" viewBox="0 0 70 70" fill="none" xmlns="http://www.w3.org/2000/svg">
<mask id="path-1-inside-1_51_24169" fill="white">
<path d="M34.0485 0H34.9112C37.1807 0.0109375 39.4461 0.820312 41.1469 2.33652C41.8469 2.97363 42.6973 3.46582 43.6393 3.62578C45.4453 3.93886 47.2582 3.39199 49.0711 3.54375C50.3139 3.61211 51.517 4.04961 52.5506 4.73457C54.3156 5.77636 55.7307 7.40605 56.4799 9.31738C56.7971 10.2307 57.1457 11.174 57.8594 11.8617C59.2648 13.248 61.2814 13.6705 62.8783 14.7711C63.9256 15.4492 64.7623 16.4254 65.3174 17.5396C66.1951 19.0941 66.6353 20.8988 66.526 22.683C66.4836 23.7836 66.0584 24.8664 66.2771 25.9724C66.5492 27.624 67.7141 28.901 68.5932 30.2613C69.408 31.4767 69.9754 32.8863 70 34.3656V35.0054C69.9631 37.2435 69.1564 39.4693 67.6635 41.1455C67.025 41.8468 66.5287 42.6972 66.3715 43.642C66.0789 45.3127 66.5355 46.9888 66.474 48.6664C66.4549 49.7314 66.2156 50.7978 65.7275 51.748C65.1684 52.7611 64.6133 53.8111 63.7205 54.5767C62.2494 55.9316 60.2383 56.406 58.6086 57.5134C57.6803 58.1259 57.0145 59.0789 56.6822 60.1357C56.0834 61.9527 54.9186 63.5796 53.375 64.713C51.6469 66.0023 49.4594 66.6544 47.3074 66.5259C46.1658 66.474 45.0352 66.0337 43.8895 66.3003C42.0274 66.6777 40.6711 68.116 39.0565 69.006C38.0502 69.5912 36.9127 69.9412 35.7479 70H35.0889C32.8481 69.9863 30.6114 69.1988 28.9188 67.7168C28.2229 67.0851 27.3971 66.5683 26.4633 66.3919C24.6203 66.0351 22.7637 66.6121 20.9098 66.4521C19.6082 66.3824 18.3586 65.8916 17.2881 65.1601C15.4205 64.0254 13.9932 62.2043 13.3151 60.1275C12.9678 59.0091 12.2295 58.022 11.2315 57.4027C9.68519 56.406 7.83539 55.9248 6.42446 54.7066C5.38266 53.848 4.71684 52.6435 4.17953 51.4281C3.63266 50.1265 3.3893 48.6992 3.47407 47.291C3.52055 46.1972 3.94028 45.1213 3.72016 44.022C3.44809 42.3732 2.28598 41.1004 1.41098 39.7414C0.631686 38.5875 0.0848118 37.2599 4.61925e-05 35.8586V35.1914C-0.00678974 32.9533 0.745163 30.7029 2.21489 29.0008C2.77407 28.3719 3.28266 27.6719 3.50961 26.8488C3.92797 25.401 3.62719 23.8889 3.54516 22.4178C3.46176 21.1627 3.5561 19.868 4.06196 18.7017C4.9643 16.7029 6.4641 14.9338 8.43422 13.9248C9.48012 13.3328 10.7571 13.181 11.6553 12.3307C13.162 10.9894 13.5871 8.91816 14.6645 7.28164C15.3508 6.16464 16.3625 5.26367 17.5356 4.68535C19.0983 3.79804 20.9139 3.36191 22.7076 3.47402C23.8014 3.52187 24.8787 3.94023 25.978 3.71875C27.7635 3.41933 29.0979 2.1 30.5949 1.19766C31.6367 0.538671 32.818 0.108008 34.0485 0ZM33.9774 3.10625C33.0723 3.2539 32.2 3.60254 31.444 4.12207C30.9067 4.48027 30.4651 4.95742 29.9428 5.33613C29.0309 6.01972 27.9549 6.50781 26.816 6.64179C24.8897 6.90429 22.9592 6.29453 21.0342 6.60488C19.168 6.88105 17.5014 8.11152 16.6182 9.76855C16.1998 10.5123 16.0399 11.3627 15.6584 12.1228C15.1485 13.218 14.3391 14.1736 13.3205 14.8271C11.7606 15.8662 9.85746 16.3324 8.45063 17.6121C7.07114 18.8398 6.34926 20.7293 6.47504 22.564C6.51059 23.249 6.71977 23.908 6.78539 24.5889C6.92074 25.7455 6.78676 26.9472 6.30278 28.0137C5.5645 29.7418 4.14125 31.0762 3.45219 32.8316C2.71528 34.6267 2.95864 36.7554 4.0059 38.3783C4.40922 39.0441 5.00395 39.5623 5.44282 40.2035C6.07582 41.0812 6.51606 42.1093 6.64321 43.1894C6.92211 45.2908 6.17836 47.4222 6.71567 49.5031C7.21332 51.5785 8.91137 53.256 10.9348 53.8726C12.3621 54.3142 13.7184 55.1209 14.5975 56.3513C15.6557 57.7568 16.1028 59.5095 17.1282 60.9355C17.8623 61.9992 18.9479 62.8291 20.192 63.1982C22.3071 63.8736 24.5123 63.1025 26.6643 63.3418C28.2201 63.4771 29.6379 64.2838 30.759 65.3392C32.699 67.1671 35.8367 67.472 38.1336 66.1513C38.8856 65.7535 39.4406 65.089 40.1475 64.6269C41.9672 63.3718 44.3092 62.9152 46.468 63.3896C48.5529 63.8572 50.8799 63.2023 52.3291 61.6109C53.9957 59.8172 54.3416 57.1593 56.1709 55.4859C57.0377 54.6615 58.1479 54.1502 59.2799 53.8002C61.8242 52.9812 63.6043 50.3603 63.5455 47.7052C63.5428 46.9191 63.2816 46.1644 63.2324 45.3824C63.0451 43.158 63.834 40.8816 65.342 39.2396C66.7529 37.6879 67.349 35.3992 66.7324 33.3771C66.1432 31.325 64.4547 29.8566 63.6521 27.9084C63.2256 26.9158 63.0902 25.8125 63.1955 24.7406C63.2639 23.8711 63.5687 23.033 63.5441 22.1539C63.5482 19.5084 61.7285 16.9408 59.1814 16.1656C56.7848 15.4205 54.7832 13.5174 53.9492 11.148C53.7045 10.3961 53.39 9.66054 52.9115 9.02617C51.7576 7.43203 49.8162 6.45449 47.8502 6.46132C46.9246 6.43535 46.0414 6.75937 45.1254 6.81269C44.0508 6.90156 42.9488 6.7416 41.9645 6.29453C40.5262 5.67382 39.3668 4.58008 37.9942 3.84179C36.7842 3.16504 35.3514 2.86289 33.9774 3.10625Z"/>
<path d="M25.0848 22.2536C26.5873 21.9966 28.1855 22.3452 29.4392 23.2161C31.0498 24.3044 32.056 26.2184 32.0369 28.1639C32.0424 32.5403 32.0355 36.9167 32.0396 41.293C32.0478 42.019 32.0205 42.7559 31.8154 43.4587C31.3137 45.3003 29.8713 46.8561 28.0652 47.4823C26.5121 48.0415 24.7252 47.9143 23.2719 47.1255C21.392 46.1438 20.1232 44.0999 20.1082 41.9753C20.0959 37.4171 20.1055 32.8589 20.1027 28.2993C20.0932 27.4434 20.2436 26.5807 20.5853 25.7932C21.3605 23.9544 23.1119 22.5681 25.0848 22.2536ZM25.4826 25.2341C24.1264 25.4843 23.0709 26.7858 23.1105 28.1653C23.1119 32.7673 23.1023 37.3706 23.1146 41.9725C23.1297 43.5298 24.5584 44.8833 26.1129 44.8231C27.6906 44.8382 29.0865 43.4067 29.0305 41.829C29.0291 37.2284 29.0387 32.6264 29.0264 28.0272C29.0195 26.2649 27.1984 24.828 25.4826 25.2341Z"/>
<path d="M46.9473 22.3742C48.0411 22.0748 49.1225 23.2861 48.6877 24.3389C45.7346 31.7723 42.7487 39.1933 39.7833 46.6226C39.5385 47.3924 38.6335 47.8681 37.8678 47.581C37.0626 47.3336 36.6155 46.3451 36.9641 45.5767C39.9145 38.1898 42.8731 30.8057 45.8249 23.4201C45.9958 22.9129 46.4141 22.485 46.9473 22.3742Z"/>
<path d="M37.7693 22.453C38.6415 22.0524 39.7613 22.7059 39.8351 23.663C39.8693 24.4751 39.8501 25.2899 39.846 26.1034C39.8447 26.7897 39.3087 27.42 38.6347 27.5417C37.813 27.7276 36.9298 27.085 36.8601 26.2442C36.8246 25.4717 36.8519 24.6965 36.8451 23.9227C36.8122 23.302 37.191 22.6854 37.7693 22.453Z"/>
<path d="M46.9519 42.465C47.7859 42.253 48.7005 42.9025 48.7648 43.7624C48.7962 44.5855 48.7826 45.4112 48.7716 46.2343C48.7552 46.9985 48.0703 47.6644 47.306 47.6603C46.5144 47.6972 45.7857 47.0054 45.7802 46.2151C45.7679 45.4386 45.7693 44.662 45.7802 43.8855C45.7816 43.2155 46.2984 42.5989 46.9519 42.465Z"/>
</mask>
<path d="M34.0485 0H34.9112C37.1807 0.0109375 39.4461 0.820312 41.1469 2.33652C41.8469 2.97363 42.6973 3.46582 43.6393 3.62578C45.4453 3.93886 47.2582 3.39199 49.0711 3.54375C50.3139 3.61211 51.517 4.04961 52.5506 4.73457C54.3156 5.77636 55.7307 7.40605 56.4799 9.31738C56.7971 10.2307 57.1457 11.174 57.8594 11.8617C59.2648 13.248 61.2814 13.6705 62.8783 14.7711C63.9256 15.4492 64.7623 16.4254 65.3174 17.5396C66.1951 19.0941 66.6353 20.8988 66.526 22.683C66.4836 23.7836 66.0584 24.8664 66.2771 25.9724C66.5492 27.624 67.7141 28.901 68.5932 30.2613C69.408 31.4767 69.9754 32.8863 70 34.3656V35.0054C69.9631 37.2435 69.1564 39.4693 67.6635 41.1455C67.025 41.8468 66.5287 42.6972 66.3715 43.642C66.0789 45.3127 66.5355 46.9888 66.474 48.6664C66.4549 49.7314 66.2156 50.7978 65.7275 51.748C65.1684 52.7611 64.6133 53.8111 63.7205 54.5767C62.2494 55.9316 60.2383 56.406 58.6086 57.5134C57.6803 58.1259 57.0145 59.0789 56.6822 60.1357C56.0834 61.9527 54.9186 63.5796 53.375 64.713C51.6469 66.0023 49.4594 66.6544 47.3074 66.5259C46.1658 66.474 45.0352 66.0337 43.8895 66.3003C42.0274 66.6777 40.6711 68.116 39.0565 69.006C38.0502 69.5912 36.9127 69.9412 35.7479 70H35.0889C32.8481 69.9863 30.6114 69.1988 28.9188 67.7168C28.2229 67.0851 27.3971 66.5683 26.4633 66.3919C24.6203 66.0351 22.7637 66.6121 20.9098 66.4521C19.6082 66.3824 18.3586 65.8916 17.2881 65.1601C15.4205 64.0254 13.9932 62.2043 13.3151 60.1275C12.9678 59.0091 12.2295 58.022 11.2315 57.4027C9.68519 56.406 7.83539 55.9248 6.42446 54.7066C5.38266 53.848 4.71684 52.6435 4.17953 51.4281C3.63266 50.1265 3.3893 48.6992 3.47407 47.291C3.52055 46.1972 3.94028 45.1213 3.72016 44.022C3.44809 42.3732 2.28598 41.1004 1.41098 39.7414C0.631686 38.5875 0.0848118 37.2599 4.61925e-05 35.8586V35.1914C-0.00678974 32.9533 0.745163 30.7029 2.21489 29.0008C2.77407 28.3719 3.28266 27.6719 3.50961 26.8488C3.92797 25.401 3.62719 23.8889 3.54516 22.4178C3.46176 21.1627 3.5561 19.868 4.06196 18.7017C4.9643 16.7029 6.4641 14.9338 8.43422 13.9248C9.48012 13.3328 10.7571 13.181 11.6553 12.3307C13.162 10.9894 13.5871 8.91816 14.6645 7.28164C15.3508 6.16464 16.3625 5.26367 17.5356 4.68535C19.0983 3.79804 20.9139 3.36191 22.7076 3.47402C23.8014 3.52187 24.8787 3.94023 25.978 3.71875C27.7635 3.41933 29.0979 2.1 30.5949 1.19766C31.6367 0.538671 32.818 0.108008 34.0485 0ZM33.9774 3.10625C33.0723 3.2539 32.2 3.60254 31.444 4.12207C30.9067 4.48027 30.4651 4.95742 29.9428 5.33613C29.0309 6.01972 27.9549 6.50781 26.816 6.64179C24.8897 6.90429 22.9592 6.29453 21.0342 6.60488C19.168 6.88105 17.5014 8.11152 16.6182 9.76855C16.1998 10.5123 16.0399 11.3627 15.6584 12.1228C15.1485 13.218 14.3391 14.1736 13.3205 14.8271C11.7606 15.8662 9.85746 16.3324 8.45063 17.6121C7.07114 18.8398 6.34926 20.7293 6.47504 22.564C6.51059 23.249 6.71977 23.908 6.78539 24.5889C6.92074 25.7455 6.78676 26.9472 6.30278 28.0137C5.5645 29.7418 4.14125 31.0762 3.45219 32.8316C2.71528 34.6267 2.95864 36.7554 4.0059 38.3783C4.40922 39.0441 5.00395 39.5623 5.44282 40.2035C6.07582 41.0812 6.51606 42.1093 6.64321 43.1894C6.92211 45.2908 6.17836 47.4222 6.71567 49.5031C7.21332 51.5785 8.91137 53.256 10.9348 53.8726C12.3621 54.3142 13.7184 55.1209 14.5975 56.3513C15.6557 57.7568 16.1028 59.5095 17.1282 60.9355C17.8623 61.9992 18.9479 62.8291 20.192 63.1982C22.3071 63.8736 24.5123 63.1025 26.6643 63.3418C28.2201 63.4771 29.6379 64.2838 30.759 65.3392C32.699 67.1671 35.8367 67.472 38.1336 66.1513C38.8856 65.7535 39.4406 65.089 40.1475 64.6269C41.9672 63.3718 44.3092 62.9152 46.468 63.3896C48.5529 63.8572 50.8799 63.2023 52.3291 61.6109C53.9957 59.8172 54.3416 57.1593 56.1709 55.4859C57.0377 54.6615 58.1479 54.1502 59.2799 53.8002C61.8242 52.9812 63.6043 50.3603 63.5455 47.7052C63.5428 46.9191 63.2816 46.1644 63.2324 45.3824C63.0451 43.158 63.834 40.8816 65.342 39.2396C66.7529 37.6879 67.349 35.3992 66.7324 33.3771C66.1432 31.325 64.4547 29.8566 63.6521 27.9084C63.2256 26.9158 63.0902 25.8125 63.1955 24.7406C63.2639 23.8711 63.5687 23.033 63.5441 22.1539C63.5482 19.5084 61.7285 16.9408 59.1814 16.1656C56.7848 15.4205 54.7832 13.5174 53.9492 11.148C53.7045 10.3961 53.39 9.66054 52.9115 9.02617C51.7576 7.43203 49.8162 6.45449 47.8502 6.46132C46.9246 6.43535 46.0414 6.75937 45.1254 6.81269C44.0508 6.90156 42.9488 6.7416 41.9645 6.29453C40.5262 5.67382 39.3668 4.58008 37.9942 3.84179C36.7842 3.16504 35.3514 2.86289 33.9774 3.10625Z" fill="white"/>
<path d="M25.0848 22.2536C26.5873 21.9966 28.1855 22.3452 29.4392 23.2161C31.0498 24.3044 32.056 26.2184 32.0369 28.1639C32.0424 32.5403 32.0355 36.9167 32.0396 41.293C32.0478 42.019 32.0205 42.7559 31.8154 43.4587C31.3137 45.3003 29.8713 46.8561 28.0652 47.4823C26.5121 48.0415 24.7252 47.9143 23.2719 47.1255C21.392 46.1438 20.1232 44.0999 20.1082 41.9753C20.0959 37.4171 20.1055 32.8589 20.1027 28.2993C20.0932 27.4434 20.2436 26.5807 20.5853 25.7932C21.3605 23.9544 23.1119 22.5681 25.0848 22.2536ZM25.4826 25.2341C24.1264 25.4843 23.0709 26.7858 23.1105 28.1653C23.1119 32.7673 23.1023 37.3706 23.1146 41.9725C23.1297 43.5298 24.5584 44.8833 26.1129 44.8231C27.6906 44.8382 29.0865 43.4067 29.0305 41.829C29.0291 37.2284 29.0387 32.6264 29.0264 28.0272C29.0195 26.2649 27.1984 24.828 25.4826 25.2341Z" fill="white"/>
<path d="M46.9473 22.3742C48.0411 22.0748 49.1225 23.2861 48.6877 24.3389C45.7346 31.7723 42.7487 39.1933 39.7833 46.6226C39.5385 47.3924 38.6335 47.8681 37.8678 47.581C37.0626 47.3336 36.6155 46.3451 36.9641 45.5767C39.9145 38.1898 42.8731 30.8057 45.8249 23.4201C45.9958 22.9129 46.4141 22.485 46.9473 22.3742Z" fill="white"/>
<path d="M37.7693 22.453C38.6415 22.0524 39.7613 22.7059 39.8351 23.663C39.8693 24.4751 39.8501 25.2899 39.846 26.1034C39.8447 26.7897 39.3087 27.42 38.6347 27.5417C37.813 27.7276 36.9298 27.085 36.8601 26.2442C36.8246 25.4717 36.8519 24.6965 36.8451 23.9227C36.8122 23.302 37.191 22.6854 37.7693 22.453Z" fill="white"/>
<path d="M46.9519 42.465C47.7859 42.253 48.7005 42.9025 48.7648 43.7624C48.7962 44.5855 48.7826 45.4112 48.7716 46.2343C48.7552 46.9985 48.0703 47.6644 47.306 47.6603C46.5144 47.6972 45.7857 47.0054 45.7802 46.2151C45.7679 45.4386 45.7693 44.662 45.7802 43.8855C45.7816 43.2155 46.2984 42.5989 46.9519 42.465Z" fill="white"/>
<path d="M34.0485 0H34.9112C37.1807 0.0109375 39.4461 0.820312 41.1469 2.33652C41.8469 2.97363 42.6973 3.46582 43.6393 3.62578C45.4453 3.93886 47.2582 3.39199 49.0711 3.54375C50.3139 3.61211 51.517 4.04961 52.5506 4.73457C54.3156 5.77636 55.7307 7.40605 56.4799 9.31738C56.7971 10.2307 57.1457 11.174 57.8594 11.8617C59.2648 13.248 61.2814 13.6705 62.8783 14.7711C63.9256 15.4492 64.7623 16.4254 65.3174 17.5396C66.1951 19.0941 66.6353 20.8988 66.526 22.683C66.4836 23.7836 66.0584 24.8664 66.2771 25.9724C66.5492 27.624 67.7141 28.901 68.5932 30.2613C69.408 31.4767 69.9754 32.8863 70 34.3656V35.0054C69.9631 37.2435 69.1564 39.4693 67.6635 41.1455C67.025 41.8468 66.5287 42.6972 66.3715 43.642C66.0789 45.3127 66.5355 46.9888 66.474 48.6664C66.4549 49.7314 66.2156 50.7978 65.7275 51.748C65.1684 52.7611 64.6133 53.8111 63.7205 54.5767C62.2494 55.9316 60.2383 56.406 58.6086 57.5134C57.6803 58.1259 57.0145 59.0789 56.6822 60.1357C56.0834 61.9527 54.9186 63.5796 53.375 64.713C51.6469 66.0023 49.4594 66.6544 47.3074 66.5259C46.1658 66.474 45.0352 66.0337 43.8895 66.3003C42.0274 66.6777 40.6711 68.116 39.0565 69.006C38.0502 69.5912 36.9127 69.9412 35.7479 70H35.0889C32.8481 69.9863 30.6114 69.1988 28.9188 67.7168C28.2229 67.0851 27.3971 66.5683 26.4633 66.3919C24.6203 66.0351 22.7637 66.6121 20.9098 66.4521C19.6082 66.3824 18.3586 65.8916 17.2881 65.1601C15.4205 64.0254 13.9932 62.2043 13.3151 60.1275C12.9678 59.0091 12.2295 58.022 11.2315 57.4027C9.68519 56.406 7.83539 55.9248 6.42446 54.7066C5.38266 53.848 4.71684 52.6435 4.17953 51.4281C3.63266 50.1265 3.3893 48.6992 3.47407 47.291C3.52055 46.1972 3.94028 45.1213 3.72016 44.022C3.44809 42.3732 2.28598 41.1004 1.41098 39.7414C0.631686 38.5875 0.0848118 37.2599 4.61925e-05 35.8586V35.1914C-0.00678974 32.9533 0.745163 30.7029 2.21489 29.0008C2.77407 28.3719 3.28266 27.6719 3.50961 26.8488C3.92797 25.401 3.62719 23.8889 3.54516 22.4178C3.46176 21.1627 3.5561 19.868 4.06196 18.7017C4.9643 16.7029 6.4641 14.9338 8.43422 13.9248C9.48012 13.3328 10.7571 13.181 11.6553 12.3307C13.162 10.9894 13.5871 8.91816 14.6645 7.28164C15.3508 6.16464 16.3625 5.26367 17.5356 4.68535C19.0983 3.79804 20.9139 3.36191 22.7076 3.47402C23.8014 3.52187 24.8787 3.94023 25.978 3.71875C27.7635 3.41933 29.0979 2.1 30.5949 1.19766C31.6367 0.538671 32.818 0.108008 34.0485 0ZM33.9774 3.10625C33.0723 3.2539 32.2 3.60254 31.444 4.12207C30.9067 4.48027 30.4651 4.95742 29.9428 5.33613C29.0309 6.01972 27.9549 6.50781 26.816 6.64179C24.8897 6.90429 22.9592 6.29453 21.0342 6.60488C19.168 6.88105 17.5014 8.11152 16.6182 9.76855C16.1998 10.5123 16.0399 11.3627 15.6584 12.1228C15.1485 13.218 14.3391 14.1736 13.3205 14.8271C11.7606 15.8662 9.85746 16.3324 8.45063 17.6121C7.07114 18.8398 6.34926 20.7293 6.47504 22.564C6.51059 23.249 6.71977 23.908 6.78539 24.5889C6.92074 25.7455 6.78676 26.9472 6.30278 28.0137C5.5645 29.7418 4.14125 31.0762 3.45219 32.8316C2.71528 34.6267 2.95864 36.7554 4.0059 38.3783C4.40922 39.0441 5.00395 39.5623 5.44282 40.2035C6.07582 41.0812 6.51606 42.1093 6.64321 43.1894C6.92211 45.2908 6.17836 47.4222 6.71567 49.5031C7.21332 51.5785 8.91137 53.256 10.9348 53.8726C12.3621 54.3142 13.7184 55.1209 14.5975 56.3513C15.6557 57.7568 16.1028 59.5095 17.1282 60.9355C17.8623 61.9992 18.9479 62.8291 20.192 63.1982C22.3071 63.8736 24.5123 63.1025 26.6643 63.3418C28.2201 63.4771 29.6379 64.2838 30.759 65.3392C32.699 67.1671 35.8367 67.472 38.1336 66.1513C38.8856 65.7535 39.4406 65.089 40.1475 64.6269C41.9672 63.3718 44.3092 62.9152 46.468 63.3896C48.5529 63.8572 50.8799 63.2023 52.3291 61.6109C53.9957 59.8172 54.3416 57.1593 56.1709 55.4859C57.0377 54.6615 58.1479 54.1502 59.2799 53.8002C61.8242 52.9812 63.6043 50.3603 63.5455 47.7052C63.5428 46.9191 63.2816 46.1644 63.2324 45.3824C63.0451 43.158 63.834 40.8816 65.342 39.2396C66.7529 37.6879 67.349 35.3992 66.7324 33.3771C66.1432 31.325 64.4547 29.8566 63.6521 27.9084C63.2256 26.9158 63.0902 25.8125 63.1955 24.7406C63.2639 23.8711 63.5687 23.033 63.5441 22.1539C63.5482 19.5084 61.7285 16.9408 59.1814 16.1656C56.7848 15.4205 54.7832 13.5174 53.9492 11.148C53.7045 10.3961 53.39 9.66054 52.9115 9.02617C51.7576 7.43203 49.8162 6.45449 47.8502 6.46132C46.9246 6.43535 46.0414 6.75937 45.1254 6.81269C44.0508 6.90156 42.9488 6.7416 41.9645 6.29453C40.5262 5.67382 39.3668 4.58008 37.9942 3.84179C36.7842 3.16504 35.3514 2.86289 33.9774 3.10625Z" stroke="#404040" mask="url(#path-1-inside-1_51_24169)"/>
<path d="M25.0848 22.2536C26.5873 21.9966 28.1855 22.3452 29.4392 23.2161C31.0498 24.3044 32.056 26.2184 32.0369 28.1639C32.0424 32.5403 32.0355 36.9167 32.0396 41.293C32.0478 42.019 32.0205 42.7559 31.8154 43.4587C31.3137 45.3003 29.8713 46.8561 28.0652 47.4823C26.5121 48.0415 24.7252 47.9143 23.2719 47.1255C21.392 46.1438 20.1232 44.0999 20.1082 41.9753C20.0959 37.4171 20.1055 32.8589 20.1027 28.2993C20.0932 27.4434 20.2436 26.5807 20.5853 25.7932C21.3605 23.9544 23.1119 22.5681 25.0848 22.2536ZM25.4826 25.2341C24.1264 25.4843 23.0709 26.7858 23.1105 28.1653C23.1119 32.7673 23.1023 37.3706 23.1146 41.9725C23.1297 43.5298 24.5584 44.8833 26.1129 44.8231C27.6906 44.8382 29.0865 43.4067 29.0305 41.829C29.0291 37.2284 29.0387 32.6264 29.0264 28.0272C29.0195 26.2649 27.1984 24.828 25.4826 25.2341Z" stroke="#404040" mask="url(#path-1-inside-1_51_24169)"/>
<path d="M46.9473 22.3742C48.0411 22.0748 49.1225 23.2861 48.6877 24.3389C45.7346 31.7723 42.7487 39.1933 39.7833 46.6226C39.5385 47.3924 38.6335 47.8681 37.8678 47.581C37.0626 47.3336 36.6155 46.3451 36.9641 45.5767C39.9145 38.1898 42.8731 30.8057 45.8249 23.4201C45.9958 22.9129 46.4141 22.485 46.9473 22.3742Z" stroke="#404040" mask="url(#path-1-inside-1_51_24169)"/>
<path d="M37.7693 22.453C38.6415 22.0524 39.7613 22.7059 39.8351 23.663C39.8693 24.4751 39.8501 25.2899 39.846 26.1034C39.8447 26.7897 39.3087 27.42 38.6347 27.5417C37.813 27.7276 36.9298 27.085 36.8601 26.2442C36.8246 25.4717 36.8519 24.6965 36.8451 23.9227C36.8122 23.302 37.191 22.6854 37.7693 22.453Z" stroke="#404040" mask="url(#path-1-inside-1_51_24169)"/>
<path d="M46.9519 42.465C47.7859 42.253 48.7005 42.9025 48.7648 43.7624C48.7962 44.5855 48.7826 45.4112 48.7716 46.2343C48.7552 46.9985 48.0703 47.6644 47.306 47.6603C46.5144 47.6972 45.7857 47.0054 45.7802 46.2151C45.7679 45.4386 45.7693 44.662 45.7802 43.8855C45.7816 43.2155 46.2984 42.5989 46.9519 42.465Z" stroke="#404040" mask="url(#path-1-inside-1_51_24169)"/>
</svg>
