<svg width="119" height="100" viewBox="0 0 119 100" fill="none" xmlns="http://www.w3.org/2000/svg">
<path d="M1.18314 0.500704L1.18324 0.500875L1.19166 0.495668C1.54888 0.274779 1.98166 0.26493 2.47584 0.253684C2.52566 0.25255 2.5761 0.251402 2.62714 0.250023C4.25545 0.260865 5.87761 0.257982 7.49854 0.255101C9.46618 0.251604 11.432 0.24811 13.4048 0.269175L13.4048 0.269353L13.4143 0.269098C14.2538 0.246416 15.0278 0.971622 15.0628 1.80942L15.0625 1.80944L15.0638 1.82339C15.1526 2.72729 14.3546 3.60152 13.4462 3.58303L13.4462 3.58294L13.4393 3.58298C11.4199 3.59744 9.40446 3.59534 7.38751 3.59324C5.71998 3.5915 4.05141 3.58976 2.37871 3.59737L2.37871 3.59707L2.36652 3.59772C1.73583 3.63138 1.10832 3.45299 0.75357 2.98214L0.74825 2.97508L0.742444 2.96842C0.108031 2.2398 0.340246 0.976875 1.18314 0.500704Z" fill="white" stroke="#171717" stroke-width="0.5"/>
<path d="M20.1126 0.617634L20.119 0.612952L20.125 0.60788C20.4979 0.294578 21.0205 0.25883 21.592 0.253907C36.3326 0.259475 51.0728 0.258321 65.8127 0.257168C82.8205 0.255837 99.8279 0.254506 116.835 0.263501L116.844 0.263506L116.853 0.262839C117.821 0.192293 118.698 1.06477 118.625 2.03123L118.625 2.04063L118.625 2.05006C118.632 15.3167 118.634 28.5857 118.622 41.8546L118.622 41.8631L118.623 41.8716C118.687 42.8246 117.816 43.686 116.861 43.6156L116.852 43.6149L116.842 43.6149C91.8942 43.6231 66.9425 43.6208 41.9917 43.6184C37.8324 43.618 33.6731 43.6176 29.5138 43.6173H29.5033L29.4928 43.6181C28.5974 43.6934 27.7287 42.9729 27.6856 42.0826L27.686 42.0826L27.6846 42.0688C27.5916 41.1743 28.3653 40.3004 29.2582 40.2963L29.2582 40.2964L29.2645 40.2962C30.1634 40.2693 31.0529 40.275 31.9471 40.2808C32.5703 40.2848 33.1957 40.2889 33.8283 40.2819L34.0753 40.2792L34.0755 40.0321C34.0779 36.8658 34.0779 33.6995 34.0755 30.5332L34.0753 30.2839L33.826 30.2834C31.4499 30.2787 29.075 30.281 26.7007 30.2834C23.0777 30.2871 19.4561 30.2908 15.8339 30.269L15.8339 30.269L15.8282 30.269C15.2859 30.2782 14.7981 29.9723 14.5 29.5188C14.2018 29.0652 14.1135 28.4941 14.3333 27.9988L14.3337 27.9989L14.3387 27.9858C14.5927 27.3141 15.3216 26.8942 16.0502 26.945L16.0589 26.9456L16.0676 26.9456C20.0138 26.944 23.9599 26.9446 27.9061 26.9451C29.8792 26.9454 31.8523 26.9456 33.8255 26.9456H34.0754L34.0755 26.6958C34.0791 20.9847 34.0787 15.2722 34.0782 9.56052C34.0781 7.65573 34.0779 5.75102 34.0779 3.84648V3.59662L33.8281 3.59648C31.0511 3.59488 28.274 3.59541 25.497 3.59595C24.1086 3.59621 22.7202 3.59648 21.3318 3.59648V3.59624L21.321 3.59671C20.7185 3.6228 20.1198 3.39073 19.7993 2.91721L19.7947 2.91044L19.7897 2.90398C19.2604 2.22252 19.4179 1.13023 20.1126 0.617634ZM37.6669 3.59648L37.417 3.5965V3.84648V3.91714V3.98781V4.05847V4.12914V4.19981V4.27047V4.34114V4.4118V4.48247V4.55313V4.6238V4.69447V4.76513V4.8358V4.90646V4.97713V5.0478V5.11846V5.18913V5.25979V5.33046V5.40113V5.47179V5.54246V5.61313V5.68379V5.75446V5.82513V5.89579V5.96646V6.03713V6.10779V6.17846V6.24913V6.3198V6.39046V6.46113V6.5318V6.60246V6.67313V6.7438V6.81447V6.88513V6.9558V7.02647V7.09714V7.1678V7.23847V7.30914V7.37981V7.45048V7.52114V7.59181V7.66248V7.73315V7.80382V7.87448V7.94515V8.01582V8.08649V8.15716V8.22783V8.2985V8.36916V8.43983V8.5105V8.58117V8.65184V8.72251V8.79318V8.86384V8.93451V9.00518V9.07585V9.14652V9.21719V9.28786V9.35853V9.4292V9.49987V9.57054V9.6412V9.71187V9.78254V9.85321V9.92388V9.99455V10.0652V10.1359V10.2066V10.2772V10.3479V10.4186V10.4892V10.5599V10.6306V10.7013V10.7719V10.8426V10.9133V10.9839V11.0546V11.1253V11.1959V11.2666V11.3373V11.408V11.4786V11.5493V11.62V11.6906V11.7613V11.832V11.9026V11.9733V12.044V12.1147V12.1853V12.256V12.3267V12.3973V12.468V12.5387V12.6094V12.68V12.7507V12.8214V12.892V12.9627V13.0334V13.1041V13.1747V13.2454V13.3161V13.3867V13.4574V13.5281V13.5988V13.6694V13.7401V13.8108V13.8814V13.9521V14.0228V14.0935V14.1641V14.2348V14.3055V14.3762V14.4468V14.5175V14.5882V14.6588V14.7295V14.8002V14.8709V14.9415V15.0122V15.0829V15.1536V15.2242V15.2949V15.3656V15.4362V15.5069V15.5776V15.6483V15.7189V15.7896V15.8603V15.931V16.0016V16.0723V16.143V16.2136V16.2843V16.355V16.4257V16.4963V16.567V16.6377V16.7084V16.779V16.8497V16.9204V16.9911V17.0617V17.1324V17.2031V17.2737V17.3444V17.4151V17.4858V17.5564V17.6271V17.6978V17.7685V17.8391V17.9098V17.9805V18.0512V18.1218V18.1925V18.2632V18.3339V18.4045V18.4752V18.5459V18.6166V18.6872V18.7579V18.8286V18.8993V18.9699V19.0406V19.1113V19.182V19.2526V19.3233V19.394V19.4647V19.5353V19.606V19.6767V19.7474V19.818V19.8887V19.9594V20.0301V20.1007V20.1714V20.2421V20.3127V20.3834V20.4541V20.5248V20.5955V20.6661V20.7368V20.8075V20.8782V20.9488V21.0195V21.0902V21.1609V21.2315V21.3022V21.3729V21.4436V21.5142V21.5849V21.6556V21.7263V21.7969V21.8676V21.9383V22.009V22.0796V22.1503V22.221V22.2917V22.3623V22.433V22.5037V22.5744V22.645V22.7157V22.7864V22.8571V22.9277V22.9984V23.0691V23.1398V23.2105V23.2811V23.3518V23.4225V23.4932V23.5638V23.6345V23.7052V23.7759V23.8465V23.9172V23.9879V24.0586V24.1292V24.1999V24.2706V24.3413V24.412V24.4826V24.5533V24.624V24.6947V24.7653V24.836V24.9067V24.9774V25.048V25.1187V25.1894V25.2601V25.3308V25.4014V25.4721V25.5428V25.6135V25.6841V25.7548V25.8255V25.8962V25.9668V26.0375V26.1082V26.1789V26.2496V26.3202V26.3909V26.4616V26.5323V26.6029V26.6736V26.7443V26.815V26.8857V26.9563V27.027V27.0977V27.1684V27.239V27.3097V27.3804V27.4511V27.5218V27.5924V27.6631V27.7338V27.8045V27.8751V27.9458V28.0165V28.0872V28.1579V28.2285V28.2992V28.3699V28.4406V28.5112V28.5819V28.6526V28.7233V28.794V28.8646V28.9353V29.006V29.0767V29.1473V29.218V29.2887V29.3594V29.4301V29.5007V29.5714V29.6421V29.7128V29.7834V29.8541V29.9248V29.9955V30.0662V30.1368V30.2075V30.2782V30.3489V30.4195V30.4902V30.5609V30.6316V30.7023V30.7729V30.8436V30.9143V30.985V31.0557V31.1263V31.197V31.2677V31.3384V31.409V31.4797V31.5504V31.6211V31.6918V31.7624V31.8331V31.9038V31.9745V32.0452V32.1158V32.1865V32.2572V32.3279V32.3985V32.4692V32.5399V32.6106V32.6813V32.7519V32.8226V32.8933V32.964V33.0347V33.1053V33.176V33.2467V33.3174V33.3881V33.4587V33.5294V33.6001V33.6708V33.7414V33.8121V33.8828V33.9535V34.0242V34.0948V34.1655V34.2362V34.3069V34.3776V34.4482V34.5189V34.5896V34.6603V34.731V34.8016V34.8723V34.943V35.0137V35.0843V35.155V35.2257V35.2964V35.3671V35.4377V35.5084V35.5791V35.6498V35.7205V35.7911V35.8618V35.9325V36.0032V36.0739V36.1445V36.2152V36.2859V36.3566V36.4272V36.4979V36.5686V36.6393V36.71V36.7806V36.8513V36.922V36.9927V37.0634V37.134V37.2047V37.2754V37.3461V37.4168V37.4874V37.5581V37.6288V37.6995V37.7702V37.8408V37.9115V37.9822V38.0529V38.1236V38.1942V38.2649V38.3356V38.4063V38.4769V38.5476V38.6183V38.689V38.7597V38.8303V38.901V38.9717V39.0424V39.1131V39.1837V39.2544V39.3251V39.3958V39.4665V39.5371V39.6078V39.6785V39.7492V39.8199V39.8905V39.9612V40.0319V40.2819H37.667H37.8181H37.9692H38.1203H38.2714H38.4226H38.5737H38.7248H38.8759H39.027H39.1782H39.3293H39.4804H39.6315H39.7826H39.9338H40.0849H40.236H40.3871H40.5382H40.6894H40.8405H40.9916H41.1427H41.2938H41.445H41.5961H41.7472H41.8983H42.0494H42.2006H42.3517H42.5028H42.6539H42.805H42.9562H43.1073H43.2584H43.4095H43.5607H43.7118H43.8629H44.014H44.1651H44.3163H44.4674H44.6185H44.7696H44.9207H45.0719H45.223H45.3741H45.5252H45.6763H45.8275H45.9786H46.1297H46.2808H46.4319H46.5831H46.7342H46.8853H47.0364H47.1875H47.3387H47.4898H47.6409H47.792H47.9431H48.0942H48.2454H48.3965H48.5476H48.6987H48.8498H49.001H49.1521H49.3032H49.4543H49.6054H49.7566H49.9077H50.0588H50.2099H50.361H50.5122H50.6633H50.8144H50.9655H51.1166H51.2678H51.4189H51.57H51.7211H51.8722H52.0234H52.1745H52.3256H52.4767H52.6278H52.779H52.9301H53.0812H53.2323H53.3834H53.5346H53.6857H53.8368H53.9879H54.139H54.2902H54.4413H54.5924H54.7435H54.8946H55.0458H55.1969H55.348H55.4991H55.6502H55.8014H55.9525H56.1036H56.2547H56.4058H56.557H56.7081H56.8592H57.0103H57.1614H57.3125H57.4637H57.6148H57.7659H57.917H58.0681H58.2193H58.3704H58.5215H58.6726H58.8237H58.9749H59.126H59.2771H59.4282H59.5793H59.7305H59.8816H60.0327H60.1838H60.3349H60.486H60.6372H60.7883H60.9394H61.0905H61.2416H61.3928H61.5439H61.695H61.8461H61.9972H62.1484H62.2995H62.4506H62.6017H62.7528H62.9039H63.0551H63.2062H63.3573H63.5084H63.6595H63.8107H63.9618H64.1129H64.264H64.4151H64.5663H64.7174H64.8685H65.0196H65.1707H65.3218H65.473H65.6241H65.7752H65.9263H66.0774H66.2286H66.3797H66.5308H66.6819H66.833H66.9841H67.1353H67.2864H67.4375H67.5886H67.7397H67.8909H68.042H68.1931H68.3442H68.4953H68.6464H68.7976H68.9487H69.0998H69.2509H69.402H69.5532H69.7043H69.8554H70.0065H70.1576H70.3087H70.4599H70.611H70.7621H70.9132H71.0643H71.2155H71.3666H71.5177H71.6688H71.8199H71.971H72.1222H72.2733H72.4244H72.5755H72.7266H72.8777H73.0289H73.18H73.3311H73.4822H73.6333H73.7844H73.9356H74.0867H74.2378H74.3889H74.54H74.6911H74.8423H74.9934H75.1445H75.2956H75.4467H75.5978H75.749H75.9001H76.0512H76.2023H76.3534H76.5045H76.6557H76.8068H76.9579H77.109H77.2601H77.4112H77.5624H77.7135H77.8646H78.0157H78.1668H78.3179H78.4691H78.6202H78.7713H78.9224H79.0735H79.2246H79.3758H79.5269H79.678H79.8291H79.9802H80.1313H80.2825H80.4336H80.5847H80.7358H80.8869H81.038H81.1891H81.3403H81.4914H81.6425H81.7936H81.9447H82.0958H82.247H82.3981H82.5492H82.7003H82.8514H83.0025H83.1536H83.3048H83.4559H83.607H83.7581H83.9092H84.0603H84.2115H84.3626H84.5137H84.6648H84.8159H84.967H85.1181H85.2693H85.4204H85.5715H85.7226H85.8737H86.0248H86.1759H86.3271H86.4782H86.6293H86.7804H86.9315H87.0826H87.2337H87.3849H87.536H87.6871H87.8382H87.9893H88.1404H88.2915H88.4427H88.5938H88.7449H88.896H89.0471H89.1982H89.3493H89.5005H89.6516H89.8027H89.9538H90.1049H90.256H90.4072H90.5583H90.7094H90.8605H91.0116H91.1627H91.3138H91.4649H91.6161H91.7672H91.9183H92.0694H92.2205H92.3716H92.5227H92.6738H92.825H92.9761H93.1272H93.2783H93.4294H93.5805H93.7316H93.8828H94.0339H94.185H94.3361H94.4872H94.6383H94.7894H94.9405H95.0917H95.2428H95.3939H95.545H95.6961H95.8472H95.9983H96.1494H96.3006H96.4517H96.6028H96.7539H96.905H97.0561H97.2072H97.3583H97.5094H97.6606H97.8117H97.9628H98.1139H98.265H98.4161H98.5672H98.7183H98.8694H99.0206H99.1717H99.3228H99.4739H99.625H99.7761H99.9272H100.078H100.229H100.381H100.532H100.683H100.834H100.985H101.136H101.287H101.438H101.589H101.741H101.892H102.043H102.194H102.345H102.496H102.647H102.798H102.949H103.101H103.252H103.403H103.554H103.705H103.856H104.007H104.158H104.309H104.461H104.612H104.763H104.914H105.065H105.216H105.367H105.518H105.669H105.821H105.972H106.123H106.274H106.425H106.576H106.727H106.878H107.029H107.181H107.332H107.483H107.634H107.785H107.936H108.087H108.238H108.389H108.54H108.692H108.843H108.994H109.145H109.296H109.447H109.598H109.749H109.9H110.052H110.203H110.354H110.505H110.656H110.807H110.958H111.109H111.26H111.412H111.563H111.714H111.865H112.016H112.167H112.318H112.469H112.62H112.771H112.923H113.074H113.225H113.376H113.527H113.678H113.829H113.98H114.131H114.283H114.434H114.585H114.736H114.887H115.038H115.288L115.288 40.0319C115.29 27.9693 115.29 15.9067 115.29 3.84648V3.5965L115.041 3.59648C89.2493 3.59408 63.4581 3.59408 37.6669 3.59648Z" fill="white" stroke="#171717" stroke-width="0.5"/>
<path d="M105.352 7.18393L105.361 7.18393L105.369 7.18336C106.208 7.12644 107.04 7.75384 107.119 8.57918L107.119 8.57919L107.12 8.58552L107.12 8.58728C107.218 9.39609 107.338 10.3824 108.039 11.0648C108.701 11.8467 109.736 12.0028 110.581 12.1064L110.583 12.1066C111.355 12.197 111.945 12.9844 111.91 13.7755L111.909 13.7754L111.909 13.7873C111.921 19.2149 111.919 24.645 111.909 30.0729H111.909L111.91 30.0864C111.952 30.8897 111.348 31.6881 110.565 31.7749C109.656 31.8727 108.569 32.08 107.917 32.9517C107.575 33.3187 107.406 33.7547 107.302 34.1882C107.25 34.4068 107.214 34.6287 107.181 34.8431C107.173 34.8954 107.166 34.947 107.158 34.998C107.134 35.1588 107.112 35.3139 107.084 35.4668C106.936 36.211 106.153 36.7375 105.377 36.691L105.369 36.6905L105.362 36.6905C96.3316 36.6951 87.3007 36.6942 78.2695 36.6934C68.3359 36.6924 58.4019 36.6914 48.4681 36.6977C48.2988 36.6931 48.1227 36.6959 47.9509 36.6986C47.9005 36.6994 47.8504 36.7002 47.801 36.7007C47.5779 36.7034 47.3623 36.7023 47.1549 36.6832C46.7413 36.645 46.3846 36.5372 46.1008 36.2676L46.095 36.262L46.0888 36.2569C45.7181 35.9475 45.6144 35.5143 45.5357 34.9742C45.5274 34.9173 45.5194 34.8588 45.5112 34.7992C45.4464 34.3263 45.3715 33.7789 45.056 33.3268C44.4704 32.2861 43.3068 31.8507 42.2315 31.793C41.4238 31.7394 40.766 30.9544 40.8013 30.1393L40.8016 30.1393L40.8015 30.1277C40.7848 24.681 40.7872 19.2319 40.7991 13.7849L40.7992 13.7774L40.7987 13.77C40.7507 12.9357 41.4213 12.1265 42.2488 12.084L42.2488 12.0842L42.259 12.0832C43.1256 12.0029 44.1111 11.7637 44.7348 10.987C45.3537 10.3393 45.4769 9.44343 45.5807 8.68898C45.5881 8.63535 45.5953 8.58244 45.6027 8.53038L45.6028 8.5304L45.6036 8.52304C45.6756 7.87508 46.2511 7.32157 46.9064 7.22198C50.3423 7.15996 53.7782 7.16928 57.2173 7.17861C59.3388 7.18436 61.4616 7.19012 63.5864 7.17913C68.6487 7.18 73.7113 7.17961 78.7739 7.17921C87.6334 7.17852 96.4932 7.17782 105.352 7.18393ZM48.8725 10.5217L48.6881 10.5218L48.6338 10.6981C48.0016 12.7491 46.3779 14.4569 44.3254 15.1001L44.1512 15.1547L44.1502 15.3373C44.1262 19.7412 44.1094 24.1492 44.1574 28.5529L44.1594 28.7364L44.335 28.7895C46.3886 29.4109 47.9987 31.1331 48.6315 33.1767L48.6859 33.3527L48.8701 33.3528C58.5694 33.3578 68.2686 33.3569 77.9674 33.3559C86.5889 33.355 95.2102 33.3542 103.831 33.3576L104.016 33.3576L104.07 33.1801C104.699 31.1069 106.352 29.422 108.41 28.7445L108.583 28.6878L108.582 28.5063C108.574 25.3214 108.575 22.1354 108.576 18.9495C108.577 17.7546 108.577 16.5598 108.577 15.365V15.1839L108.405 15.1275C106.347 14.4525 104.699 12.7655 104.068 10.694L104.014 10.5169L103.829 10.5169C95.9785 10.519 88.128 10.5184 80.2771 10.5178C69.8092 10.517 59.3408 10.5162 48.8725 10.5217Z" fill="#FF7028" stroke="#171717" stroke-width="0.5"/>
<path d="M74.4847 14.5573L74.6263 14.4957L74.6346 14.3416C74.6849 13.4074 75.3769 12.5544 76.2936 12.5585L76.3023 12.5585L76.3111 12.5579C77.2635 12.4955 78.0078 13.373 78.0873 14.3413L78.1003 14.5003L78.2499 14.5555C79.7906 15.1235 81.1264 16.3506 81.5762 17.9238C81.7175 18.4871 81.4881 19.0628 81.0588 19.4553C80.6286 19.8485 80.0329 20.0257 79.4822 19.8321L79.4658 19.8264L79.4489 19.8229C78.9745 19.7269 78.7221 19.3612 78.4105 18.8793C78.403 18.8676 78.3954 18.8559 78.3878 18.8441C78.1022 18.4017 77.7526 17.86 77.0739 17.7119C76.6422 17.5945 76.0974 17.5802 75.6181 17.7223C75.1332 17.8661 74.6794 18.1843 74.5273 18.7538L74.5226 18.7713L74.5205 18.7892C74.4943 19.0131 74.5416 19.2095 74.6444 19.3753C74.7442 19.5362 74.8879 19.6549 75.0357 19.7445C75.2972 19.9029 75.6212 19.9977 75.8562 20.0664C75.8805 20.0735 75.9039 20.0804 75.9261 20.087L75.9348 20.0895L75.9436 20.0915C76.0869 20.123 76.2305 20.1539 76.3739 20.1847C77.8847 20.5097 79.3788 20.8311 80.4934 21.8411L80.4933 21.8412L80.498 21.8452C82.0922 23.2194 82.431 25.8759 81.131 27.5443L81.1287 27.5473C80.4354 28.4655 79.3634 29.0039 78.2448 29.3799L78.09 29.4319L78.0754 29.5945C77.9902 30.5453 77.2289 31.3862 76.2938 31.3176L76.2852 31.3169L76.2766 31.3169C75.38 31.3129 74.7084 30.4818 74.6292 29.5665L74.615 29.4027L74.459 29.3508C72.6261 28.7415 71.0295 27.2205 70.7801 25.2938C70.7167 24.7062 71.0337 24.1646 71.5247 23.8392C72.0164 23.5133 72.642 23.4314 73.1608 23.717L73.1744 23.7245L73.189 23.7303C73.5199 23.8619 73.7144 24.1228 73.8944 24.4714C73.949 24.577 73.9954 24.6761 74.0439 24.7798C74.0806 24.8581 74.1185 24.939 74.162 25.0273C74.2562 25.2182 74.3646 25.416 74.5059 25.5939L74.5215 25.6136L74.5407 25.6298C75.6997 26.6047 77.4522 26.3615 78.5602 25.5358L78.6738 25.4511L78.6595 25.3102C78.6194 24.9127 78.4686 24.6022 78.24 24.3629C78.0156 24.1279 77.728 23.9737 77.4304 23.8637C77.1331 23.7538 76.811 23.6828 76.5082 23.6234C76.4289 23.6078 76.3515 23.5931 76.2759 23.5788C76.0559 23.5371 75.8522 23.4984 75.6665 23.4503L75.659 23.4483L75.6514 23.4469C74.248 23.1742 72.8631 22.5791 72.0065 21.4653C70.8355 19.9356 70.9305 17.6008 72.1807 16.1358L72.1809 16.136L72.187 16.1282C72.7585 15.4022 73.5997 14.9426 74.4847 14.5573Z" fill="white" stroke="#171717" stroke-width="0.5"/>
<path d="M28.3112 13.616L28.3112 13.6163L28.3235 13.6157C28.8181 13.5935 29.2822 13.8382 29.596 14.2258C29.9099 14.6135 30.0552 15.1222 29.9384 15.6023L29.9381 15.6022L29.9355 15.6162C29.7842 16.4376 28.9419 17.0129 28.0947 16.9449L28.0845 16.9441L28.0744 16.9441C23.9598 16.9493 19.8453 16.9483 15.7306 16.9473C14.0844 16.9469 12.4381 16.9465 10.7918 16.9465H10.7835L10.7752 16.9471C10.0251 16.9969 9.26835 16.624 8.98783 15.9514L8.98811 15.9513L8.98283 15.9402C8.57614 15.0858 9.08325 13.9491 9.98956 13.6886C10.2634 13.6164 10.5463 13.6112 10.8618 13.6053C10.9198 13.6042 10.9789 13.6031 11.0393 13.6016C13.8632 13.6121 16.6741 13.6101 19.4844 13.608C22.4227 13.6058 25.3602 13.6037 28.3112 13.616Z" fill="white" stroke="#171717" stroke-width="0.5"/>
<path d="M7.89827 26.9682L7.89849 26.9682C8.80469 27.007 9.53662 27.9638 9.36697 28.8595L9.36663 28.8594L9.36485 28.8725C9.25768 29.6658 8.49977 30.2956 7.69555 30.2727L7.69556 30.2726L7.68585 30.2727C5.84054 30.2918 3.99237 30.287 2.14314 30.275L2.13454 30.275L2.12596 30.2755C1.22481 30.3317 0.374136 29.5593 0.376191 28.6595L0.376423 28.6595L0.375984 28.6487C0.349164 27.9908 0.764707 27.3413 1.37292 27.0826C1.62794 26.9873 1.90275 26.9528 2.19938 26.9425C2.34851 26.9373 2.49966 26.9383 2.65569 26.9398C2.66769 26.9399 2.67973 26.94 2.6918 26.9402C2.83307 26.9416 2.97862 26.943 3.12304 26.9397C3.80894 26.9541 4.49538 26.9486 5.1775 26.9432C5.29135 26.9423 5.40508 26.9414 5.51866 26.9406C6.3164 26.9349 7.10862 26.9337 7.89827 26.9682Z" fill="white" stroke="#171717" stroke-width="0.5"/>
<path d="M22.518 40.7002L22.5236 40.7053L22.5294 40.7102C23.2668 41.3239 23.2568 42.5984 22.5126 43.2022L22.5053 43.2082L22.4984 43.2146C22.1009 43.5901 21.5132 43.6261 20.8791 43.6237C19.3972 43.6155 17.9148 43.6176 16.4332 43.6196L16.3092 43.6198C14.7859 43.6219 13.2633 43.6237 11.7409 43.6141L11.733 43.614L11.7251 43.6145C10.9247 43.6603 10.1445 43.0644 10.0088 42.2792L10.0092 42.2791L10.006 42.2656C9.81799 41.4502 10.3777 40.5488 11.1877 40.3491C12.9792 40.2507 14.7641 40.2653 16.5582 40.2799C17.7457 40.2896 18.9373 40.2993 20.1376 40.2764C20.3127 40.2816 20.4946 40.2786 20.6719 40.2756C20.7168 40.2749 20.7615 40.2741 20.8057 40.2735C21.0302 40.2705 21.2472 40.2708 21.4562 40.2891C21.8731 40.3257 22.2325 40.4316 22.518 40.7002Z" fill="white" stroke="#171717" stroke-width="0.5"/>
<path d="M32.5444 55.3382L32.5455 55.3376C32.9535 55.1048 33.3619 54.8667 33.7721 54.6276C36.0476 53.3012 38.3781 51.9428 40.9827 51.2711C43.0374 50.7296 45.2557 50.777 47.2653 51.5223C48.7055 52.0195 50.1406 52.5318 51.5748 53.0438C57.1519 55.0348 62.7177 57.0218 68.5335 58.0981C70.5225 58.4301 72.2619 60.1403 72.4177 62.2016L72.4177 62.2017C72.5387 63.8145 71.7714 65.6024 70.249 66.3724L70.2466 66.3737C69.0549 66.9604 67.6709 66.9771 66.4304 66.6981C66.4301 66.698 66.4297 66.698 66.4294 66.6979L66.4842 66.454C63.6172 65.8347 60.7952 65.0362 57.9732 64.2376C56.2372 63.7464 54.5013 63.2552 52.7549 62.8057L32.5444 55.3382ZM32.5444 55.3382C30.9656 56.2506 29.3886 57.1647 27.8119 58.0787C24.8442 59.799 21.8775 61.5188 18.9021 63.2244L18.6874 63.3476L18.8084 63.5635C21.0294 67.5273 23.2706 71.4804 25.5118 75.4334C26.8444 77.7839 28.177 80.1343 29.5053 82.4869L29.6272 82.7028L29.8441 82.5826C30.5441 82.1949 31.2348 81.7914 31.9226 81.3896L32.0571 81.311C32.7903 80.8827 33.521 80.4575 34.2625 80.0529L34.2626 80.0531L34.2716 80.0476C34.5335 79.89 34.8254 79.8539 35.1474 79.8839C35.4305 79.9102 35.716 79.9848 36.0115 80.062C36.0589 80.0744 36.1067 80.0869 36.1547 80.0992C40.2803 81.2033 44.4061 82.3093 48.532 83.4153C53.6912 84.7983 58.8504 86.1814 64.0093 87.5606C67.4206 88.5016 71.1947 88.009 74.2051 86.1241C81.9478 81.375 89.6811 76.6105 97.4141 71.8463C102.394 68.7783 107.373 65.7105 112.355 62.6469L112.356 62.6464C112.467 62.5773 112.584 62.5074 112.703 62.4361C113.009 62.2523 113.332 62.0588 113.626 61.8432C114.041 61.5399 114.427 61.175 114.691 60.6839C115.824 58.6811 115.678 55.7932 113.861 54.1759L113.859 54.1743C112.48 52.9693 110.524 52.9059 108.883 53.1658L108.881 53.1662C105.986 53.6515 103.344 55.0125 100.876 56.4663C97.7171 58.3075 94.557 60.147 91.3968 61.9865C87.625 64.1821 83.853 66.3777 80.0829 68.5767L80.0822 68.5771C77.9127 69.8518 75.4566 70.6533 72.9444 70.764L72.9406 70.7642C70.8696 70.887 68.8186 70.5226 66.7534 70.1557C66.5564 70.1207 66.3594 70.0857 66.1622 70.0511C63.0281 69.3909 59.9539 68.5224 56.8711 67.6516C55.4033 67.237 53.9335 66.8218 52.4544 66.4283L52.447 66.4263L52.4394 66.4248C51.6601 66.268 50.9523 65.803 50.8122 65.0687L50.8102 65.0583L50.8073 65.0481C50.6579 64.5151 50.8445 63.9512 51.2271 63.5458C51.6089 63.1413 52.1567 62.9252 52.6956 63.0486L32.5444 55.3382ZM38.8046 48.445L38.8065 48.4443C40.9025 47.7269 43.1387 47.3868 45.3298 47.6524L45.3332 47.6528C46.8382 47.8142 48.2627 48.32 49.7119 48.8345C50.0364 48.9497 50.3621 49.0654 50.6903 49.1777C51.1199 49.332 51.5497 49.4867 51.9798 49.6416C57.6746 51.6923 63.4164 53.76 69.4054 54.8792C72.9242 55.5651 75.7507 58.8857 75.7622 62.4803L75.7624 62.4868C75.8062 63.9938 75.3074 65.4721 74.5698 66.8055L74.2828 67.3243L74.8546 67.1676C76.0438 66.8419 77.2049 66.393 78.2766 65.7605C81.7991 63.7137 85.3181 61.664 88.8372 59.6142C92.5905 57.428 96.3439 55.2417 100.102 53.0588C103.138 51.3357 106.424 49.8841 109.914 49.7119L109.915 49.7118C112.415 49.5713 115.016 50.4324 116.695 52.2991L116.696 52.2997C119.458 55.3492 119.408 60.4756 116.705 63.5522L116.704 63.554C116.06 64.3012 115.214 64.8158 114.339 65.3477C114.223 65.4179 114.107 65.4884 113.991 65.5598L113.991 65.5599C101.42 73.3026 88.8476 81.0429 76.2724 88.7784L76.2709 88.7793C74.1518 90.1039 71.7717 91.0308 69.2898 91.2876L69.2871 91.2879C67.0872 91.5401 64.8503 91.2696 62.712 90.6765L62.7099 90.6759C59.921 89.9281 57.1321 89.1807 54.3433 88.4334C48.0172 86.7381 41.6919 85.0431 35.3689 83.3434L35.2698 83.3168L35.1805 83.3675C34.3575 83.8349 33.538 84.3091 32.7195 84.7828C32.3107 85.0193 31.9023 85.2557 31.4937 85.491L31.2835 85.6121L31.3983 85.8259C31.6634 86.3195 31.9452 86.8061 32.2248 87.2888C32.3069 87.4306 32.3889 87.5722 32.4702 87.7134C32.829 88.3369 33.1766 88.9588 33.4814 89.5998C34.4298 91.7174 33.5393 94.447 31.5319 95.6061C29.395 96.8384 27.2501 98.0626 25.0865 99.2435C22.9007 100.398 19.9315 99.4885 18.7442 97.3238L18.7424 97.3206C14.3432 89.5742 9.95719 81.8214 5.57061 74.0676C4.00941 71.308 2.44815 68.5483 0.886201 65.7888L0.886283 65.7887L0.882748 65.7828C-0.406652 63.6436 0.345521 60.5756 2.49378 59.2964C4.6227 58.0693 6.76376 56.8589 8.91224 55.6604C10.7204 54.6593 13.1562 55.0427 14.5983 56.5185C15.0832 57.0429 15.4629 57.6494 15.8213 58.2908C15.9415 58.5061 16.0606 58.7277 16.1808 58.9514C16.4138 59.385 16.6509 59.8263 16.9087 60.2435L17.0359 60.4495L17.2459 60.3288C20.0285 58.7296 22.8057 57.1203 25.5827 55.5112C27.4079 54.4535 29.2329 53.396 31.0594 52.3414C31.3582 52.1694 31.6563 51.9964 31.9541 51.8235C34.1763 50.5337 36.3872 49.2505 38.8046 48.445ZM10.5607 58.5821L10.5607 58.582L10.5581 58.5834C9.47541 59.151 8.40174 59.7657 7.33302 60.3776C6.52029 60.8429 5.71043 61.3065 4.90166 61.7466L4.90156 61.7464L4.89273 61.7517C4.84255 61.7817 4.78759 61.8133 4.72986 61.8464C4.55898 61.9444 4.36382 62.0564 4.19639 62.185C3.96587 62.3622 3.75049 62.5961 3.65736 62.9314C3.54008 63.2586 3.58083 63.572 3.67354 63.848C3.75479 64.0899 3.88309 64.3218 3.99211 64.5187C4.00568 64.5433 4.01896 64.5673 4.0318 64.5907L4.03178 64.5907L4.03359 64.5939C7.21622 70.1942 10.3876 75.7992 13.5593 81.4047C16.2207 86.1082 18.8822 90.8121 21.5507 95.5139C21.9292 96.3409 23.0183 96.682 23.7919 96.155C24.0454 96.0129 24.2989 95.8708 24.5526 95.7287C26.2833 94.7591 28.0173 93.7876 29.7349 92.7872C30.549 92.369 30.7328 91.2899 30.247 90.5807C24.3575 80.1671 18.4632 69.756 12.5641 59.3449C12.2336 58.6442 11.3366 58.1868 10.5607 58.5821Z" fill="white" stroke="#171717" stroke-width="0.5"/>
<path d="M9.3051 63.5407L9.31571 63.5361L9.32586 63.5305C9.92463 63.2013 10.6395 63.2942 11.201 63.6631C11.7627 64.0321 12.1325 64.6518 12.0706 65.3299L12.0696 65.3411L12.0696 65.3523C12.0685 66.0607 11.61 66.6543 10.9832 66.9574C10.3566 67.2605 9.60886 67.2507 9.05436 66.8076L9.0449 66.8L9.03474 66.7934C8.46955 66.4253 8.21294 65.757 8.26814 65.0915C8.32334 64.426 8.68644 63.8097 9.3051 63.5407Z" fill="white" stroke="#171717" stroke-width="0.5"/>
</svg>
