<svg width="113" height="100" viewBox="0 0 113 100" fill="none" xmlns="http://www.w3.org/2000/svg">
<path d="M3.39935 4.2901L3.39938 4.29011L3.40286 4.28617C5.53415 1.87218 8.71654 0.455304 11.9147 0.504376L11.9147 0.504436L11.9224 0.504435C28.6544 0.501884 45.3869 0.502248 62.1194 0.502613C74.6685 0.502886 87.2177 0.503159 99.7665 0.502205L99.7683 0.502199C99.8289 0.501983 99.8894 0.501737 99.9498 0.501492C101.153 0.496605 102.302 0.491938 103.415 0.727927L103.415 0.727989L103.422 0.729514C105.691 1.17306 107.807 2.36472 109.394 4.06642L109.397 4.06942C111.283 6.05757 112.383 8.76256 112.5 11.5214V31.1906C112.353 32.1321 111.496 32.88 110.596 32.8282L110.585 32.8275L110.573 32.8274C109.65 32.8171 108.805 31.9696 108.803 31.0274L108.803 31.0254C108.785 27.7956 108.788 24.565 108.791 21.3324V21.3315V21.3257C108.794 18.0953 108.798 14.8629 108.779 11.6307L108.779 11.6268C108.724 7.67676 105.232 4.22379 101.311 4.26996C71.4337 4.26103 41.5567 4.26103 11.6774 4.26996C7.84936 4.23533 4.4053 7.53051 4.23237 11.3903L4.23201 11.3983L4.23191 11.4063C4.19787 14.0611 4.20297 16.7208 4.20807 19.376C4.2109 20.8554 4.21374 22.3334 4.2098 23.8084L4.20846 24.3096L4.70968 24.3097C14.5465 24.312 24.3811 24.312 34.2157 24.3097V24.3099L34.2289 24.3095C36.0307 24.2614 37.8258 24.4384 39.448 25.1149L39.4479 25.1151L39.4594 25.1196C43.5285 26.6996 46.4601 30.8727 46.5649 35.2912C46.5924 38.0249 46.588 40.7537 46.5836 43.4862C46.5806 45.356 46.5775 47.2275 46.5847 49.1035L46.5847 49.1058C46.5957 50.3999 46.5333 51.6693 46.2091 52.8708L46.2091 52.8708L46.2071 52.8786C45.4255 55.9721 43.278 58.6742 40.4719 60.1284L40.4691 60.1299C38.8215 60.9971 36.9548 61.4178 35.0864 61.4049H35.0827C30.0211 61.4071 24.9595 61.4066 19.8975 61.406H19.8972C14.8352 61.4054 9.77266 61.4049 4.70958 61.4071L4.21042 61.4073L4.2098 61.9065C4.20759 63.6812 4.20814 65.4554 4.20869 67.2291V67.2297V67.23C4.20925 69.0039 4.2098 70.7774 4.20759 72.5513L4.20759 72.5531C4.20789 72.6836 4.2072 72.8167 4.2065 72.952C4.20223 73.7796 4.19755 74.6881 4.41529 75.5647C4.96769 78.0062 6.79228 80.0879 9.11311 80.9578C10.2438 81.4104 11.4552 81.4804 12.5813 81.4558C23.2437 81.4513 33.9083 81.4513 44.5708 81.4536L44.5896 81.4536L44.6083 81.4522C45.6058 81.3774 46.5691 82.2437 46.5759 83.256L46.576 83.2698L46.5769 83.2836C46.6418 84.3292 45.6665 85.281 44.639 85.2135L44.6226 85.2124L44.606 85.2124C33.7101 85.2169 22.8142 85.2146 11.9181 85.2123L11.9109 85.2124C8.71186 85.2573 5.52971 83.8443 3.40113 81.4267L3.39738 81.4225C1.63409 79.4645 0.612381 76.8581 0.5 74.2066V11.5276C0.608068 8.86722 1.62985 6.25226 3.39935 4.2901ZM4.75846 28.0752L4.25847 28.0751L4.25835 28.5751C4.25614 38.0973 4.25614 47.6195 4.25835 57.1417L4.25847 57.6415L4.75824 57.6416C6.21697 57.6419 7.67567 57.6423 9.13435 57.6426C17.8623 57.6448 26.5895 57.647 35.3183 57.6394C37.6918 57.6485 40.0203 56.45 41.4093 54.5064C42.4099 53.1437 42.9092 51.4481 42.8749 49.7697C42.869 47.9205 42.8722 46.068 42.8753 44.214C42.8804 41.2278 42.8855 38.2379 42.8528 35.2527L42.8527 35.2452L42.8524 35.2377C42.6961 31.4217 39.3457 28.1203 35.5534 28.0842L35.5498 28.0842C28.5851 28.0675 21.6198 28.0704 14.6547 28.0732C11.3559 28.0746 8.05714 28.076 4.75846 28.0752Z" fill="white" stroke="#171717"/>
<path d="M22.6434 33.8857L22.6434 33.8857L22.6487 33.8852C24.9373 33.6486 27.3132 34.3449 29.0972 35.8119L29.0972 35.8119L29.1022 35.816C31.1902 37.4885 32.467 40.1516 32.4482 42.8462L32.4482 42.8462L32.4482 42.8536C32.4691 45.5064 31.2382 48.1314 29.2129 49.8081L29.2129 49.8081L29.2083 49.8119C27.2184 51.4995 24.4636 52.218 21.9158 51.7225L21.9158 51.7225L21.91 51.7214C19.3888 51.262 17.1097 49.6199 15.828 47.3699L15.828 47.3699L15.826 47.3665C14.4645 45.0202 14.2529 42.0301 15.268 39.5121L15.268 39.5121L15.2708 39.505C16.4505 36.4452 19.4146 34.1848 22.6434 33.8857ZM22.0283 37.8244C19.9652 38.4351 18.4131 40.4296 18.3414 42.6035C18.2294 44.5086 19.2471 46.4037 20.8683 47.3687C22.4039 48.3155 24.4183 48.365 25.9964 47.4921C27.5848 46.645 28.6653 44.9296 28.7401 43.1149C28.8339 41.4327 28.061 39.7475 26.7463 38.7172C25.4376 37.6629 23.6226 37.3287 22.0283 37.8244Z" fill="white" stroke="#171717"/>
<path d="M83.8627 38.0078L83.8794 38.0034C83.929 37.9901 83.9861 37.9687 84.0709 37.9351C84.0784 37.9321 84.0861 37.929 84.0941 37.9258C84.1673 37.8966 84.2621 37.8588 84.3589 37.8289C84.5729 37.7626 84.8793 37.7075 85.2044 37.8548C89.7946 39.4154 94.384 40.9842 98.9728 42.5527C102.133 43.6327 105.292 44.7127 108.451 45.7899L108.79 45.9053V46.2631C108.79 47.9222 108.79 49.5814 108.791 51.2407C108.792 55.6639 108.794 60.0876 108.786 64.5112C108.786 64.5112 108.786 64.5113 108.786 64.5114L108.286 64.5105C108.288 69.1376 106.919 73.7089 104.584 77.6709L83.8627 38.0078ZM83.8627 38.0078L83.8464 38.0134C79.4336 39.5227 75.019 41.028 70.6037 42.5336C67.418 43.6198 64.2319 44.7063 61.0458 45.7944L60.7073 45.91L60.7074 46.2678C60.7083 48.8414 60.7081 51.4155 60.7078 53.9897C60.7074 57.4222 60.7071 60.8549 60.7096 64.287M83.8627 38.0078L60.7096 64.287M60.7096 64.287C60.7096 64.2872 60.7096 64.2874 60.7096 64.2876L61.2096 64.2873L60.7096 64.287ZM84.0153 33.9843L84.0287 33.9798L84.0418 33.9744C84.5149 33.7824 85.0633 33.8093 85.5881 34.0078L85.5957 34.0107L85.6035 34.0134C88.9127 35.1424 92.2213 36.2725 95.53 37.4027C100.639 39.1478 105.748 40.8929 110.859 42.6338L110.88 42.641L110.902 42.6463C111.726 42.8469 112.385 43.5082 112.5 44.3273V65.4672C112.316 70.1717 111.022 74.8139 108.776 78.9384L108.775 78.9397C105.557 84.8877 100.663 89.7781 95.1951 93.7005C92.3031 95.7449 89.2702 97.5833 86.0783 99.0769L86.0756 99.0782C85.6619 99.2749 85.2678 99.4303 84.868 99.4986H84.6555C83.4659 99.1807 82.3815 98.5925 81.2456 97.9765C80.9195 97.7995 80.589 97.6203 80.2506 97.4445C73.4572 93.6492 67.2006 88.659 62.7394 82.2295L62.739 82.229C59.2294 77.1853 57.061 71.1307 57.0064 64.9564C56.9945 58.8582 56.9987 52.7599 57.0028 46.6609C57.0033 45.9838 57.0038 45.3067 57.0042 44.6295L57.0042 44.6187L57.0038 44.6078C56.9691 43.8008 57.5185 43.0123 58.2747 42.7735L58.2748 42.7736L58.2856 42.7699C64.004 40.8188 69.7225 38.8657 75.4408 36.9126C78.299 35.9364 81.1572 34.9603 84.0153 33.9843Z" fill="white" stroke="#171717"/>
<path d="M97.5745 55.8073L97.5746 55.8074L97.5818 55.7999C98.2497 55.0985 99.4895 55.0978 100.16 55.7986L100.169 55.8073L100.177 55.8157C100.885 56.4866 100.892 57.7672 100.191 58.4553L100.191 58.4553L100.185 58.4611C95.2081 63.5089 90.2218 68.5476 85.2344 73.5874C84.7352 74.0918 84.2361 74.5963 83.7369 75.1007L83.7284 75.1093L83.7203 75.1183C83.0264 75.8907 81.6657 75.8566 81.0173 75.0481C79.2399 72.8269 77.4791 70.597 75.7168 68.3654C74.3858 66.6799 73.054 64.9934 71.7137 63.3088L71.7076 63.3011L71.7012 63.2937C71.285 62.8106 71.055 62.2183 71.147 61.6615L71.149 61.6494L71.1504 61.6373C71.2484 60.789 72.0164 60.0754 72.8493 60.0393L72.8586 60.0389L72.8678 60.0382C73.4663 59.9899 74.0819 60.272 74.4524 60.7629L74.4523 60.763L74.4601 60.7729C75.9382 62.6313 77.409 64.4936 78.8805 66.3567C79.9847 67.7548 81.0893 69.1534 82.1975 70.5511L82.5473 70.9923L82.944 70.5928C85.4328 68.0872 87.9258 65.5633 90.4181 63.0401C92.8057 60.623 95.1926 58.2065 97.5745 55.8073Z" fill="#FF7028" stroke="#171717"/>
</svg>
