<svg width="168" height="124" viewBox="0 0 168 124" fill="none" xmlns="http://www.w3.org/2000/svg">
<path d="M167 9.125H119.193V122.995H167V9.125Z" stroke="white" stroke-width="0.75" stroke-linecap="round" stroke-linejoin="round"/>
<path d="M167 12.1484H122.32V120.148H167V12.1484Z" stroke="white" stroke-width="0.75" stroke-linecap="round" stroke-linejoin="round"/>
<path d="M126.088 58.2344H123.184V72.7239H126.088V58.2344Z" stroke="white" stroke-width="0.75" stroke-linecap="round" stroke-linejoin="round"/>
<path d="M61.3815 119.389C61.3815 119.389 62.0424 102.518 71.6963 96.8047C71.6963 96.8047 64.9464 107.371 63.5502 120.282L61.3815 119.389Z" fill="#FF7028"/>
<path d="M61.3815 119.389C61.3815 119.389 62.0424 102.518 71.6963 96.8047C71.6963 96.8047 64.9464 107.371 63.5502 120.282L61.3815 119.389Z" fill="#FF7028"/>
<path opacity="0.2" d="M61.3815 119.389C61.3815 119.389 62.0424 102.518 71.6963 96.8047C71.6963 96.8047 64.9464 107.371 63.5502 120.282L61.3815 119.389Z" fill="black"/>
<path d="M60.9764 122.032C60.9764 122.032 58.6011 106.943 64.5909 94.4375C64.5909 94.4375 61.563 108.7 62.7651 121.618L60.9764 122.032Z" fill="#FF7028"/>
<path opacity="0.5" d="M60.9764 122.032C60.9764 122.032 58.6011 106.943 64.5909 94.4375C64.5909 94.4375 61.563 108.7 62.7651 121.618L60.9764 122.032Z" fill="black"/>
<path d="M60.2992 120.533C60.2992 120.533 56.4451 101.517 40.6073 105.651C40.6073 105.651 58.0933 95.0386 62.3647 119.57L60.2992 120.533Z" fill="#FF7028"/>
<path opacity="0.2" d="M60.2992 120.533C60.2992 120.533 56.4451 101.517 40.6073 105.651C40.6073 105.651 58.0933 95.0386 62.3647 119.57L60.2992 120.533Z" fill="black"/>
<path d="M61.3441 120.754C61.3441 120.754 67.2554 102.275 82.5438 108.116C82.5438 108.116 66.3218 95.6563 59.3984 119.567L61.3441 120.754Z" fill="#FF7028"/>
<path d="M61.7941 119.872C61.7941 119.872 62.9507 103.026 53.9661 96.3086C53.9661 96.3086 59.5428 107.541 59.5428 120.525L61.7941 119.872Z" fill="#FF7028"/>
<path d="M72.8282 117.686L73.1132 114.875H50.476L50.761 117.686C51.0667 120.7 53.603 122.99 56.631 122.99H66.9582C69.982 122.99 72.5183 120.7 72.8282 117.686Z" fill="#171717" stroke="white" stroke-width="0.75" stroke-linecap="round" stroke-linejoin="round"/>
<path d="M45.8669 99.4412C45.8669 99.4412 45.1109 91.6569 47.6886 88.8293C50.0184 86.2786 49.5847 92.5499 49.5847 92.5499C49.5847 92.5499 53.6495 83.7983 56.8591 83.4551C59.8664 83.1327 56.0578 88.3704 56.0578 88.3704C56.0578 88.3704 59.3955 86.1505 62.0475 83.4386C64.5922 80.8383 66.4552 78.358 68.0373 79.3914C69.6401 80.4373 66.8683 84.2241 66.8683 84.2241C66.7774 84.315 70.2969 82.062 72.9242 78.0024C76.2247 72.8928 79.4014 73.8106 77.8151 77.9446C77.8151 77.9446 79.8806 71.6733 82.1525 73.0541C84.4245 74.4307 83.1894 79.3914 81.157 82.0124C81.157 82.0124 84.9781 80.6358 84.9781 82.8392C84.9781 85.8404 74.0312 87.3865 74.0312 87.3865C74.0312 87.3865 77.4062 88.3746 76.5098 90.6234C75.2664 93.7529 69.3922 90.0736 66.0297 90.5532C66.0297 90.5532 69.9664 92.7566 67.8349 94.2737C65.6992 95.7909 62.3284 92.5499 58.4041 93.5172C54.4798 94.4804 61.779 94.4804 60.3993 96.2746C59.0237 98.0646 52.0673 95.6545 48.6965 99.9249C45.3216 104.195 45.8751 99.4412 45.8751 99.4412H45.8669Z" fill="#FF7028"/>
<path opacity="0.1" d="M45.8669 99.4412C45.8669 99.4412 45.1109 91.6569 47.6886 88.8293C50.0184 86.2786 49.5847 92.5499 49.5847 92.5499C49.5847 92.5499 53.6495 83.7983 56.8591 83.4551C59.8664 83.1327 56.0578 88.3704 56.0578 88.3704C56.0578 88.3704 59.3955 86.1505 62.0475 83.4386C64.5922 80.8383 66.4552 78.358 68.0373 79.3914C69.6401 80.4373 66.8683 84.2241 66.8683 84.2241C66.7774 84.315 70.2969 82.062 72.9242 78.0024C76.2247 72.8928 79.4014 73.8106 77.8151 77.9446C77.8151 77.9446 79.8806 71.6733 82.1525 73.0541C84.4245 74.4307 83.1894 79.3914 81.157 82.0124C81.157 82.0124 84.9781 80.6358 84.9781 82.8392C84.9781 85.8404 74.0312 87.3865 74.0312 87.3865C74.0312 87.3865 77.4062 88.3746 76.5098 90.6234C75.2664 93.7529 69.3922 90.0736 66.0297 90.5532C66.0297 90.5532 69.9664 92.7566 67.8349 94.2737C65.6992 95.7909 62.3284 92.5499 58.4041 93.5172C54.4798 94.4804 61.779 94.4804 60.3993 96.2746C59.0237 98.0646 52.0673 95.6545 48.6965 99.9249C45.3216 104.195 45.8751 99.4412 45.8751 99.4412H45.8669Z" fill="black"/>
<path d="M46.8296 101.303C46.8296 101.303 47.7921 91.2451 63.7662 88.2108C79.7403 85.1806 81.1531 78.6406 81.1531 78.6406" stroke="#263238" stroke-width="0.75" stroke-linecap="round" stroke-linejoin="round"/>
<path d="M38.0175 99.3032C38.0175 99.3032 41.9212 88.3192 38.0877 86.9013C34.9193 85.7314 35.886 91.1055 35.886 91.1055C35.886 91.1055 29.6194 81.9405 24.4558 84.7682C21.052 86.6326 27.2772 88.3523 27.2772 88.3523C27.2772 88.3523 13.9097 86.2523 12.7489 89.9315C11.9227 92.5566 17.0161 91.891 17.0161 91.891C17.0161 91.891 7.23828 94.9667 7.58527 97.9969C7.92814 101.027 12.1292 98.6872 12.1292 98.6872C12.1292 98.6872 6.68887 103.371 2.42167 101.304C-1.84553 99.2371 1.59549 104.268 4.21034 104.682C4.21034 104.682 -0.676492 104.888 0.0794597 107.025C0.835411 109.163 6.96564 108.679 8.54777 108.129C8.54777 108.129 7.51505 112.127 10.7495 110.333C13.984 108.543 16.0495 101.928 16.0495 101.928C16.0495 101.928 14.8102 105.099 17.0822 104.892C19.3542 104.686 21.2378 95.1072 21.2378 95.1072C21.2378 95.1072 20.4654 98.8278 22.0103 99.0345C23.5553 99.2412 26.1701 93.0402 29.6814 93.1767C29.6814 93.1767 27.2111 95.9464 30.0242 96.1407C34.0188 96.4177 38.0092 99.3115 38.0092 99.3115L38.0175 99.3032Z" fill="#FF7028"/>
<path d="M37.3694 101.3C37.3694 101.3 38.0179 89.1131 26.5878 89.9688C15.1576 90.8246 16.2606 105.707 5.10718 106.674" stroke="#263238" stroke-width="0.75" stroke-linecap="round" stroke-linejoin="round"/>
<path d="M42.6645 102.458C42.6645 102.458 36.4806 96.0133 37.282 89.5105C38.0875 83.0119 41.1857 90.8665 41.1857 90.8665C41.1857 90.8665 39.5333 81.3583 41.5988 79.8081C43.6642 78.2579 43.6642 84.2273 43.6642 84.2273C43.6642 84.2273 45.6264 74.0495 48.4147 74.2934C51.2031 74.5373 48.9311 78.1545 48.9311 78.1545C48.9311 78.1545 57.3209 73.7684 58.5974 77.0466C59.8779 80.3248 52.4093 81.1516 52.4093 81.1516C52.4093 81.1516 56.9863 81.4617 56.4699 83.5287C55.9536 85.5957 50.8602 84.5622 49.4309 85.8024C49.4309 85.8024 51.5707 85.389 51.4922 87.1459C51.4096 88.9028 47.3159 89.8909 45.5933 93.5329C45.5933 93.5329 48.4147 90.7631 50.0671 92.6234C51.7194 94.4837 44.0401 98.0306 42.6645 102.458Z" fill="#FF7028"/>
<path d="M43.2427 100.381C43.2427 100.381 41.1235 82.2367 52.4091 78.6484" stroke="#263238" stroke-width="0.75" stroke-linecap="round" stroke-linejoin="round"/>
<path d="M47.886 122.994H38.5998C36.2576 122.994 34.2954 121.221 34.0559 118.889L31.9243 97.9961H54.5616L52.43 118.889C52.1904 121.221 50.2283 122.994 47.886 122.994Z" fill="#171717" stroke="white" stroke-linecap="round" stroke-linejoin="round"/>
<path opacity="0.1" d="M38.0175 99.3071C38.0175 99.3071 41.9212 88.3232 38.0877 86.9052C34.9193 85.7353 35.886 91.1094 35.886 91.1094C35.886 91.1094 29.6194 81.9444 24.4558 84.7721C21.052 86.6365 27.2772 88.3562 27.2772 88.3562C27.2772 88.3562 13.9097 86.2562 12.7489 89.9354C11.9227 92.5605 17.0161 91.8949 17.0161 91.8949C17.0161 91.8949 7.23828 94.9706 7.58527 98.0008C7.92814 101.031 12.1292 98.6911 12.1292 98.6911C12.1292 98.6911 6.68887 103.375 2.42167 101.308C-1.84553 99.241 1.59549 104.272 4.21034 104.685C4.21034 104.685 -0.676492 104.892 0.0794597 107.029C0.835411 109.167 6.96564 108.683 8.54777 108.133C8.54777 108.133 7.51505 112.131 10.7495 110.337C13.984 108.547 16.0495 101.932 16.0495 101.932C16.0495 101.932 14.8102 105.103 17.0822 104.896C19.3542 104.69 21.2378 95.1111 21.2378 95.1111C21.2378 95.1111 20.4654 98.8317 22.0103 99.0384C23.5553 99.2451 26.1701 93.0441 29.6814 93.1806C29.6814 93.1806 27.2111 95.9503 30.0242 96.1446C34.0188 96.4216 38.0092 99.3154 38.0092 99.3154L38.0175 99.3071Z" fill="black"/>
<path d="M156.055 115.851L144.517 111.784V88.1992H140.386V111.784L128.849 115.851C128.555 115.955 128.357 116.236 128.357 116.546V117.228C128.357 117.72 128.828 118.075 129.303 117.935L141.151 114.45L141.365 117.298C141.394 117.708 141.737 118.026 142.146 118.026H142.757C143.166 118.026 143.509 117.708 143.538 117.298L143.753 114.45L155.6 117.935C156.071 118.075 156.546 117.72 156.546 117.228V116.546C156.546 116.232 156.348 115.955 156.055 115.851Z" fill="#171717" stroke="white" stroke-miterlimit="10"/>
<path d="M130.745 120.605C130.745 121.927 129.675 122.998 128.353 122.998C127.031 122.998 125.961 121.927 125.961 120.605C125.961 119.282 127.031 118.211 128.353 118.211C129.675 118.211 130.745 119.282 130.745 120.605Z" fill="#171717" stroke="white" stroke-miterlimit="10"/>
<path d="M129.609 120.608C129.609 121.303 129.047 121.865 128.353 121.865C127.659 121.865 127.097 121.303 127.097 120.608C127.097 119.914 127.659 119.352 128.353 119.352C129.047 119.352 129.609 119.914 129.609 120.608Z" fill="white" stroke="#171717" stroke-linecap="round" stroke-linejoin="round"/>
<path d="M144.839 120.605C144.839 121.927 143.769 122.998 142.447 122.998C141.125 122.998 140.055 121.927 140.055 120.605C140.055 119.282 141.125 118.211 142.447 118.211C143.769 118.211 144.839 119.282 144.839 120.605Z" fill="#263238" stroke="white" stroke-miterlimit="10"/>
<path d="M143.707 120.608C143.707 121.303 143.145 121.865 142.451 121.865C141.757 121.865 141.195 121.303 141.195 120.608C141.195 119.914 141.757 119.352 142.451 119.352C143.145 119.352 143.707 119.914 143.707 120.608Z" fill="white" stroke="#171717" stroke-linecap="round" stroke-linejoin="round"/>
<path d="M158.937 120.605C158.937 121.927 157.868 122.998 156.546 122.998C155.224 122.998 154.154 121.927 154.154 120.605C154.154 119.282 155.224 118.211 156.546 118.211C157.868 118.211 158.937 119.282 158.937 120.605Z" fill="#171717" stroke="white" stroke-miterlimit="10"/>
<path d="M157.802 120.608C157.802 121.303 157.24 121.865 156.546 121.865C155.852 121.865 155.29 121.303 155.29 120.608C155.29 119.914 155.852 119.352 156.546 119.352C157.24 119.352 157.802 119.914 157.802 120.608Z" fill="white" stroke="#171717" stroke-linecap="round" stroke-linejoin="round"/>
<path d="M149.887 70.7539H147.185V88.1538H149.887V70.7539Z" fill="#171717" stroke="white" stroke-miterlimit="10"/>
<path d="M139.759 58.75H156.708C158.872 58.75 160.628 60.5069 160.628 62.6731V75.2363C160.628 76.2574 159.802 77.0842 158.781 77.0842H137.693C136.673 77.0842 135.847 76.2574 135.847 75.2363V62.6731C135.847 60.5069 137.602 58.75 139.767 58.75H139.759Z" fill="#171717" stroke="white" stroke-linecap="round" stroke-linejoin="round"/>
<path d="M157.802 75.2363V62.6731C157.802 60.5069 156.046 58.75 153.881 58.75H139.758C137.593 58.75 135.838 60.5069 135.838 62.6731V75.2363C135.838 76.2574 136.664 77.0842 137.684 77.0842H155.951C156.971 77.0842 157.798 76.2574 157.798 75.2363H157.802Z" stroke="white" stroke-width="0.75" stroke-linecap="round" stroke-linejoin="round"/>
<path d="M135.016 85.2344H155.923C157.773 85.2344 159.273 86.735 159.273 88.587V89.5378C159.273 90.3853 158.587 91.0757 157.736 91.0757H135.016V85.2344Z" fill="#171717" stroke="white" stroke-linecap="round" stroke-linejoin="round"/>
<path d="M128.981 85.2344H146.537C148.388 85.2344 149.887 86.735 149.887 88.587V89.5378C149.887 90.3853 149.201 91.0757 148.35 91.0757H127.163C126.316 91.0757 125.626 90.3894 125.626 89.5378V88.587C125.626 86.735 127.126 85.2344 128.976 85.2344H128.981Z" fill="#171717" stroke="white" stroke-width="0.75" stroke-linecap="round" stroke-linejoin="round"/>
<path d="M18.0034 2.41286C17.8754 2.38805 17.7721 2.53687 17.7721 2.74771V76.9029C17.7721 77.1137 17.8754 77.2625 18.0034 77.2377C42.0204 72.3886 66.0332 67.5353 90.0502 62.6862C90.1782 62.6614 90.2815 62.5373 90.2815 62.405V17.2455C90.2815 17.1174 90.1782 16.9934 90.0502 16.9686C66.0332 12.1153 42.0204 7.262 18.0034 2.41286Z" fill="#171717"/>
<path d="M26.522 76.1773V3.46484" stroke="white" stroke-width="0.75" stroke-miterlimit="10"/>
<path d="M44.8591 72.4101V7.24219" stroke="white" stroke-width="0.75" stroke-miterlimit="10"/>
<path d="M35.6923 5.35156V74.2938" stroke="white" stroke-width="0.75" stroke-miterlimit="10"/>
<path d="M63.1963 68.6312V11.0078" stroke="white" stroke-width="0.75" stroke-miterlimit="10"/>
<path d="M54.0254 9.125V70.5186" stroke="white" stroke-width="0.75" stroke-miterlimit="10"/>
<path d="M81.5288 64.8602V14.7812" stroke="white" stroke-width="0.75" stroke-miterlimit="10"/>
<path d="M72.3621 12.8984V66.7475" stroke="white" stroke-width="0.75" stroke-miterlimit="10"/>
<path d="M17.3551 16.875C41.8017 19.8928 66.2482 22.9106 90.6989 25.9284" stroke="white" stroke-width="0.75" stroke-miterlimit="10"/>
<path d="M90.6989 35.1936C66.2524 34.189 41.8058 33.1803 17.3551 32.1758" stroke="white" stroke-width="0.75" stroke-miterlimit="10"/>
<path d="M17.3551 47.4709C41.8017 46.4664 66.2482 45.4577 90.6989 44.4531" stroke="white" stroke-width="0.75" stroke-miterlimit="10"/>
<path d="M90.6992 53.7148C66.2526 56.7326 41.806 59.7504 17.3553 62.7682" stroke="white" stroke-width="0.75" stroke-miterlimit="10"/>
<path d="M90.0501 63.5364C66.0332 68.5674 42.0203 73.5985 18.0034 78.6336C17.4127 78.7577 16.9376 78.0549 16.9376 77.071V2.57683C16.9376 1.59295 17.4168 0.890172 18.0034 1.01419C42.0203 6.04523 66.0332 11.0763 90.0501 16.1115C90.6408 16.2355 91.1159 16.8184 91.1159 17.4095V62.2342C91.1159 62.8253 90.6367 63.4082 90.0501 63.5322V63.5364ZM18.0034 2.41147C17.8753 2.38667 17.7721 2.53549 17.7721 2.74633V76.9015C17.7721 77.1123 17.8753 77.2612 18.0034 77.2364C42.0203 72.3872 66.0332 67.5339 90.0501 62.6848C90.1782 62.66 90.2815 62.536 90.2815 62.4037V17.2442C90.2815 17.116 90.1782 16.992 90.0501 16.9672C66.0332 12.1139 42.0203 7.26062 18.0034 2.41147Z" fill="white" stroke="white" stroke-miterlimit="10"/>
<path d="M24.9061 75.8438C22.5225 76.3233 21.3287 76.5672 18.9452 77.0468V61.8792C21.3287 61.594 22.5225 61.4493 24.9061 61.1641V75.8397V75.8438Z" fill="#171717" stroke="white" stroke-linecap="round" stroke-linejoin="round"/>
<path d="M34.0729 73.9883C31.6894 74.4679 30.4956 74.7118 28.1121 75.1913V55.7369C30.4956 55.5219 31.6894 55.4103 34.0729 55.1953V73.9883Z" fill="#171717" stroke="white" stroke-linecap="round" stroke-linejoin="round"/>
<path d="M43.2436 72.1394C40.8601 72.6189 39.6662 72.8628 37.2827 73.3423V54.9048C39.6662 54.6899 40.8601 54.5782 43.2436 54.3633V72.1394Z" fill="#171717" stroke="white" stroke-linecap="round" stroke-linejoin="round"/>
<path d="M52.4095 70.2883C50.0259 70.7678 48.8321 71.0117 46.4486 71.4913V50.2013C48.8321 50.0442 50.0259 49.9657 52.4095 49.8086V70.2883Z" fill="#171717" stroke="white" stroke-linecap="round" stroke-linejoin="round"/>
<path d="M61.5763 68.4328C59.1928 68.9123 57.999 69.1562 55.6155 69.6358V45.3404C57.999 45.2495 59.1928 45.2081 61.5763 45.1172V68.4328Z" fill="#171717" stroke="white" stroke-linecap="round" stroke-linejoin="round"/>
<path d="M70.7471 66.5822C68.3636 67.0617 67.1698 67.3056 64.7863 67.7851V33.6055C67.1698 33.713 68.3636 33.7667 70.7471 33.8742V66.5822Z" fill="#171717" stroke="white" stroke-linecap="round" stroke-linejoin="round"/>
<path d="M79.913 64.7329C77.5295 65.2124 76.3357 65.4563 73.9521 65.9358V30.2969C76.3357 30.4746 77.5295 30.5614 79.913 30.7351V64.7329Z" fill="#171717" stroke="white" stroke-linecap="round" stroke-linejoin="round"/>
<path d="M89.0798 62.8812C86.6962 63.3607 85.5024 63.6046 83.1189 64.0842V24.5469C85.5024 24.8487 86.6962 25.0016 89.0798 25.3034V62.8812Z" fill="#171717" stroke="white" stroke-linecap="round" stroke-linejoin="round"/>
<path d="M86.9847 21.0322C85.3117 20.7635 84.4731 20.6271 82.796 20.3542C82.4779 20.3046 82.2218 20.5403 82.2218 20.8834V21.4622C82.2218 21.8053 82.4779 22.1195 82.796 22.1691C82.986 22.198 83.081 22.2104 83.271 22.2393C80.5859 23.7234 79.2434 24.5213 76.5583 26.2162C72.8571 27.2911 71.0064 27.8822 67.3051 29.172C64.1244 32.8058 61.0717 36.5553 58.1387 40.3957C54.549 42.0452 52.7562 42.9216 49.1706 44.7736C45.5561 46.39 43.7509 47.2416 40.1405 49.0316C36.464 49.2383 34.6299 49.3417 30.9534 49.5484C27.2315 51.7724 25.3726 52.9382 21.6506 55.3814C21.8737 56.3942 21.9811 56.8986 22.2042 57.9072C25.8187 55.493 27.6239 54.3355 31.2384 52.1238C34.8984 51.8634 36.7284 51.7311 40.3883 51.4707C44.102 49.5773 45.9609 48.6761 49.6745 46.9688C53.4295 44.9845 55.3049 44.046 59.0599 42.2808C61.997 38.428 65.0456 34.6661 68.2263 31.0158C71.8574 29.7136 73.675 29.11 77.3101 28.0145C80.1233 26.2121 81.5319 25.3688 84.345 23.7937C84.2376 24.0666 84.1839 24.203 84.0765 24.48C83.9609 24.7776 84.1013 25.1538 84.3946 25.315C84.5929 25.4225 84.692 25.4762 84.8903 25.5837C85.1836 25.7449 85.5182 25.6333 85.6339 25.3357C86.2659 23.7441 86.584 22.9586 87.216 21.4125C87.278 21.2596 87.1623 21.0612 86.9929 21.0364L86.9847 21.0322Z" fill="#FF7028" stroke="white" stroke-width="0.75" stroke-linecap="round" stroke-linejoin="round"/>
<path d="M86.9847 19.9416C85.3117 19.6563 84.4731 19.5116 82.796 19.2264C82.4779 19.1726 82.2218 19.4083 82.2218 19.7514V20.3302C82.2218 20.6733 82.4779 20.9916 82.796 21.0412C82.986 21.0701 83.081 21.0867 83.271 21.1156C80.5859 22.5749 79.2434 23.3604 76.5583 25.0305C72.8571 26.0722 71.0064 26.6469 67.3051 27.8995C64.1574 31.558 61.1254 35.2455 58.1387 39.0364C54.549 40.6528 52.7562 41.5126 49.1706 43.3274C45.5561 44.9066 43.7509 45.7417 40.1405 47.4986C36.464 47.6722 34.6299 47.7591 30.9534 47.9327C27.2315 50.1237 25.3726 51.2688 21.6506 53.6789C21.8737 54.6959 21.9811 55.2002 22.2042 56.2089C25.8187 53.8277 27.6239 52.6867 31.2384 50.5081C34.8984 50.2808 36.7284 50.1692 40.3883 49.9418C44.102 48.0815 45.9609 47.201 49.6745 45.5267C53.4295 43.5755 55.3049 42.6577 59.0599 40.9297C62.0465 37.1265 65.0786 33.4224 68.2263 29.7515C71.8574 28.4823 73.675 27.8995 77.3101 26.837C80.1233 25.0594 81.5319 24.2285 84.345 22.6824C84.2376 22.9552 84.1839 23.0917 84.0765 23.3645C83.9609 23.6621 84.1013 24.0383 84.3946 24.2037C84.5929 24.3153 84.692 24.369 84.8903 24.4807C85.1836 24.6419 85.5182 24.5344 85.6339 24.2409C86.2659 22.6534 86.584 21.8721 87.216 20.3302C87.278 20.1772 87.1623 19.9788 86.9929 19.9498L86.9847 19.9416Z" fill="#FF7028"/>
<path d="M108.258 113.027L108.518 118.351H113.153L113.07 112.539L108.258 113.027Z" fill="#171717" stroke="white" stroke-linecap="round" stroke-linejoin="round"/>
<path d="M108.08 57.9415C108.08 57.9415 107.531 64.9899 107.453 67.3463C107.436 67.7845 107.481 68.665 107.453 69.1032C107.13 74.1508 105.387 86.0525 105.594 90.0831C105.8 94.1138 107.899 114.457 107.899 114.457C107.899 114.457 110.914 115.102 113.616 114.035C113.616 114.035 114.149 98.4751 112.864 90.2485C112.864 90.2485 114.165 86.0525 114.682 80.8851C115.198 75.7176 116.255 57.2305 116.255 57.2305L108.08 57.9415Z" fill="#171717" stroke="white" stroke-miterlimit="10"/>
<path d="M107.39 113.696L107.539 115.527L114.049 115.151L114.215 113.262L107.39 113.696Z" fill="#171717" stroke="white" stroke-miterlimit="10"/>
<path d="M108.382 117.828H113.252C113.591 117.828 113.888 118.055 113.975 118.386L114.822 121.602C114.95 122.33 114.392 122.996 113.653 122.996H101.363C100.93 122.996 100.703 122.479 100.996 122.156C101.467 121.644 102.202 121.04 103.218 120.825C104.986 120.449 106.812 119.258 107.779 118.105C107.927 117.927 108.151 117.828 108.382 117.828Z" fill="#171717" stroke="white" stroke-linecap="round" stroke-linejoin="round"/>
<path d="M112.823 122.165H102.239C101.624 122.165 101.359 122.041 101.281 121.868C101.178 121.963 101.078 122.062 100.996 122.153C100.703 122.475 100.93 122.992 101.363 122.992H113.653C114.392 122.992 114.95 122.326 114.822 121.599L114.76 121.363C114.52 122.165 113.777 122.165 112.823 122.165Z" fill="white" stroke="white" stroke-linecap="round" stroke-linejoin="round"/>
<path d="M119.894 113.028L120.981 118.353H125.615L124.971 112.512L119.894 113.028Z" fill="#171717" stroke="white" stroke-linecap="round" stroke-linejoin="round"/>
<path d="M122.385 56.4961C122.385 56.4961 123.492 66.4176 122.344 68.6913C122.344 68.6913 122.972 81.9366 122.617 90.1962C122.617 90.1962 124.852 97.2405 125.413 114.727C125.413 114.727 122.39 115.666 119.861 115.141C119.861 115.141 114.962 94.7353 114.549 90.7378C114.136 86.7402 112.802 70.4937 112.802 70.4937C112.802 70.4937 110.819 68.0712 110.765 66.4176C110.712 64.764 110.088 61.4569 110.088 61.4569L110.348 57.943L122.39 56.4961H122.385Z" fill="#171717" stroke="white" stroke-miterlimit="10"/>
<path d="M119.126 113.954L119.448 115.777L125.95 115.4V113.52L119.126 113.954Z" fill="#171717" stroke="white" stroke-miterlimit="10"/>
<path d="M120.671 117.828H125.542C125.88 117.828 126.178 118.055 126.265 118.386L127.111 121.602C127.24 122.33 126.682 122.996 125.942 122.996H113.653C113.219 122.996 112.992 122.479 113.285 122.156C113.756 121.644 114.492 121.04 115.508 120.825C117.276 120.449 119.102 119.258 120.068 118.105C120.217 117.927 120.44 117.828 120.671 117.828Z" fill="#171717" stroke="white" stroke-linecap="round" stroke-linejoin="round"/>
<path d="M125.112 122.169H114.529C113.913 122.169 113.649 122.045 113.57 121.872C113.467 121.967 113.368 122.066 113.285 122.157C112.992 122.479 113.219 122.996 113.653 122.996H125.942C126.682 122.996 127.24 122.33 127.111 121.603L127.049 121.367C126.81 122.169 126.066 122.169 125.112 122.169Z" fill="white" stroke="white" stroke-linecap="round" stroke-linejoin="round"/>
<path d="M123.848 51.9237L126.421 48.6992L128.598 51.1507L124.827 54.8423L123.848 51.9237Z" fill="white" stroke="#263238" stroke-linecap="round" stroke-linejoin="round"/>
<path d="M109.568 29.6826L109.002 27.2023C109.002 27.2023 112.823 21.2948 112.959 22.6301C113.376 26.7641 115.665 28.7732 115.665 28.7732L111.455 29.5338L109.568 29.6826Z" stroke="white" stroke-linecap="round" stroke-linejoin="round"/>
<path d="M114.818 20.2206C114.376 19.7865 113.951 19.9767 113.674 20.2041C113.625 18.0916 113.476 15.3673 113.476 15.3673L112.381 14.4372L109.415 14.2305L106.532 14.8175L104.623 15.9874C104.623 15.9874 104.619 16.5 104.623 16.6695C104.64 17.2772 104.747 19.0962 104.747 19.0962C104.747 19.0962 104.02 28.2612 107.92 28.2612C111.001 28.2612 112.786 25.078 113.422 22.8705C114.897 22.7754 115.702 21.0929 114.814 20.2206H114.818Z" fill="#171717" stroke="white" stroke-linecap="round" stroke-linejoin="round"/>
<path d="M106.697 19.8906C106.697 19.8906 107.238 20.8373 106.325 22.8009C106.325 22.8009 106.685 23.111 107.251 23.2143C107.817 23.3177 107.891 23.6939 107.891 23.6939" stroke="white" stroke-width="0.75" stroke-linecap="round" stroke-linejoin="round"/>
<path d="M108.097 24.639C108.097 24.639 109.184 24.6142 109.906 23.7461" stroke="white" stroke-width="0.75" stroke-linecap="round" stroke-linejoin="round"/>
<path d="M104.235 17.9764C105.09 17.6457 105.342 18.3733 105.945 18.4353" stroke="white" stroke-width="0.75" stroke-linecap="round" stroke-linejoin="round"/>
<path d="M107.209 18.3563C107.829 18.1372 108.097 17.1699 109.213 17.4841" stroke="white" stroke-width="0.75" stroke-linecap="round" stroke-linejoin="round"/>
<path d="M108.618 20.0004C108.618 20.2774 108.494 20.5048 108.341 20.5048C108.188 20.5048 108.064 20.2774 108.064 20.0004C108.064 19.7235 108.188 19.4961 108.341 19.4961C108.494 19.4961 108.618 19.7235 108.618 20.0004Z" fill="white"/>
<path d="M106.346 20.1111C106.42 20.9751 105.9 21.7233 105.185 21.7812C104.475 21.8391 103.834 21.1901 103.764 20.3261C103.69 19.4621 104.21 18.7138 104.925 18.6559C105.635 18.5981 106.276 19.2471 106.346 20.1111Z" fill="#171717" stroke="white" stroke-width="0.75" stroke-linecap="round" stroke-linejoin="round"/>
<path d="M110.043 19.5564C110.118 20.4204 109.597 21.1687 108.883 21.2265C108.172 21.2844 107.532 20.6354 107.462 19.7714C107.387 18.9074 107.908 18.1591 108.622 18.1012C109.337 18.0434 109.973 18.6924 110.043 19.5564Z" stroke="white" stroke-width="0.75" stroke-linecap="round" stroke-linejoin="round"/>
<path d="M106.346 20.1086C106.346 20.1086 106.705 19.7666 107.478 19.8902" stroke="white" stroke-width="0.75" stroke-linecap="round" stroke-linejoin="round"/>
<path d="M110.043 19.4356C110.043 19.4356 112.228 19.1793 112.922 19.3735C113.216 19.4562 113.926 20.0763 113.926 20.0763" stroke="white" stroke-width="0.75" stroke-linecap="round" stroke-linejoin="round"/>
<path d="M112.075 15.1596C112.075 15.1596 106.837 18.4668 100.554 15.2299C100.554 15.2299 102.735 14.7421 104.012 13.5763C105.523 12.1914 108.911 11.0257 112.794 13.7789C112.794 13.7789 116.921 15.4201 114.017 19.5623C113.67 20.0584 113.24 21.8608 113.24 21.8608L112.455 22.084C112.455 22.084 112.703 20.1121 112.385 19.1034C112.071 18.0947 111.294 17.0613 112.079 15.1679L112.075 15.1596Z" fill="#171717" stroke="white" stroke-linecap="round" stroke-linejoin="round"/>
<path d="M105.796 20.309C105.796 20.586 105.672 20.8134 105.519 20.8134C105.367 20.8134 105.243 20.586 105.243 20.309C105.243 20.0321 105.367 19.8047 105.519 19.8047C105.672 19.8047 105.796 20.0321 105.796 20.309Z" fill="white"/>
<path d="M97.4388 26.3434L99.087 24.5865C99.087 24.5865 102.288 24.4542 102.854 24.0408C103.42 23.6274 103.751 22.6022 104.812 22.3913C105.874 22.1805 104.792 21.3868 103.759 21.7051C102.726 22.0234 101.71 22.751 101.875 21.7051C102.041 20.6592 101.462 18.7948 101.694 18.5881C101.925 18.3814 103.127 19.7828 103.805 19.3032C104.482 18.8237 103.354 18.0755 102.64 17.414C101.925 16.7526 101.846 16.5996 101.343 16.6492C100.839 16.6988 100.029 16.7981 100.244 17.5008C100.244 17.5008 99.8182 17.3024 99.3308 17.6993C99.3308 17.6993 98.517 17.4471 98.1287 17.939C98.1287 17.939 97.3066 17.8026 96.9927 18.4268C96.6829 19.0511 97.3562 22.0689 96.9927 22.7055C96.6292 23.3421 95.7286 24.0821 95.7286 24.0821L97.4347 26.3434H97.4388Z" stroke="white" stroke-linecap="round" stroke-linejoin="round"/>
<path d="M99.6326 22.4024C99.6326 22.4024 100.566 21.8443 101.479 22.1751" stroke="white" stroke-width="0.75" stroke-linecap="round" stroke-linejoin="round"/>
<path d="M100.996 17.7031C100.996 17.7031 100.95 17.8065 101.409 18.2033" stroke="white" stroke-width="0.75" stroke-linecap="round" stroke-linejoin="round"/>
<path d="M100.74 18.2031C100.74 18.2031 101.855 19.6004 101.479 19.8236C100.996 20.1089 100.314 19.2201 99.6328 18.5132C99.6328 18.5132 101.174 20.0303 100.637 20.299C100.075 20.5802 99.2445 19.1333 98.6042 18.7571C98.6042 18.7571 99.8724 20.1296 99.4222 20.5471C98.9099 21.0266 98.4968 19.1705 97.8276 19.7203" stroke="white" stroke-width="0.75" stroke-linecap="round" stroke-linejoin="round"/>
<path d="M109.244 29.1802C109.244 29.1802 106.101 29.6101 104.192 30.5982C104.192 30.5982 103.015 30.0194 102.395 31.1645C102.395 31.1645 98.1572 31.6937 93.0638 32.8305C93.0638 32.8305 94.4187 31.2679 98.4009 26.0053C98.4009 26.0053 96.7651 24.4303 96.2735 22.8594C96.2735 22.8594 85.0251 34.3229 86.0578 36.7867C87.2806 39.7094 103.953 37.0224 103.953 37.0224C103.953 37.0224 105.428 47.3242 106.7 53.0332C107.976 58.7422 107.927 59.259 107.927 59.259C107.927 59.259 112.38 61.0366 122.62 58.147C122.62 58.147 123.884 48.5231 123.277 37.2497C123.277 37.2497 127.974 40.8628 129.899 42.2022C129.899 42.2022 126.693 46.7455 124.599 50.4991C124.599 50.4991 126.086 51.1275 127.111 53.2069C127.111 53.2069 136.248 43.3308 135.484 40.714C134.72 38.0972 123.496 29.5275 123.496 29.5275C123.496 29.5275 123.343 28.1178 121.736 28.7668C121.736 28.7668 119.039 28.3204 115.519 28.4898L111.459 29.5316L109.249 29.1761L109.244 29.1802Z" fill="#171717"/>
<path d="M109.244 29.1802C109.244 29.1802 106.101 29.6101 104.192 30.5982C104.192 30.5982 103.015 30.0194 102.395 31.1645C102.395 31.1645 98.1572 31.6937 93.0638 32.8305C93.0638 32.8305 94.4187 31.2679 98.4009 26.0053C98.4009 26.0053 96.7651 24.4303 96.2735 22.8594C96.2735 22.8594 85.0251 34.3229 86.0578 36.7867C87.2806 39.7094 103.953 37.0224 103.953 37.0224C103.953 37.0224 105.428 47.3242 106.7 53.0332C107.976 58.7422 107.927 59.259 107.927 59.259C107.927 59.259 112.38 61.0366 122.62 58.147C122.62 58.147 123.884 48.5231 123.277 37.2497C123.277 37.2497 127.974 40.8628 129.899 42.2022C129.899 42.2022 126.693 46.7455 124.599 50.4991C124.599 50.4991 126.086 51.1275 127.111 53.2069C127.111 53.2069 136.248 43.3308 135.484 40.714C134.72 38.0972 123.496 29.5275 123.496 29.5275C123.496 29.5275 123.343 28.1178 121.736 28.7668C121.736 28.7668 119.039 28.3204 115.519 28.4898L111.459 29.5316L109.249 29.1761L109.244 29.1802Z" stroke="white" stroke-linecap="round" stroke-linejoin="round"/>
<path d="M108.91 28.7459L111.492 29.2089L115.515 27.8984L116.692 28.5557L113.693 31.1643L111.492 29.829L109.72 31.1643L108.203 29.3081L108.91 28.7459Z" fill="#171717" stroke="white" stroke-linecap="round" stroke-linejoin="round"/>
<path d="M95.0763 23.2152L96.2619 22.0742L99.2278 25.7783L98.0836 27.2003L95.0763 23.2152Z" fill="#171717" stroke="white" stroke-linecap="round" stroke-linejoin="round"/>
<path d="M124.847 49.3242L123.864 50.4404L127.02 54.2602L128.082 53.1357L124.847 49.3242Z" fill="#171717" stroke="white" stroke-linecap="round" stroke-linejoin="round"/>
<path d="M123.745 50.8978C123.58 50.596 123.299 49.794 122.956 49.7816C122.328 49.7568 121.552 51.1169 121.357 51.7163C121.267 51.9974 121.068 52.5968 121.155 52.8779C121.2 53.0226 121.432 53.3285 121.58 53.3079C121.841 53.2707 121.948 52.6134 122.089 52.3901C122.266 52.1131 123.03 51.3938 123.03 51.3938C123.03 51.3938 122.655 52.572 122.448 52.8779C122.142 53.3368 120.734 54.792 121.981 55.0317C121.981 55.0317 121.75 55.7676 122.448 55.7304C123.146 55.6932 123.91 54.4819 123.91 54.4819C123.91 54.4819 123.811 54.8292 123.468 55.3955C123.167 55.8875 122.535 55.9908 122.758 56.2099C123.105 56.5448 123.667 56.4125 124.199 56.0363C124.728 55.6601 125.059 55.3087 125.269 54.4819C125.534 53.436 124.212 51.7535 123.749 50.9019L123.745 50.8978Z" fill="#171717" stroke="white" stroke-linecap="round" stroke-linejoin="round"/>
<path d="M122.386 54.7544C122.386 54.7544 123.134 54.0392 123.485 53.5638C123.836 53.0843 123.927 52.5469 123.927 52.5469" stroke="white" stroke-width="0.75" stroke-linecap="round" stroke-linejoin="round"/>
<path d="M113.765 59.9648H111.927C111.737 59.9648 111.584 60.1185 111.584 60.308V61.0769C111.584 61.2664 111.737 61.42 111.927 61.42H113.765C113.954 61.42 114.108 61.2664 114.108 61.0769V60.308C114.108 60.1185 113.954 59.9648 113.765 59.9648Z" stroke="white" stroke-width="0.75" stroke-linecap="round" stroke-linejoin="round"/>
</svg>
