<svg width="70" height="70" viewBox="0 0 70 70" fill="none" xmlns="http://www.w3.org/2000/svg">
<mask id="path-1-inside-1_51_13070" fill="white">
<path d="M22.4246 0H23.1669C24.7187 0.136719 26.2074 0.946094 27.0935 2.23535C28.259 3.85957 28.3604 6.15645 27.3387 7.875C26.7224 8.94961 25.7116 9.77676 24.5488 10.1979C24.5392 11.4721 24.5433 12.7449 24.5461 14.0191C31.5543 14.0164 38.5638 14.0205 45.5734 14.0178C45.572 12.7449 45.5775 11.4734 45.5706 10.202C43.9764 9.62637 42.6877 8.26738 42.2549 6.62539C41.7043 4.69219 42.4014 2.47871 43.9682 1.21543C44.8311 0.49082 45.9308 0.0738281 47.0539 0H47.6935C49.2398 0.132617 50.7258 0.936523 51.6146 2.21621C52.7528 3.78848 52.8966 6.00059 51.968 7.70547C51.3626 8.86074 50.3067 9.75352 49.0823 10.1992C49.0741 11.4721 49.0809 12.7449 49.0795 14.0178C50.8929 14.0219 52.7048 14.0109 54.5182 14.0219C56.7205 14.052 58.8858 14.9707 60.4512 16.5129C61.8468 17.8582 62.7686 19.682 63.0178 21.6029C63.1219 22.3262 63.0959 23.059 63.0986 23.7877C63.1 25.1945 63.0959 26.6014 63.1014 28.0096C64.2601 28.0301 65.4584 27.9002 66.5719 28.3049C68.2935 28.8832 69.6302 30.4172 70 32.1891V41.3232C69.6535 43.0021 68.4387 44.4719 66.8445 45.1117C65.6639 45.6312 64.3518 45.4904 63.1 45.5109C63.0973 47.7955 63.1 50.0814 63.0986 52.3674C63.1069 53.427 62.937 54.4906 62.5714 55.4873C61.588 58.2121 59.1734 60.375 56.3397 61.0189C55.1674 61.3184 53.9484 61.2418 52.7514 61.25C48.8631 61.25 44.9749 61.25 41.088 61.2486C40.9017 61.235 40.7291 61.3033 40.5771 61.4031C36.1698 64.1621 31.7556 66.9088 27.3442 69.6609C27.0853 69.8209 26.8004 69.933 26.5046 70H26.117C25.2473 69.9016 24.5187 69.1209 24.5461 68.2363C24.5379 65.908 24.5475 63.5797 24.5433 61.2514C21.6152 61.2486 18.6884 61.2514 15.7615 61.25C14.2194 61.25 12.68 60.8303 11.3515 60.0482C8.7602 58.543 7.03315 55.6445 7.02219 52.6408C7.0126 50.2633 7.02219 47.8871 7.01671 45.5096C6.34699 45.5027 5.67726 45.5232 5.0089 45.4973C3.62698 45.433 2.28341 44.7973 1.36442 43.7664C0.482405 42.8039 -0.00379854 41.5023 0.00989735 40.1994C0.00578858 37.9668 0.00989734 35.7342 0.00715817 33.5016C-0.121583 31.1596 1.50001 28.875 3.7612 28.2352C4.81578 27.9098 5.93337 28.0342 7.01945 28.0068C7.01808 26.2814 7.01808 24.5561 7.01808 22.8307C7.0085 21.1914 7.46046 19.5467 8.33974 18.1604C9.84218 15.7131 12.6115 14.0889 15.4931 14.026C17.3407 14.0068 19.1883 14.026 21.0372 14.0164C21.0386 12.7449 21.0399 11.4748 21.0358 10.2033C19.3731 9.60039 18.0419 8.14844 17.668 6.41348C17.2489 4.65664 17.8324 2.70703 19.1485 1.46699C20.0278 0.616601 21.2084 0.110742 22.4246 0ZM22.3616 3.57793C21.4892 3.78027 20.8824 4.72227 21.0742 5.6C21.2289 6.53242 22.237 7.20234 23.1587 6.97539C24.0763 6.80176 24.7214 5.81055 24.4995 4.90273C24.3228 3.96348 23.2861 3.31816 22.3616 3.57793ZM46.7594 3.62031C45.9555 3.88145 45.4282 4.77832 45.6117 5.60684C45.7665 6.52832 46.7567 7.19004 47.6702 6.97949C48.6413 6.81406 49.3069 5.72852 49.0069 4.78926C48.7645 3.85547 47.6661 3.27988 46.7594 3.62031ZM13.5401 18.0209C11.7569 18.8439 10.5297 20.7279 10.527 22.6926C10.5174 32.5828 10.5256 42.473 10.5229 52.3633C10.4927 53.7195 10.9967 55.0799 11.9308 56.0697C12.9018 57.1252 14.3221 57.7514 15.7588 57.7486C19.2759 57.7568 22.793 57.7404 26.3087 57.7568C27.2305 57.7459 28.055 58.558 28.044 59.4809C28.0563 61.3512 28.044 63.2215 28.0495 65.0932C31.8337 62.7443 35.6041 60.375 39.3869 58.0248C39.6924 57.8307 40.0526 57.7459 40.4114 57.7514C45.0666 57.7459 49.7219 57.7527 54.3771 57.7486C55.6933 57.7432 56.9944 57.2195 57.9449 56.3144C59.0241 55.3096 59.6254 53.8357 59.5939 52.366C59.5939 42.5236 59.5966 32.6799 59.5925 22.8375C59.6103 21.4033 59.0186 19.9746 57.9764 18.9848C56.993 18.0318 55.6234 17.4959 54.2525 17.5191C41.4674 17.5178 28.6822 17.5178 15.8971 17.5178C15.0863 17.5082 14.2728 17.6723 13.5401 18.0209ZM5.01301 31.5369C4.18714 31.6367 3.51468 32.4023 3.51878 33.2336C3.50646 35.5551 3.51331 37.8779 3.51468 40.2008C3.49824 40.8146 3.81872 41.4258 4.34876 41.7416C5.15544 42.2092 6.1347 41.9357 7.01945 42.0096C7.02356 38.515 7.00576 35.0205 7.02767 31.526C6.35657 31.5027 5.68273 31.485 5.01301 31.5369ZM63.0959 31.515C63.1027 35.0137 63.0973 38.5109 63.0986 42.0096C64.0423 41.9289 65.1366 42.2529 65.946 41.6186C66.5089 41.1934 66.6555 40.4551 66.6062 39.7893C66.5966 37.6031 66.6157 35.4156 66.5979 33.2295C66.5993 32.3805 65.8953 31.6039 65.0462 31.5301C64.397 31.4863 63.7451 31.5137 63.0959 31.515Z"/>
<path d="M25.6856 24.5533C26.9127 24.4098 28.1878 24.7064 29.2123 25.3996C30.6257 26.3279 31.531 27.9727 31.5488 29.6639C31.5803 30.2777 31.2721 30.8984 30.7503 31.2279C29.9984 31.7379 28.8754 31.5205 28.3713 30.7658C28.0783 30.3912 28.0714 29.9045 28.0111 29.4561C27.8892 28.5947 27.0237 27.9357 26.1595 28.0246C25.3144 28.0697 24.5817 28.8121 24.5557 29.6584C24.5488 30.301 24.2461 30.9572 23.6668 31.2731C22.9135 31.7297 21.8466 31.4918 21.3577 30.7617C20.8797 30.0863 21.0386 29.2018 21.2084 28.4484C21.7124 26.3949 23.5778 24.7721 25.6856 24.5533Z"/>
<path d="M43.2149 24.552C44.5092 24.4002 45.8528 24.7502 46.906 25.5186C48.2591 26.4893 49.1014 28.1326 49.0713 29.7992C49.0658 30.4404 48.6714 31.0584 48.0907 31.3318C47.3182 31.727 46.2924 31.4316 45.8459 30.6906C45.4487 30.1219 45.7007 29.3412 45.2693 28.7848C44.7379 27.9508 43.4697 27.7635 42.7192 28.4074C42.2371 28.7711 42.0631 29.3822 42.0453 29.9605C41.9755 30.934 40.9579 31.6805 40.006 31.4795C39.1062 31.3387 38.4556 30.4254 38.572 29.5299C38.6337 27.0307 40.725 24.7967 43.2149 24.552Z"/>
<path d="M22.2315 42.9789C22.6656 42.8244 23.1532 42.8709 23.5655 43.0678C27.5469 45.0064 32.0569 45.6559 36.4519 45.4822C39.8978 45.31 43.3601 44.6236 46.4746 43.102C47.2032 42.6973 48.1989 42.8846 48.7029 43.5572C49.2891 44.2682 49.1576 45.4275 48.4249 45.9895C47.9195 46.3545 47.3128 46.5404 46.7499 46.7961C41.8358 48.851 36.3834 49.4129 31.1133 48.8141C27.9824 48.4381 24.9131 47.5563 22.0589 46.2164C21.433 45.9361 21.0112 45.2635 21.0413 44.5772C21.0591 43.8662 21.5535 43.1977 22.2315 42.9789Z"/>
</mask>
<path d="M22.4246 0H23.1669C24.7187 0.136719 26.2074 0.946094 27.0935 2.23535C28.259 3.85957 28.3604 6.15645 27.3387 7.875C26.7224 8.94961 25.7116 9.77676 24.5488 10.1979C24.5392 11.4721 24.5433 12.7449 24.5461 14.0191C31.5543 14.0164 38.5638 14.0205 45.5734 14.0178C45.572 12.7449 45.5775 11.4734 45.5706 10.202C43.9764 9.62637 42.6877 8.26738 42.2549 6.62539C41.7043 4.69219 42.4014 2.47871 43.9682 1.21543C44.8311 0.49082 45.9308 0.0738281 47.0539 0H47.6935C49.2398 0.132617 50.7258 0.936523 51.6146 2.21621C52.7528 3.78848 52.8966 6.00059 51.968 7.70547C51.3626 8.86074 50.3067 9.75352 49.0823 10.1992C49.0741 11.4721 49.0809 12.7449 49.0795 14.0178C50.8929 14.0219 52.7048 14.0109 54.5182 14.0219C56.7205 14.052 58.8858 14.9707 60.4512 16.5129C61.8468 17.8582 62.7686 19.682 63.0178 21.6029C63.1219 22.3262 63.0959 23.059 63.0986 23.7877C63.1 25.1945 63.0959 26.6014 63.1014 28.0096C64.2601 28.0301 65.4584 27.9002 66.5719 28.3049C68.2935 28.8832 69.6302 30.4172 70 32.1891V41.3232C69.6535 43.0021 68.4387 44.4719 66.8445 45.1117C65.6639 45.6312 64.3518 45.4904 63.1 45.5109C63.0973 47.7955 63.1 50.0814 63.0986 52.3674C63.1069 53.427 62.937 54.4906 62.5714 55.4873C61.588 58.2121 59.1734 60.375 56.3397 61.0189C55.1674 61.3184 53.9484 61.2418 52.7514 61.25C48.8631 61.25 44.9749 61.25 41.088 61.2486C40.9017 61.235 40.7291 61.3033 40.5771 61.4031C36.1698 64.1621 31.7556 66.9088 27.3442 69.6609C27.0853 69.8209 26.8004 69.933 26.5046 70H26.117C25.2473 69.9016 24.5187 69.1209 24.5461 68.2363C24.5379 65.908 24.5475 63.5797 24.5433 61.2514C21.6152 61.2486 18.6884 61.2514 15.7615 61.25C14.2194 61.25 12.68 60.8303 11.3515 60.0482C8.7602 58.543 7.03315 55.6445 7.02219 52.6408C7.0126 50.2633 7.02219 47.8871 7.01671 45.5096C6.34699 45.5027 5.67726 45.5232 5.0089 45.4973C3.62698 45.433 2.28341 44.7973 1.36442 43.7664C0.482405 42.8039 -0.00379854 41.5023 0.00989735 40.1994C0.00578858 37.9668 0.00989734 35.7342 0.00715817 33.5016C-0.121583 31.1596 1.50001 28.875 3.7612 28.2352C4.81578 27.9098 5.93337 28.0342 7.01945 28.0068C7.01808 26.2814 7.01808 24.5561 7.01808 22.8307C7.0085 21.1914 7.46046 19.5467 8.33974 18.1604C9.84218 15.7131 12.6115 14.0889 15.4931 14.026C17.3407 14.0068 19.1883 14.026 21.0372 14.0164C21.0386 12.7449 21.0399 11.4748 21.0358 10.2033C19.3731 9.60039 18.0419 8.14844 17.668 6.41348C17.2489 4.65664 17.8324 2.70703 19.1485 1.46699C20.0278 0.616601 21.2084 0.110742 22.4246 0ZM22.3616 3.57793C21.4892 3.78027 20.8824 4.72227 21.0742 5.6C21.2289 6.53242 22.237 7.20234 23.1587 6.97539C24.0763 6.80176 24.7214 5.81055 24.4995 4.90273C24.3228 3.96348 23.2861 3.31816 22.3616 3.57793ZM46.7594 3.62031C45.9555 3.88145 45.4282 4.77832 45.6117 5.60684C45.7665 6.52832 46.7567 7.19004 47.6702 6.97949C48.6413 6.81406 49.3069 5.72852 49.0069 4.78926C48.7645 3.85547 47.6661 3.27988 46.7594 3.62031ZM13.5401 18.0209C11.7569 18.8439 10.5297 20.7279 10.527 22.6926C10.5174 32.5828 10.5256 42.473 10.5229 52.3633C10.4927 53.7195 10.9967 55.0799 11.9308 56.0697C12.9018 57.1252 14.3221 57.7514 15.7588 57.7486C19.2759 57.7568 22.793 57.7404 26.3087 57.7568C27.2305 57.7459 28.055 58.558 28.044 59.4809C28.0563 61.3512 28.044 63.2215 28.0495 65.0932C31.8337 62.7443 35.6041 60.375 39.3869 58.0248C39.6924 57.8307 40.0526 57.7459 40.4114 57.7514C45.0666 57.7459 49.7219 57.7527 54.3771 57.7486C55.6933 57.7432 56.9944 57.2195 57.9449 56.3144C59.0241 55.3096 59.6254 53.8357 59.5939 52.366C59.5939 42.5236 59.5966 32.6799 59.5925 22.8375C59.6103 21.4033 59.0186 19.9746 57.9764 18.9848C56.993 18.0318 55.6234 17.4959 54.2525 17.5191C41.4674 17.5178 28.6822 17.5178 15.8971 17.5178C15.0863 17.5082 14.2728 17.6723 13.5401 18.0209ZM5.01301 31.5369C4.18714 31.6367 3.51468 32.4023 3.51878 33.2336C3.50646 35.5551 3.51331 37.8779 3.51468 40.2008C3.49824 40.8146 3.81872 41.4258 4.34876 41.7416C5.15544 42.2092 6.1347 41.9357 7.01945 42.0096C7.02356 38.515 7.00576 35.0205 7.02767 31.526C6.35657 31.5027 5.68273 31.485 5.01301 31.5369ZM63.0959 31.515C63.1027 35.0137 63.0973 38.5109 63.0986 42.0096C64.0423 41.9289 65.1366 42.2529 65.946 41.6186C66.5089 41.1934 66.6555 40.4551 66.6062 39.7893C66.5966 37.6031 66.6157 35.4156 66.5979 33.2295C66.5993 32.3805 65.8953 31.6039 65.0462 31.5301C64.397 31.4863 63.7451 31.5137 63.0959 31.515Z" fill="white"/>
<path d="M25.6856 24.5533C26.9127 24.4098 28.1878 24.7064 29.2123 25.3996C30.6257 26.3279 31.531 27.9727 31.5488 29.6639C31.5803 30.2777 31.2721 30.8984 30.7503 31.2279C29.9984 31.7379 28.8754 31.5205 28.3713 30.7658C28.0783 30.3912 28.0714 29.9045 28.0111 29.4561C27.8892 28.5947 27.0237 27.9357 26.1595 28.0246C25.3144 28.0697 24.5817 28.8121 24.5557 29.6584C24.5488 30.301 24.2461 30.9572 23.6668 31.2731C22.9135 31.7297 21.8466 31.4918 21.3577 30.7617C20.8797 30.0863 21.0386 29.2018 21.2084 28.4484C21.7124 26.3949 23.5778 24.7721 25.6856 24.5533Z" fill="white"/>
<path d="M43.2149 24.552C44.5092 24.4002 45.8528 24.7502 46.906 25.5186C48.2591 26.4893 49.1014 28.1326 49.0713 29.7992C49.0658 30.4404 48.6714 31.0584 48.0907 31.3318C47.3182 31.727 46.2924 31.4316 45.8459 30.6906C45.4487 30.1219 45.7007 29.3412 45.2693 28.7848C44.7379 27.9508 43.4697 27.7635 42.7192 28.4074C42.2371 28.7711 42.0631 29.3822 42.0453 29.9605C41.9755 30.934 40.9579 31.6805 40.006 31.4795C39.1062 31.3387 38.4556 30.4254 38.572 29.5299C38.6337 27.0307 40.725 24.7967 43.2149 24.552Z" fill="white"/>
<path d="M22.2315 42.9789C22.6656 42.8244 23.1532 42.8709 23.5655 43.0678C27.5469 45.0064 32.0569 45.6559 36.4519 45.4822C39.8978 45.31 43.3601 44.6236 46.4746 43.102C47.2032 42.6973 48.1989 42.8846 48.7029 43.5572C49.2891 44.2682 49.1576 45.4275 48.4249 45.9895C47.9195 46.3545 47.3128 46.5404 46.7499 46.7961C41.8358 48.851 36.3834 49.4129 31.1133 48.8141C27.9824 48.4381 24.9131 47.5563 22.0589 46.2164C21.433 45.9361 21.0112 45.2635 21.0413 44.5772C21.0591 43.8662 21.5535 43.1977 22.2315 42.9789Z" fill="white"/>
<path d="M22.4246 0H23.1669C24.7187 0.136719 26.2074 0.946094 27.0935 2.23535C28.259 3.85957 28.3604 6.15645 27.3387 7.875C26.7224 8.94961 25.7116 9.77676 24.5488 10.1979C24.5392 11.4721 24.5433 12.7449 24.5461 14.0191C31.5543 14.0164 38.5638 14.0205 45.5734 14.0178C45.572 12.7449 45.5775 11.4734 45.5706 10.202C43.9764 9.62637 42.6877 8.26738 42.2549 6.62539C41.7043 4.69219 42.4014 2.47871 43.9682 1.21543C44.8311 0.49082 45.9308 0.0738281 47.0539 0H47.6935C49.2398 0.132617 50.7258 0.936523 51.6146 2.21621C52.7528 3.78848 52.8966 6.00059 51.968 7.70547C51.3626 8.86074 50.3067 9.75352 49.0823 10.1992C49.0741 11.4721 49.0809 12.7449 49.0795 14.0178C50.8929 14.0219 52.7048 14.0109 54.5182 14.0219C56.7205 14.052 58.8858 14.9707 60.4512 16.5129C61.8468 17.8582 62.7686 19.682 63.0178 21.6029C63.1219 22.3262 63.0959 23.059 63.0986 23.7877C63.1 25.1945 63.0959 26.6014 63.1014 28.0096C64.2601 28.0301 65.4584 27.9002 66.5719 28.3049C68.2935 28.8832 69.6302 30.4172 70 32.1891V41.3232C69.6535 43.0021 68.4387 44.4719 66.8445 45.1117C65.6639 45.6312 64.3518 45.4904 63.1 45.5109C63.0973 47.7955 63.1 50.0814 63.0986 52.3674C63.1069 53.427 62.937 54.4906 62.5714 55.4873C61.588 58.2121 59.1734 60.375 56.3397 61.0189C55.1674 61.3184 53.9484 61.2418 52.7514 61.25C48.8631 61.25 44.9749 61.25 41.088 61.2486C40.9017 61.235 40.7291 61.3033 40.5771 61.4031C36.1698 64.1621 31.7556 66.9088 27.3442 69.6609C27.0853 69.8209 26.8004 69.933 26.5046 70H26.117C25.2473 69.9016 24.5187 69.1209 24.5461 68.2363C24.5379 65.908 24.5475 63.5797 24.5433 61.2514C21.6152 61.2486 18.6884 61.2514 15.7615 61.25C14.2194 61.25 12.68 60.8303 11.3515 60.0482C8.7602 58.543 7.03315 55.6445 7.02219 52.6408C7.0126 50.2633 7.02219 47.8871 7.01671 45.5096C6.34699 45.5027 5.67726 45.5232 5.0089 45.4973C3.62698 45.433 2.28341 44.7973 1.36442 43.7664C0.482405 42.8039 -0.00379854 41.5023 0.00989735 40.1994C0.00578858 37.9668 0.00989734 35.7342 0.00715817 33.5016C-0.121583 31.1596 1.50001 28.875 3.7612 28.2352C4.81578 27.9098 5.93337 28.0342 7.01945 28.0068C7.01808 26.2814 7.01808 24.5561 7.01808 22.8307C7.0085 21.1914 7.46046 19.5467 8.33974 18.1604C9.84218 15.7131 12.6115 14.0889 15.4931 14.026C17.3407 14.0068 19.1883 14.026 21.0372 14.0164C21.0386 12.7449 21.0399 11.4748 21.0358 10.2033C19.3731 9.60039 18.0419 8.14844 17.668 6.41348C17.2489 4.65664 17.8324 2.70703 19.1485 1.46699C20.0278 0.616601 21.2084 0.110742 22.4246 0ZM22.3616 3.57793C21.4892 3.78027 20.8824 4.72227 21.0742 5.6C21.2289 6.53242 22.237 7.20234 23.1587 6.97539C24.0763 6.80176 24.7214 5.81055 24.4995 4.90273C24.3228 3.96348 23.2861 3.31816 22.3616 3.57793ZM46.7594 3.62031C45.9555 3.88145 45.4282 4.77832 45.6117 5.60684C45.7665 6.52832 46.7567 7.19004 47.6702 6.97949C48.6413 6.81406 49.3069 5.72852 49.0069 4.78926C48.7645 3.85547 47.6661 3.27988 46.7594 3.62031ZM13.5401 18.0209C11.7569 18.8439 10.5297 20.7279 10.527 22.6926C10.5174 32.5828 10.5256 42.473 10.5229 52.3633C10.4927 53.7195 10.9967 55.0799 11.9308 56.0697C12.9018 57.1252 14.3221 57.7514 15.7588 57.7486C19.2759 57.7568 22.793 57.7404 26.3087 57.7568C27.2305 57.7459 28.055 58.558 28.044 59.4809C28.0563 61.3512 28.044 63.2215 28.0495 65.0932C31.8337 62.7443 35.6041 60.375 39.3869 58.0248C39.6924 57.8307 40.0526 57.7459 40.4114 57.7514C45.0666 57.7459 49.7219 57.7527 54.3771 57.7486C55.6933 57.7432 56.9944 57.2195 57.9449 56.3144C59.0241 55.3096 59.6254 53.8357 59.5939 52.366C59.5939 42.5236 59.5966 32.6799 59.5925 22.8375C59.6103 21.4033 59.0186 19.9746 57.9764 18.9848C56.993 18.0318 55.6234 17.4959 54.2525 17.5191C41.4674 17.5178 28.6822 17.5178 15.8971 17.5178C15.0863 17.5082 14.2728 17.6723 13.5401 18.0209ZM5.01301 31.5369C4.18714 31.6367 3.51468 32.4023 3.51878 33.2336C3.50646 35.5551 3.51331 37.8779 3.51468 40.2008C3.49824 40.8146 3.81872 41.4258 4.34876 41.7416C5.15544 42.2092 6.1347 41.9357 7.01945 42.0096C7.02356 38.515 7.00576 35.0205 7.02767 31.526C6.35657 31.5027 5.68273 31.485 5.01301 31.5369ZM63.0959 31.515C63.1027 35.0137 63.0973 38.5109 63.0986 42.0096C64.0423 41.9289 65.1366 42.2529 65.946 41.6186C66.5089 41.1934 66.6555 40.4551 66.6062 39.7893C66.5966 37.6031 66.6157 35.4156 66.5979 33.2295C66.5993 32.3805 65.8953 31.6039 65.0462 31.5301C64.397 31.4863 63.7451 31.5137 63.0959 31.515Z" stroke="#404040" stroke-width="1.5" mask="url(#path-1-inside-1_51_13070)"/>
<path d="M25.6856 24.5533C26.9127 24.4098 28.1878 24.7064 29.2123 25.3996C30.6257 26.3279 31.531 27.9727 31.5488 29.6639C31.5803 30.2777 31.2721 30.8984 30.7503 31.2279C29.9984 31.7379 28.8754 31.5205 28.3713 30.7658C28.0783 30.3912 28.0714 29.9045 28.0111 29.4561C27.8892 28.5947 27.0237 27.9357 26.1595 28.0246C25.3144 28.0697 24.5817 28.8121 24.5557 29.6584C24.5488 30.301 24.2461 30.9572 23.6668 31.2731C22.9135 31.7297 21.8466 31.4918 21.3577 30.7617C20.8797 30.0863 21.0386 29.2018 21.2084 28.4484C21.7124 26.3949 23.5778 24.7721 25.6856 24.5533Z" stroke="#404040" stroke-width="1.5" mask="url(#path-1-inside-1_51_13070)"/>
<path d="M43.2149 24.552C44.5092 24.4002 45.8528 24.7502 46.906 25.5186C48.2591 26.4893 49.1014 28.1326 49.0713 29.7992C49.0658 30.4404 48.6714 31.0584 48.0907 31.3318C47.3182 31.727 46.2924 31.4316 45.8459 30.6906C45.4487 30.1219 45.7007 29.3412 45.2693 28.7848C44.7379 27.9508 43.4697 27.7635 42.7192 28.4074C42.2371 28.7711 42.0631 29.3822 42.0453 29.9605C41.9755 30.934 40.9579 31.6805 40.006 31.4795C39.1062 31.3387 38.4556 30.4254 38.572 29.5299C38.6337 27.0307 40.725 24.7967 43.2149 24.552Z" stroke="#404040" stroke-width="1.5" mask="url(#path-1-inside-1_51_13070)"/>
<path d="M22.2315 42.9789C22.6656 42.8244 23.1532 42.8709 23.5655 43.0678C27.5469 45.0064 32.0569 45.6559 36.4519 45.4822C39.8978 45.31 43.3601 44.6236 46.4746 43.102C47.2032 42.6973 48.1989 42.8846 48.7029 43.5572C49.2891 44.2682 49.1576 45.4275 48.4249 45.9895C47.9195 46.3545 47.3128 46.5404 46.7499 46.7961C41.8358 48.851 36.3834 49.4129 31.1133 48.8141C27.9824 48.4381 24.9131 47.5563 22.0589 46.2164C21.433 45.9361 21.0112 45.2635 21.0413 44.5772C21.0591 43.8662 21.5535 43.1977 22.2315 42.9789Z" stroke="#404040" stroke-width="1.5" mask="url(#path-1-inside-1_51_13070)"/>
</svg>
