<svg width="64" height="64" viewBox="0 0 64 64" fill="none" xmlns="http://www.w3.org/2000/svg">
<rect x="0.5" y="0.5" width="63" height="63" rx="31.5" fill="#343434" stroke="#343434"/>
<path d="M30.6785 14.0868C32.7715 13.8082 34.9544 14.2038 36.7952 15.2194C38.7926 16.3065 40.3804 18.0929 41.1964 20.1807C42.0236 22.2661 42.0646 24.6365 41.3161 26.7494C40.5764 28.8693 39.0472 30.7107 37.0867 31.8676C35.3303 32.9115 33.2325 33.3902 31.1845 33.2191C28.8394 33.0386 26.5842 31.9884 24.9474 30.3394C23.3724 28.7681 22.3717 26.6567 22.187 24.463C21.9943 22.3744 22.5283 20.2293 23.6889 18.4641C25.2156 16.1009 27.8387 14.4455 30.6785 14.0868ZM30.9139 16.5906C28.6032 16.9156 26.5175 18.4131 25.4847 20.4554C24.7257 21.9231 24.5233 23.653 24.9112 25.2526C25.263 26.725 26.1167 28.0758 27.299 29.0506C28.4723 30.0278 29.971 30.6282 31.5106 30.7248C33.0879 30.8331 34.6966 30.4171 36.0114 29.5577C37.3944 28.6645 38.4521 27.2996 38.9468 25.7518C39.4849 24.0933 39.3676 22.2418 38.6159 20.6634C37.8899 19.1156 36.5784 17.8386 34.9882 17.1408C33.7232 16.5749 32.288 16.3889 30.9139 16.5906Z" fill="#676767"/>
<path d="M30.4385 35.8292C33.4438 35.5953 36.5174 36.0349 39.2946 37.1965C42.108 38.3683 44.6435 40.3007 46.257 42.8626C47.281 44.4794 47.9034 46.3467 47.9862 48.25C47.9942 48.5836 48.044 48.9383 47.8874 49.2499C47.6729 49.7216 47.1469 50.0434 46.6152 49.994C45.9655 49.9493 45.4113 49.363 45.4306 48.7233C45.4258 47.2085 44.9921 45.7054 44.2163 44.397C42.9079 42.1766 40.7435 40.5283 38.3566 39.5268C35.5247 38.3385 32.3403 38.0136 29.3045 38.4916C26.4461 38.9484 23.6681 40.1571 21.5815 42.146C19.7897 43.8342 18.5802 46.1826 18.5706 48.6424C18.6148 49.279 18.1152 49.9006 17.4639 49.9846C16.7467 50.1047 16.011 49.5082 16.0006 48.7971C15.9765 46.5201 16.7394 44.2651 18.0518 42.3924C19.6275 40.1272 21.9309 38.3974 24.4816 37.2946C26.3626 36.4775 28.3889 35.9948 30.4385 35.8292Z" fill="#676767"/>
</svg>
