<svg width="24" height="20" viewBox="0 0 24 20" fill="none" xmlns="http://www.w3.org/2000/svg">
<path d="M1.19438 0.858406C1.82719 0.297243 2.66906 -0.00931909 3.51141 0.00107282C9.10641 -0.000816616 14.7019 0.00154516 20.2969 0.000128082C20.61 -0.001289 20.925 0.00815827 21.232 0.0738163C22.0645 0.241504 22.8234 0.736537 23.3245 1.42571C23.7394 1.9864 23.97 2.6751 24 3.37278V16.6229C23.9709 17.3235 23.7389 18.0155 23.3217 18.5785C22.8122 19.2771 22.0369 19.775 21.1898 19.9347C20.8195 20.0093 20.4403 19.9998 20.0648 19.9994C14.5481 19.9989 9.03141 20.0003 3.51469 19.9989C2.66016 20.0102 1.80609 19.6952 1.16953 19.1194C0.462188 18.4954 0.0346875 17.5724 0 16.6267V3.37939C0.0323437 2.4205 0.471562 1.48428 1.19438 0.858406ZM1.87125 2.15645C1.53891 2.54615 1.38047 3.06338 1.38469 3.57306C1.38422 7.85736 1.38422 12.1417 1.38469 16.426C1.38844 16.7883 1.45266 17.1562 1.62797 17.4765C1.92188 18.0551 2.50125 18.4732 3.13828 18.5719C3.49594 18.6224 3.85828 18.5993 4.21828 18.604C9.63984 18.6035 15.0614 18.6054 20.483 18.6031C21.1087 18.6097 21.7359 18.3343 22.1311 17.8412C22.4508 17.4628 22.612 16.9659 22.6139 16.4718C22.6177 15.4775 22.6148 14.4832 22.6153 13.4884C21.0778 13.4879 19.5403 13.4884 18.0023 13.4884C17.6559 13.4879 17.3067 13.4973 16.9641 13.4373C16.1142 13.2971 15.3281 12.8176 14.8031 12.1303C14.3461 11.5408 14.0878 10.7987 14.0808 10.0501C14.0672 9.31223 14.2964 8.57204 14.7258 7.97356C15.2137 7.28392 15.9581 6.78227 16.7794 6.599C17.0869 6.52625 17.4047 6.51066 17.7202 6.51161C19.3519 6.51208 20.9836 6.51208 22.6153 6.51161C22.6162 5.62782 22.6153 4.74357 22.6158 3.85978C22.6172 3.52299 22.6195 3.17628 22.5089 2.85365C22.2806 2.10213 21.5925 1.51924 20.8181 1.4224C20.4577 1.37753 20.0939 1.40162 19.732 1.39595C14.3264 1.39642 8.92125 1.39453 3.51609 1.3969C2.89219 1.39123 2.26594 1.66472 1.87125 2.15645ZM15.9609 8.65234C15.6127 9.05905 15.4331 9.6084 15.4744 10.1445C15.5095 10.7279 15.8077 11.2881 16.267 11.6443C16.6359 11.9414 17.1084 12.0892 17.5786 12.0916C19.2572 12.0949 20.9362 12.0921 22.6153 12.0925C22.6158 10.6977 22.6158 9.30231 22.6153 7.90696C21.1547 7.90649 19.6936 7.90696 18.233 7.90696C17.8758 7.91027 17.5167 7.88948 17.1623 7.94711C16.6983 8.03639 16.2638 8.28532 15.9609 8.65234Z" fill="white"/>
</svg>
