<svg width="50" height="64" viewBox="0 0 50 64" fill="none" xmlns="http://www.w3.org/2000/svg">
<path d="M24.743 22H25.2539C26.5816 22.0406 27.9051 22.3312 29.1133 22.8875C31.2488 23.8484 33.0195 25.5871 34.027 27.7008C34.6289 28.9496 34.9508 30.3258 35 31.7098V32.2551C34.9566 33.7187 34.5988 35.1734 33.9375 36.4812C33.2637 37.8133 32.293 38.9953 31.1109 39.9074C29.9293 40.8254 28.5391 41.4754 27.0742 41.7828C26.477 41.9133 25.8672 41.9746 25.257 42H24.7437C23.2035 41.9539 21.6727 41.5598 20.3133 40.8305C18.3746 39.7988 16.7891 38.116 15.8879 36.1121C15.3363 34.9164 15.0484 33.607 15 32.293V31.7113C15.0543 30.0074 15.5426 28.3187 16.4254 26.8594C17.3648 25.3031 18.7297 24.0031 20.3395 23.1566C21.6906 22.4336 23.2129 22.0457 24.743 22ZM22.4637 23.6375C20.6484 24.182 19.032 25.3445 17.9211 26.8777C18.9953 27.3047 20.1059 27.6418 21.2398 27.8668C21.7305 26.25 22.5133 24.7238 23.5395 23.3816C23.1766 23.4477 22.816 23.5277 22.4637 23.6375ZM26.4582 23.382C27.4848 24.7238 28.2672 26.2508 28.759 27.8672C29.8941 27.6453 31.0043 27.3043 32.0793 26.8793C30.7543 25.0418 28.6953 23.7508 26.4582 23.382ZM22.4934 28.0578C24.1543 28.2777 25.8438 28.2715 27.5055 28.0605C26.9828 26.4187 26.1223 24.8875 25.0004 23.5805C23.8777 24.8863 23.0172 26.4172 22.4934 28.0578ZM17.2445 27.9613C16.5109 29.3645 16.1637 30.9676 16.268 32.5484C16.3406 33.7645 16.6852 34.9582 17.2414 36.0402C18.4359 35.5629 19.6668 35.1699 20.9297 34.9187C20.5293 33.0039 20.5277 31.007 20.9289 29.0922C19.6676 28.8348 18.4363 28.4449 17.2445 27.9613ZM29.0691 29.0922C29.4727 31.0059 29.468 33.002 29.0691 34.916C30.3301 35.168 31.5625 35.5547 32.7527 36.0406C33.1902 35.207 33.4914 34.302 33.6402 33.3723C33.9387 31.5348 33.6207 29.6059 32.7527 27.9594C31.5633 28.4492 30.3297 28.8336 29.0691 29.0922ZM22.1691 34.725C24.0445 34.4676 25.9547 34.4688 27.8301 34.7246C28.2125 32.9375 28.2152 31.0703 27.8316 29.2832C27.3129 29.3547 26.7914 29.4094 26.2695 29.4508C24.9008 29.5629 23.5246 29.4691 22.1668 29.284C21.7828 31.0707 21.7848 32.9383 22.1691 34.725ZM22.4945 35.9395C23.0164 37.5816 23.8781 39.1125 25.0004 40.4191C26.1211 39.1113 26.9828 37.5813 27.5055 35.9395C25.8441 35.7262 24.1559 35.7258 22.4945 35.9395ZM17.9211 37.1223C18.2125 37.516 18.5289 37.8918 18.8809 38.2328C20.1418 39.4805 21.793 40.3207 23.5406 40.6184C22.5148 39.2762 21.7309 37.75 21.2398 36.1332C20.1055 36.357 18.9953 36.6949 17.9211 37.1223ZM28.7586 36.1328C28.2668 37.7492 27.484 39.2758 26.4582 40.6184C27.2215 40.4863 27.9691 40.2586 28.6707 39.9293C30.0227 39.3055 31.2039 38.3242 32.0793 37.1211C31.0039 36.6965 29.8941 36.3543 28.7586 36.1328Z" fill="white"/>
</svg>
