<?xml version="1.0" standalone="no"?>
<!DOCTYPE svg PUBLIC "-//W3C//DTD SVG 20010904//EN"
 "http://www.w3.org/TR/2001/REC-SVG-20010904/DTD/svg10.dtd">
<svg version="1.0" xmlns="http://www.w3.org/2000/svg"
 width="984.000000pt" height="984.000000pt" viewBox="0 0 984.000000 984.000000"
 preserveAspectRatio="xMidYMid meet">
<metadata>
Created by potrace 1.14, written by Peter Selinger 2001-2017
</metadata>
<g transform="translate(0.000000,984.000000) scale(0.100000,-0.100000)"
fill="#000000" stroke="none">
<path d="M4798 9235 c-2 -2 -15 -6 -28 -8 -14 -3 -43 -9 -65 -13 -22 -4 -42
-8 -45 -9 -16 -3 -88 -29 -105 -38 -11 -6 -22 -12 -25 -12 -15 -3 -116 -59
-118 -66 -2 -5 -8 -9 -14 -9 -24 0 -159 -123 -219 -200 -42 -53 -119 -177
-119 -191 0 -5 -4 -9 -10 -9 -5 0 -10 -5 -10 -11 0 -9 -50 -99 -100 -179 -17
-27 -73 -124 -98 -170 -13 -25 -30 -52 -37 -60 -11 -14 -141 -236 -158 -270
-4 -8 -16 -28 -27 -45 -10 -16 -31 -54 -47 -82 -15 -29 -31 -53 -35 -53 -4 0
-8 -4 -8 -10 0 -5 -14 -33 -31 -62 -33 -55 -53 -90 -90 -155 -12 -21 -30 -50
-40 -64 -10 -14 -16 -29 -12 -33 3 -3 2 -6 -3 -6 -5 0 -18 -17 -29 -37 -11
-21 -22 -40 -25 -43 -3 -3 -16 -25 -29 -50 -13 -25 -30 -52 -37 -61 -8 -8 -14
-19 -14 -23 0 -5 -89 -159 -145 -251 -7 -11 -12 -24 -13 -29 0 -5 -4 -12 -9
-15 -5 -3 -40 -60 -78 -125 -39 -66 -85 -145 -103 -175 -18 -31 -35 -64 -39
-73 -3 -10 -9 -18 -14 -18 -5 0 -9 -4 -9 -10 0 -5 -17 -38 -38 -72 -21 -35
-41 -67 -43 -73 -2 -5 -20 -36 -39 -68 -50 -83 -49 -82 -109 -187 -30 -52 -62
-106 -72 -120 -26 -38 -79 -133 -86 -152 -3 -10 -9 -18 -14 -18 -5 0 -9 -4 -9
-10 0 -8 -41 -81 -90 -160 -28 -46 -76 -128 -87 -150 -7 -14 -21 -38 -32 -55
-18 -30 -135 -228 -162 -275 -8 -14 -17 -27 -20 -30 -3 -3 -11 -20 -18 -37 -8
-18 -16 -33 -20 -33 -4 0 -12 -12 -18 -27 -15 -36 -61 -114 -79 -134 -8 -8
-14 -19 -14 -23 0 -4 -26 -51 -58 -104 -32 -53 -61 -104 -65 -112 -4 -8 -15
-27 -25 -42 -16 -24 -88 -146 -134 -228 -11 -19 -59 -100 -106 -180 -48 -80
-92 -154 -98 -165 -15 -28 -73 -127 -84 -145 -6 -8 -47 -78 -92 -155 -45 -77
-113 -194 -151 -260 -39 -66 -77 -133 -86 -150 -9 -16 -19 -32 -22 -35 -3 -3
-17 -26 -31 -51 -44 -79 -53 -93 -65 -107 -7 -7 -13 -17 -13 -22 0 -5 -22 -45
-50 -89 -27 -45 -46 -81 -42 -81 4 0 2 -4 -3 -8 -9 -6 -74 -111 -111 -177 -12
-23 -65 -114 -107 -183 -15 -26 -31 -54 -34 -62 -4 -8 -9 -17 -13 -20 -3 -3
-24 -36 -45 -75 -22 -38 -45 -79 -52 -90 -7 -11 -16 -27 -20 -35 -4 -8 -20
-34 -35 -56 -15 -23 -28 -46 -28 -52 0 -5 -8 -20 -18 -33 -11 -13 -30 -44 -44
-69 -14 -25 -41 -72 -60 -105 -89 -151 -138 -270 -156 -380 -15 -94 -5 -319
17 -378 5 -12 10 -26 11 -32 20 -82 59 -164 128 -270 28 -44 197 -215 212
-215 5 0 15 -6 22 -13 32 -31 197 -109 281 -132 4 -2 8 -3 10 -4 1 -2 13 -4
27 -6 14 -2 48 -8 75 -14 31 -6 390 -10 941 -11 l891 0 6 37 c3 21 9 52 12 68
4 17 8 39 9 50 1 12 5 26 9 32 3 5 9 25 11 44 3 19 10 50 15 69 15 54 31 113
36 130 2 8 4 15 5 15 1 0 3 7 5 15 19 91 162 462 243 630 19 41 36 77 36 80 3
14 72 145 79 148 4 2 7 12 7 23 0 10 5 19 10 19 6 0 10 5 10 11 0 8 80 155
119 219 6 8 31 51 57 95 26 44 51 82 54 85 3 3 30 43 60 90 29 47 57 87 62 88
4 2 8 9 8 16 0 7 9 21 20 31 11 10 20 24 20 31 0 7 6 17 13 21 7 4 23 25 36
46 13 21 28 43 35 50 6 6 29 37 51 67 21 30 45 62 52 70 7 8 43 53 80 100 37
47 72 90 78 96 5 7 24 29 40 49 17 21 37 45 45 55 8 9 35 41 60 70 25 28 63
71 85 95 22 24 76 82 120 130 77 84 329 337 426 427 26 24 67 62 91 84 37 35
101 91 338 297 25 22 39 33 175 142 39 31 80 65 93 76 12 10 24 19 27 19 2 0
15 10 28 23 13 12 52 42 86 67 33 24 61 48 61 52 0 5 5 8 11 8 6 0 33 17 59
38 26 20 58 44 70 52 48 32 115 84 118 92 2 4 8 8 13 8 10 0 62 34 85 56 7 6
36 26 66 45 29 18 55 36 58 39 3 4 32 24 65 45 33 22 65 43 70 48 6 4 55 37
110 72 55 36 107 69 115 75 58 40 191 120 199 120 5 0 11 4 13 8 4 10 261 165
425 258 24 13 79 44 123 69 44 25 102 57 128 72 26 14 75 41 110 60 l62 35
-19 31 c-10 18 -29 51 -41 75 -12 23 -26 42 -31 42 -5 0 -9 7 -9 15 0 9 -17
44 -39 78 -80 129 -211 356 -211 366 0 6 -4 11 -10 11 -5 0 -10 4 -10 9 0 5
-19 40 -42 77 -23 38 -53 89 -67 114 -28 49 -166 285 -182 310 -45 73 -129
222 -129 229 0 5 -4 11 -8 13 -7 3 -82 127 -149 248 -11 19 -34 58 -51 85 -56
93 -83 140 -89 158 -3 9 -9 17 -14 17 -5 0 -9 4 -9 10 0 5 -26 53 -58 107 -32
54 -84 143 -116 198 -32 55 -69 117 -82 137 -13 21 -24 40 -24 43 0 9 -54 90
-62 93 -5 2 -8 10 -8 18 0 7 -21 46 -47 86 -25 40 -45 73 -43 73 2 0 -8 18
-22 40 -14 22 -36 60 -50 85 -14 25 -44 75 -66 113 -23 37 -42 72 -42 77 0 6
-4 10 -8 10 -4 0 -16 13 -25 30 -27 45 -152 166 -219 211 -165 112 -317 160
-525 164 -72 2 -133 1 -135 0z"/>
<path d="M7643 5428 c-16 -13 -42 -32 -57 -43 -15 -11 -37 -28 -48 -37 -12
-10 -24 -18 -27 -18 -3 0 -23 -16 -43 -35 -21 -18 -38 -31 -38 -27 0 4 -4 2
-8 -3 -4 -6 -34 -32 -67 -58 -33 -26 -67 -53 -75 -60 -8 -8 -33 -27 -55 -43
-21 -16 -47 -36 -55 -44 -9 -8 -41 -35 -70 -60 -29 -25 -63 -54 -76 -65 -12
-11 -43 -38 -69 -60 -25 -21 -57 -48 -69 -60 -255 -229 -468 -442 -631 -629
-27 -32 -55 -63 -61 -69 -34 -39 -181 -223 -204 -258 -8 -12 -24 -34 -36 -48
-36 -46 -150 -223 -202 -316 -28 -49 -56 -95 -62 -102 -5 -7 -10 -14 -10 -17
0 -3 -18 -44 -41 -93 -66 -143 -138 -338 -156 -423 -3 -14 -6 -29 -7 -35 -37
-160 -46 -240 -46 -400 0 -99 5 -210 10 -210 1 0 3 -11 6 -25 2 -14 9 -54 16
-90 7 -36 12 -68 13 -72 0 -3 3 -10 8 -14 4 -4 7 -15 7 -25 0 -26 71 -213 84
-221 6 -4 8 -8 3 -8 -6 0 18 -49 82 -169 23 -43 94 -146 103 -149 4 -2 8 -8 8
-13 0 -24 170 -220 290 -335 116 -110 136 -128 250 -219 41 -33 77 -62 80 -65
3 -4 22 -16 43 -29 21 -13 43 -28 50 -35 21 -21 136 -96 146 -96 6 0 11 -3 11
-7 0 -5 14 -16 31 -26 29 -16 101 -17 1182 -16 1053 1 1159 2 1232 18 143 31
250 76 365 154 42 29 214 193 208 199 -1 2 11 23 28 48 43 61 79 134 104 211
37 108 45 165 45 304 -1 110 -11 190 -32 245 -4 8 -7 17 -8 20 -14 57 -92 218
-121 251 -8 8 -14 19 -14 22 0 6 -40 75 -79 137 -8 14 -14 28 -13 33 1 4 -3 7
-8 7 -6 0 -10 7 -10 15 0 8 -4 15 -10 15 -5 0 -10 4 -10 10 0 5 -27 55 -60
111 -33 55 -60 105 -60 110 0 5 -4 9 -9 9 -5 0 -15 15 -22 33 -7 17 -26 51
-41 73 -15 23 -28 45 -28 48 0 3 -16 30 -35 60 -19 30 -35 60 -35 66 0 5 -4
10 -9 10 -5 0 -11 8 -14 18 -8 23 -40 75 -52 84 -5 4 -7 8 -3 8 4 0 -10 27
-32 61 -21 33 -45 74 -52 90 -7 16 -16 29 -20 29 -5 0 -8 6 -8 14 0 7 -7 19
-15 26 -8 7 -12 16 -9 21 3 5 0 9 -5 9 -6 0 -11 4 -11 10 0 5 -19 40 -42 77
-22 38 -52 88 -66 113 -14 25 -36 63 -50 85 -14 22 -25 41 -24 42 1 2 -21 39
-48 83 -28 44 -47 80 -43 80 5 0 3 4 -2 8 -10 7 -65 88 -65 96 0 2 -24 44 -54
93 -29 49 -64 109 -78 133 -14 25 -53 91 -87 148 -33 57 -61 108 -61 113 0 5
-4 9 -9 9 -5 0 -11 8 -14 18 -6 17 -34 67 -90 157 -17 28 -35 59 -41 70 -9 17
-159 272 -207 353 -9 15 -25 43 -36 62 -11 19 -34 59 -52 88 -17 29 -31 57
-31 62 0 6 -4 10 -10 10 -5 0 -10 7 -10 15 0 8 -5 15 -11 15 -5 0 -8 4 -5 9 3
5 -1 14 -9 21 -8 7 -15 16 -15 21 0 4 -18 37 -40 71 -22 35 -40 68 -40 75 0 6
-3 13 -7 15 -10 4 -42 57 -50 81 -3 9 -9 17 -14 17 -5 0 -9 7 -9 15 0 21 -11
19 -47 -7z"/>
</g>
</svg>
